if (_typeface_js && _typeface_js.loadFace) _typeface_js.loadFace({"glyphs":{"0":{"ha":1273,"x_min":0,"x_max":0,"o":"m 618 888 b 135 367 345 888 135 688 b 578 -36 135 127 288 -36 b 1230 680 918 -36 1230 245 b 827 1109 1230 918 1094 1109 b 483 975 630 1109 483 1023 b 514 948 483 958 494 948 b 690 979 540 948 627 979 b 848 782 769 979 848 920 b 563 64 848 410 710 64 b 460 260 483 64 460 150 b 622 798 460 456 515 672 b 661 861 646 826 661 846 b 618 888 661 881 645 888 z "},"1":{"ha":804,"x_min":0,"x_max":0,"o":"m 568 111 b 751 689 618 321 659 469 b 829 983 803 812 829 898 b 690 1107 829 1074 772 1107 b 195 898 558 1107 371 1017 b 156 844 168 880 156 865 b 194 808 156 827 171 808 b 350 845 241 808 307 845 b 404 806 378 845 404 831 b 130 101 404 741 224 441 b 123 39 124 82 123 59 b 222 -19 123 -16 174 -19 b 498 -8 322 -19 352 -8 b 563 37 527 -8 563 7 b 562 62 563 43 562 52 b 568 111 562 77 564 94 z "},"2":{"ha":1273,"x_min":0,"x_max":0,"o":"m 248 87 b 905 -37 385 37 747 -37 b 981 -34 930 -37 956 -37 b 1155 286 1062 -25 1155 213 b 1101 327 1155 309 1135 327 b 286 216 1018 327 546 222 b 1175 850 576 431 1175 507 b 801 1109 1175 1046 982 1109 b 317 928 590 1109 431 1038 b 271 850 281 893 271 875 b 308 817 271 825 289 817 b 331 821 315 817 323 818 b 687 903 353 828 527 903 b 820 810 763 903 820 880 b 538 523 820 709 731 646 b 57 78 218 317 57 152 b 157 6 57 15 104 6 b 248 87 186 6 222 50 z "},"3":{"ha":1273,"x_min":0,"x_max":0,"o":"m 563 82 b 169 322 340 82 226 322 b 70 98 125 322 70 144 b 98 56 70 77 78 68 b 557 -27 152 22 286 -27 b 1156 300 872 -27 1156 88 b 831 577 1156 485 1017 554 b 1220 877 1038 616 1220 714 b 861 1112 1220 1033 1050 1112 b 337 947 583 1112 435 1029 b 299 884 321 934 299 911 b 336 848 299 862 315 848 b 406 872 355 848 370 857 b 692 941 525 926 581 941 b 850 819 775 941 850 884 b 513 618 850 718 728 644 b 430 562 471 612 430 597 b 522 507 430 538 460 522 b 763 300 677 471 763 391 b 563 82 763 171 654 82 z "},"4":{"ha":1273,"x_min":0,"x_max":0,"o":"m 1196 340 b 1235 361 1217 343 1231 350 b 1246 414 1239 372 1246 385 b 1219 442 1246 433 1238 442 b 1063 445 1202 442 1154 444 b 1121 656 1093 535 1121 613 b 1039 734 1121 711 1100 734 b 930 735 1013 734 957 735 b 871 690 899 735 878 720 b 737 446 862 646 801 553 b 562 448 678 446 614 447 b 404 476 495 450 404 459 b 947 1040 404 520 934 1013 b 958 1080 954 1055 958 1069 b 909 1116 958 1101 945 1116 b 534 1105 853 1116 556 1105 b 446 1033 484 1105 460 1087 b 71 421 369 736 151 526 b 67 408 68 417 67 412 b 167 300 67 372 137 313 b 321 289 186 292 243 289 b 657 304 371 289 507 296 b 576 101 619 233 589 162 b 570 39 572 81 570 59 b 642 -19 570 -1 597 -19 b 911 -15 711 -19 854 -15 b 976 31 940 -15 976 0 b 981 104 976 47 980 75 b 1026 328 983 172 1002 251 b 1196 340 1120 334 1189 340 z "},"5":{"ha":1273,"x_min":0,"x_max":0,"o":"m 721 650 b 393 584 611 650 497 624 l 542 909 b 1084 798 731 856 992 798 b 1219 1097 1197 798 1219 970 b 1159 1142 1219 1122 1190 1142 b 915 1109 1061 1116 1019 1109 b 511 1131 705 1109 553 1131 b 419 1066 488 1131 428 1089 b 237 573 336 849 237 605 b 305 498 237 542 273 498 b 501 511 327 498 423 511 b 808 332 693 511 808 441 b 558 96 808 214 713 96 b 180 322 374 96 231 322 b 81 98 136 322 81 144 b 109 56 81 77 89 68 b 568 -27 163 22 297 -27 b 1177 376 861 -27 1177 120 b 721 650 1177 616 945 650 z "},"6":{"ha":1273,"x_min":0,"x_max":0,"o":"m 1158 1116 b 1027 1124 1122 1122 1072 1124 b 150 408 573 1124 150 837 b 669 -27 150 111 357 -27 b 1232 460 966 -27 1232 175 b 951 726 1232 631 1112 726 b 693 629 828 726 745 683 b 666 570 677 613 666 590 b 715 532 666 549 679 532 b 801 549 737 532 765 549 b 892 401 863 549 892 491 b 693 110 892 245 806 110 b 524 376 570 110 524 264 b 1163 1047 524 732 774 1000 b 1204 1084 1194 1050 1204 1065 b 1158 1116 1204 1102 1189 1112 z "},"7":{"ha":1095,"x_min":0,"x_max":0,"o":"m 349 1113 b 188 758 276 1077 188 951 b 243 711 188 732 208 711 b 823 886 324 711 511 886 b 949 879 849 886 903 885 b 206 49 669 679 206 271 b 267 -15 206 1 229 -15 b 568 -7 355 -15 489 -14 b 669 49 624 -3 661 3 b 1213 994 747 475 1213 859 b 1124 1076 1213 1027 1154 1076 b 991 978 1093 1076 1055 1042 b 433 1126 800 1050 559 1126 b 349 1113 397 1126 372 1124 z "},"8":{"ha":1273,"x_min":0,"x_max":0,"o":"m 313 772 b 461 534 313 673 379 599 b 111 243 270 481 111 396 b 575 -35 111 69 312 -35 b 1177 335 905 -35 1177 70 b 725 876 1177 611 725 705 b 923 1019 725 962 816 1019 b 1078 896 1020 1019 1078 973 b 990 724 1078 779 990 777 b 1034 686 990 700 1008 686 b 1229 907 1126 686 1229 795 b 880 1133 1229 1041 1117 1133 b 313 772 618 1133 313 1025 z m 363 231 b 532 482 363 340 421 420 b 770 237 650 401 770 332 b 559 80 770 152 682 80 b 363 231 455 80 363 140 z "},"9":{"ha":1273,"x_min":0,"x_max":0,"o":"m 208 -32 b 338 -39 243 -37 294 -39 b 1216 677 793 -39 1216 248 b 697 1112 1216 974 1008 1112 b 134 624 400 1112 134 909 b 415 358 134 454 254 358 b 673 455 538 358 621 401 b 700 514 688 471 700 494 b 651 552 700 535 687 552 b 565 535 629 552 601 535 b 473 683 503 535 473 593 b 673 975 473 839 559 975 b 842 708 796 975 842 821 b 203 37 842 353 591 85 b 162 1 172 34 162 20 b 208 -32 162 -18 177 -27 z "},"e":{"ha":1042,"x_min":0,"x_max":0,"o":"m 1141 130 b 1174 170 1170 147 1174 157 b 1150 193 1174 189 1161 193 b 1122 187 1141 193 1133 191 b 665 92 972 139 803 92 b 438 229 567 92 450 119 b 1013 519 764 252 1013 323 b 684 720 1013 637 918 720 b 39 255 329 720 39 537 b 498 -27 39 76 174 -27 b 1141 130 844 -27 1084 97 z m 439 303 b 635 620 451 452 525 620 b 694 565 669 620 694 599 b 439 303 694 434 590 345 z "},"i":{"ha":696,"x_min":0,"x_max":0,"o":"m 437 776 b 700 956 571 776 700 858 b 524 1087 700 1029 629 1087 b 262 904 393 1087 262 1004 b 437 776 262 831 334 776 z m 766 184 b 509 115 701 153 574 115 b 467 165 478 115 467 138 b 637 673 467 259 637 562 b 602 707 637 688 628 707 b 267 700 524 707 341 700 b 201 666 222 700 201 686 b 202 640 201 657 202 649 b 32 85 202 446 32 155 b 237 -27 32 4 132 -27 b 807 136 439 -27 725 74 b 828 165 819 144 828 152 b 800 193 828 183 818 193 b 766 184 787 193 776 189 z "},"d":{"ha":1273,"x_min":0,"x_max":0,"o":"m 355 -27 b 646 79 512 -27 608 39 b 860 -27 675 -5 754 -27 b 1376 125 1058 -27 1285 58 b 1404 165 1394 138 1404 148 b 1374 193 1404 184 1391 193 b 1351 186 1366 193 1356 189 b 1115 108 1277 149 1164 108 b 1074 163 1083 108 1074 128 b 1297 960 1074 233 1297 798 b 1262 992 1297 975 1285 992 b 958 1006 1177 992 1023 1006 b 892 972 913 1006 892 993 b 893 953 892 966 893 960 b 855 637 893 886 870 732 b 581 720 803 677 723 720 b 55 235 234 720 55 463 b 355 -27 55 44 199 -27 z m 435 256 b 714 587 435 405 576 587 b 795 506 776 587 795 555 b 747 340 795 457 772 390 b 534 145 674 174 589 145 b 435 256 475 145 435 190 z "},"o":{"ha":1158,"x_min":0,"x_max":0,"o":"m 498 -27 b 1090 374 846 -27 1062 151 b 1166 369 1116 370 1142 369 b 1373 426 1251 369 1309 381 b 1406 473 1390 437 1406 455 b 1380 498 1406 490 1395 498 b 1348 489 1368 498 1358 494 b 1190 453 1291 460 1253 453 b 1090 469 1158 453 1124 458 b 663 720 1065 671 862 720 b 43 278 342 720 43 557 b 498 -27 43 65 230 -27 z m 416 218 b 655 605 416 410 532 605 b 724 503 714 605 724 549 b 508 93 724 316 629 93 b 416 218 432 93 416 156 z "},"h":{"ha":1275,"x_min":0,"x_max":0,"o":"m 1345 182 b 1106 114 1295 157 1198 114 b 1053 170 1075 114 1053 130 b 1179 562 1053 238 1179 438 b 1000 720 1179 675 1081 720 b 610 620 872 720 701 659 b 700 975 655 757 700 930 b 665 1006 700 989 687 1006 b 354 1004 590 1006 418 1004 b 288 970 309 1004 288 991 b 289 951 288 964 289 958 b 9 13 289 729 9 74 b 35 -14 9 1 25 -14 b 384 -6 110 -14 212 -6 b 420 19 391 -6 414 -1 b 581 534 435 75 505 315 b 684 550 612 544 650 550 b 778 486 735 550 778 532 b 642 65 778 396 642 163 b 840 -27 642 -20 772 -27 b 1373 123 1090 -27 1315 86 b 1407 168 1396 137 1407 151 b 1383 193 1407 183 1394 193 b 1345 182 1367 193 1357 189 z "}," ":{"ha":524,"x_min":0,"x_max":0,"o":""},"s":{"ha":1040,"x_min":0,"x_max":0,"o":"m 492 -26 b 1149 131 807 -26 1075 79 b 1172 168 1164 140 1172 151 b 1147 193 1172 184 1160 193 b 1118 184 1137 193 1128 190 b 855 101 1069 158 969 123 b 895 222 880 134 895 173 b 543 532 895 399 543 436 b 644 601 543 586 604 601 b 901 440 747 601 826 530 b 916 433 905 435 911 433 b 1031 638 965 433 1031 587 b 1021 670 1031 655 1029 665 b 665 720 962 706 781 720 b 98 445 475 720 98 660 b 425 149 98 260 425 267 b 347 84 425 109 393 84 b 84 199 188 84 131 199 b -23 104 55 199 -23 121 b -15 70 -23 92 -23 82 b 442 -27 19 18 236 -27 b 492 -26 459 -27 475 -27 z "},"n":{"ha":1275,"x_min":0,"x_max":0,"o":"m 1376 125 b 1407 170 1400 142 1407 157 b 1381 193 1407 186 1395 193 b 1343 184 1369 193 1359 191 b 1104 114 1285 160 1152 114 b 1054 170 1069 114 1054 140 b 1180 562 1054 240 1180 433 b 1002 720 1180 675 1082 720 b 610 620 873 720 701 659 b 617 671 614 642 617 660 b 582 705 617 686 608 705 b 260 698 503 705 334 698 b 195 664 216 698 195 684 b 195 638 195 655 195 647 b 10 13 195 436 10 68 b 36 -14 10 1 26 -14 b 385 -6 111 -14 213 -6 b 421 19 392 -6 414 -3 b 588 535 460 142 544 380 b 685 546 618 541 654 546 b 779 486 736 546 779 532 b 643 65 779 396 643 163 b 844 -27 643 -24 787 -27 b 1376 125 1090 -27 1335 96 z "},"p":{"ha":1273,"x_min":0,"x_max":0,"o":"m 692 -26 b 1379 132 954 -26 1218 20 b 1404 168 1392 141 1404 155 b 1381 193 1404 184 1396 193 b 1326 172 1364 193 1350 185 b 1004 94 1280 146 1192 108 b 1185 460 1114 184 1185 314 b 912 720 1185 638 1076 720 b 579 578 789 720 671 683 b 589 671 579 608 589 644 b 553 705 589 686 579 705 b 245 698 475 705 319 698 b 179 649 186 698 179 677 b 182 593 179 633 182 607 b -72 -304 182 407 -72 -115 b -37 -336 -72 -319 -60 -336 b 279 -328 49 -336 214 -328 b 345 -294 323 -328 345 -315 b 344 -275 345 -288 344 -281 b 391 56 344 -204 353 -59 b 654 -27 456 1 562 -27 b 692 -26 667 -27 680 -26 z m 810 437 b 541 109 810 288 675 109 b 460 191 479 109 460 142 b 499 352 460 239 477 302 b 712 547 572 518 656 547 b 810 437 770 547 810 503 z "},"l":{"ha":694,"x_min":0,"x_max":0,"o":"m 792 130 b 825 172 821 151 825 159 b 804 193 825 186 815 193 b 765 186 795 193 777 191 b 515 111 686 151 579 111 b 469 161 478 111 469 131 b 728 972 469 266 728 854 b 693 1006 728 987 719 1006 b 361 999 612 1006 437 999 b 295 965 316 999 295 985 b 296 939 295 956 296 948 b 45 95 296 741 45 191 b 276 -27 45 -5 137 -27 b 792 130 503 -27 743 95 z "},"m":{"ha":1735,"x_min":0,"x_max":0,"o":"m 1836 125 b 1866 169 1864 146 1866 157 b 1838 193 1866 185 1851 193 b 1799 182 1826 193 1811 188 b 1581 121 1750 159 1656 121 b 1529 172 1549 121 1529 143 b 1628 562 1529 258 1628 420 b 1463 720 1628 675 1544 720 b 1097 604 1345 720 1205 661 b 924 720 1076 686 994 720 b 609 620 810 720 703 671 b 616 671 614 642 616 660 b 581 705 616 686 607 705 b 260 698 503 705 334 698 b 194 664 215 698 194 684 b 195 638 194 655 195 647 b 10 13 195 436 10 68 b 36 -14 10 1 26 -14 b 385 -6 111 -14 212 -6 b 420 19 390 -6 413 -3 b 587 535 459 142 542 380 b 650 546 604 541 626 546 b 729 486 708 546 729 524 b 594 20 729 358 594 111 b 622 -14 594 -3 606 -14 b 937 -6 700 -14 765 -6 b 973 42 970 -6 968 19 b 1101 522 994 144 1086 358 b 1174 532 1127 528 1151 532 b 1248 465 1225 532 1248 512 b 1143 65 1248 376 1143 163 b 1278 -27 1143 11 1198 -27 b 1836 125 1549 -27 1788 89 z "},"c":{"ha":1042,"x_min":0,"x_max":0,"o":"m 652 602 b 852 427 753 602 800 519 b 894 401 860 412 876 401 b 1034 637 958 401 1034 581 b 1023 665 1034 650 1029 659 b 688 720 969 695 854 720 b 50 259 360 720 50 545 b 503 -27 50 88 181 -27 b 1138 123 777 -27 1021 47 b 1174 172 1167 142 1174 157 b 1153 193 1174 186 1164 193 b 1115 185 1141 193 1129 190 b 644 100 991 144 784 100 b 438 271 520 100 438 131 b 652 602 438 399 496 602 z "},"r":{"ha":926,"x_min":0,"x_max":0,"o":"m 617 671 b 582 705 617 686 608 705 b 260 698 503 705 334 698 b 195 664 216 698 195 684 b 195 638 195 655 195 647 b 10 -1 195 436 10 55 b 36 -27 10 -12 26 -27 b 385 -6 111 -27 213 -6 b 421 19 391 -6 414 -3 b 571 489 460 142 526 334 b 636 494 595 494 617 494 b 815 433 722 494 778 461 b 854 420 829 423 841 420 b 891 431 870 420 881 423 b 991 665 928 460 991 586 b 872 720 991 703 935 720 b 591 560 773 720 654 636 b 617 671 597 589 617 661 z "},"b":{"ha":1273,"x_min":0,"x_max":0,"o":"m 32 65 b 146 -14 32 19 85 -14 b 406 53 192 -14 327 26 b 658 -27 469 1 578 -27 b 709 -24 675 -27 692 -26 b 1381 133 1011 -23 1273 58 b 1404 170 1394 142 1404 155 b 1378 193 1404 185 1394 193 b 1346 183 1367 193 1360 191 b 998 95 1283 149 1163 109 b 1185 455 1111 186 1185 317 b 902 720 1185 641 1078 720 b 578 578 772 720 656 668 l 578 578 b 703 972 642 747 703 915 b 667 1006 703 987 693 1006 b 531 1004 630 1006 586 1004 l 354 1004 b 288 970 309 1004 288 991 b 289 945 288 962 289 954 b 32 65 289 743 32 121 z m 810 437 b 541 109 810 288 675 109 b 460 191 479 109 460 142 b 499 352 460 239 477 302 b 712 547 572 518 656 547 b 810 437 770 547 810 503 z "},"q":{"ha":1273,"x_min":0,"x_max":0,"o":"m 355 -27 b 650 78 511 -27 611 39 b 524 -302 593 -71 524 -250 b 559 -336 524 -317 534 -336 b 881 -329 638 -336 807 -329 b 947 -295 926 -329 947 -315 b 946 -269 947 -286 946 -278 b 1012 12 946 -207 974 -103 b 1381 131 1160 33 1333 94 b 1404 170 1394 140 1404 154 b 1380 193 1404 186 1394 193 b 1354 186 1369 193 1363 191 b 1057 115 1301 161 1180 115 l 1047 115 b 1239 637 1132 353 1239 604 b 1170 700 1239 686 1212 700 b 841 635 1124 700 935 667 b 581 720 789 675 701 720 b 55 235 234 720 55 463 b 355 -27 55 44 199 -27 z m 435 256 b 705 583 435 405 570 583 b 787 502 766 583 787 544 b 746 334 787 453 768 384 b 534 145 673 168 589 145 b 435 256 475 145 435 190 z "},"u":{"ha":1275,"x_min":0,"x_max":0,"o":"m 1367 120 b 1407 170 1391 135 1407 149 b 1381 193 1407 188 1394 193 b 1352 183 1372 193 1361 188 b 1101 109 1294 151 1161 109 b 1053 160 1065 109 1053 128 b 1221 679 1053 281 1221 597 b 1196 705 1221 690 1205 705 b 854 697 1120 705 1027 697 b 819 672 848 697 822 695 b 648 157 789 484 692 313 b 555 146 620 151 593 146 b 465 222 505 146 465 171 b 616 671 465 347 616 600 b 581 705 616 686 607 705 b 275 698 507 705 345 698 b 208 642 215 698 208 682 b 68 136 208 552 68 302 b 268 -27 68 5 162 -27 b 629 65 403 -27 538 28 b 827 -27 648 -15 761 -27 b 1367 120 1065 -27 1293 75 z "},"R":{"ha":1504,"x_min":0,"x_max":0,"o":"m 764 732 b 795 808 790 779 795 788 b 712 843 795 840 754 843 b 450 798 633 843 515 829 b 144 251 281 716 227 417 b -9 144 100 161 72 144 b -54 111 -31 144 -54 132 b 290 -14 -54 56 113 -14 b 551 144 437 -14 509 1 b 640 422 575 224 607 326 b 673 423 651 422 663 423 b 824 319 791 423 824 368 b 779 124 824 269 779 193 b 1020 -27 779 31 857 -27 b 1404 88 1226 -27 1404 26 b 1263 187 1404 159 1263 92 b 1276 308 1263 229 1276 274 b 985 484 1276 421 1162 484 b 1447 792 1257 526 1447 603 b 977 1069 1447 1009 1171 1069 b 237 893 610 1069 402 1000 b 198 839 214 879 198 857 b 234 815 198 824 213 815 b 734 922 276 815 422 922 b 1023 752 861 922 1023 904 b 663 489 1023 597 888 515 b 764 732 701 595 738 689 z "},".":{"ha":812,"x_min":0,"x_max":0,"o":"m 328 -38 b 606 153 469 -38 606 49 b 420 291 606 230 530 291 b 142 98 281 291 142 203 b 328 -38 142 20 219 -38 z "},"t":{"ha":812,"x_min":0,"x_max":0,"o":"m 911 127 b 943 170 937 144 943 156 b 922 193 943 183 935 193 b 883 184 909 193 896 189 b 537 119 786 143 661 119 b 477 168 503 119 477 131 b 641 599 477 231 573 422 b 854 625 733 608 822 618 b 903 673 883 631 903 647 b 852 713 903 705 878 713 b 674 690 837 713 764 701 b 708 852 694 752 708 808 b 673 886 708 867 699 886 b 330 821 596 886 408 831 b 253 780 286 815 253 800 b 254 754 253 771 254 763 b 245 657 254 722 250 689 b 165 648 215 654 188 651 b 128 605 142 644 128 627 b 168 572 128 582 149 572 b 227 574 176 572 199 573 b 42 86 170 369 42 176 b 240 -27 42 17 110 -27 b 911 127 456 -27 773 36 z "},"O":{"ha":1389,"x_min":0,"x_max":0,"o":"m 706 737 b 787 829 755 781 787 803 b 736 861 787 843 777 861 b 92 314 469 861 92 645 b 576 -27 92 87 258 -27 b 1377 625 1013 -27 1377 220 b 864 1069 1377 874 1230 1069 b 275 859 582 1069 275 913 b 300 839 275 843 287 839 b 734 935 325 839 532 935 b 965 659 901 935 965 858 b 618 92 965 366 775 92 b 503 267 536 92 503 159 b 706 737 503 479 611 661 z "},"C":{"ha":1273,"x_min":0,"x_max":0,"o":"m 931 985 b 1023 933 979 985 1023 978 b 880 591 1023 870 880 631 b 1020 509 880 528 969 509 b 1303 810 1211 509 1303 660 b 920 1069 1303 947 1173 1069 b 78 377 551 1069 78 774 b 611 -27 78 131 292 -27 b 1160 176 857 -27 1160 86 b 1120 199 1160 193 1143 199 b 786 141 1059 199 975 141 b 523 407 599 141 523 258 b 931 985 523 673 768 985 z "},"Q":{"ha":1389,"x_min":0,"x_max":0,"o":"m 468 102 b 910 -308 548 -60 761 -240 b 1082 -346 960 -330 1032 -346 b 1393 -137 1206 -346 1310 -263 b 1434 -47 1415 -104 1434 -73 b 1398 -12 1434 -22 1419 -12 b 1353 -22 1385 -12 1369 -16 b 1102 -61 1279 -47 1193 -61 b 468 102 897 -61 646 -34 z m 706 737 b 787 829 755 781 787 803 b 736 861 787 843 777 861 b 92 314 469 861 92 645 b 576 -27 92 87 258 -27 b 1377 625 1013 -27 1377 220 b 864 1069 1377 874 1230 1069 b 275 859 582 1069 275 913 b 300 839 275 843 287 839 b 734 935 325 839 532 935 b 965 659 901 935 965 858 b 618 92 965 366 775 92 b 503 267 536 92 503 159 b 706 737 503 479 611 661 z "},"j":{"ha":695,"x_min":0,"x_max":0,"o":"m 388 -123 b 430 15 404 -75 418 -30 b 806 136 595 42 751 98 b 827 165 818 144 827 153 b 796 193 827 184 813 193 b 777 191 791 193 783 192 b 458 119 739 181 657 132 b 616 630 498 273 535 431 b 627 674 621 644 627 656 b 587 707 627 695 610 707 b 258 700 515 707 326 700 b 207 663 216 700 212 685 b 63 131 179 534 112 282 b -130 -231 -1 -68 -53 -231 b -176 -229 -144 -231 -161 -229 b -211 -258 -193 -229 -211 -237 b -159 -312 -211 -281 -189 -300 b 46 -346 -107 -334 -40 -346 b 388 -123 243 -346 336 -279 z m 441 776 b 704 956 575 776 704 858 b 528 1087 704 1029 633 1087 b 266 904 397 1087 266 1004 b 441 776 266 831 338 776 z "},"B":{"ha":1388,"x_min":0,"x_max":0,"o":"m 760 739 b 794 816 789 786 794 795 b 712 850 794 846 753 850 b 455 804 633 850 520 836 b 149 251 283 722 236 419 b -9 144 102 161 73 144 b -54 110 -31 144 -54 132 b 286 -14 -54 56 109 -14 b 508 43 387 -14 458 -7 b 873 -27 609 1 746 -27 b 1324 287 1093 -27 1324 52 b 964 531 1324 446 1126 529 b 1402 805 1244 542 1402 662 b 922 1069 1402 960 1261 1069 b 161 827 565 1069 161 911 b 197 805 161 812 176 805 b 724 928 245 805 403 928 b 1031 784 892 928 1031 903 b 691 565 1031 665 918 578 b 760 739 715 642 739 705 z m 937 345 b 600 111 937 178 782 111 b 553 114 585 111 569 112 b 564 144 557 123 560 134 b 672 505 597 247 635 385 b 937 345 814 502 937 444 z "},"P":{"ha":1388,"x_min":0,"x_max":0,"o":"m 774 745 b 808 823 802 793 808 802 b 726 857 808 853 767 857 b 469 811 647 857 534 842 b 149 251 297 729 237 421 b -9 144 102 161 73 144 b -54 110 -31 144 -54 132 b 286 -14 -54 56 109 -14 b 564 144 433 -14 517 1 b 610 290 578 188 594 237 b 768 278 653 281 700 278 b 1430 753 1072 278 1430 420 b 951 1069 1430 911 1329 1069 b 266 909 618 1069 363 962 b 217 858 241 896 217 878 b 248 833 217 843 231 833 b 766 928 308 833 463 928 b 1027 711 926 928 1027 869 b 705 377 1027 509 881 377 b 638 378 683 377 661 377 b 774 745 686 532 737 686 z "},"D":{"ha":1388,"x_min":0,"x_max":0,"o":"m 706 922 b 991 671 900 922 991 840 b 586 106 991 437 895 106 b 540 109 569 106 554 107 l 551 138 b 758 732 618 327 699 642 b 793 816 787 780 793 800 b 712 850 793 846 753 850 b 455 804 633 850 522 836 b 149 251 281 723 236 406 b -8 144 98 161 73 144 b -54 109 -30 144 -54 132 b 301 -14 -54 55 125 -14 b 491 30 395 -14 450 -10 b 773 -27 577 -18 678 -27 b 1378 580 1164 -27 1378 294 b 818 1069 1378 851 1242 1069 b 176 895 587 1069 356 1015 b 136 840 154 880 136 859 b 173 815 136 823 151 815 b 706 922 212 815 454 922 z "},"S":{"ha":1273,"x_min":0,"x_max":0,"o":"m 596 -27 b 1131 250 878 -27 1131 37 b 684 751 1131 475 684 637 b 705 821 684 777 705 800 b 647 852 705 836 689 852 b 242 610 500 852 242 795 b 661 163 242 424 661 264 b 568 102 661 118 606 102 b 170 281 378 102 220 281 b 63 80 136 281 63 118 b 80 53 63 67 69 58 b 596 -27 136 24 376 -27 z m 1203 717 b 1221 710 1208 717 1215 717 b 1362 945 1272 710 1358 890 b 1352 975 1362 958 1360 971 b 850 1069 1206 1056 1009 1069 b 133 841 459 1069 133 910 b 155 815 133 825 144 815 b 206 828 163 815 184 819 b 695 926 325 876 511 926 b 1203 717 897 926 1081 862 z "},"y":{"ha":1273,"x_min":0,"x_max":0,"o":"m 970 -81 b 992 -21 975 -67 983 -47 b 1387 138 1175 18 1328 88 b 1404 170 1399 149 1404 159 b 1379 193 1404 183 1396 193 b 1343 184 1365 193 1356 191 b 1025 71 1299 161 1176 106 b 1227 682 1103 294 1227 659 b 1201 705 1227 692 1210 705 b 852 684 1126 705 1024 684 b 816 659 845 684 821 682 b 682 223 781 523 738 373 b 543 182 644 199 597 182 b 465 243 499 182 465 201 b 593 671 465 331 593 553 b 557 705 593 686 583 705 b 414 695 520 705 469 695 b 256 698 355 695 288 698 b 191 664 212 698 191 684 b 191 638 191 655 191 647 b 68 173 191 529 68 337 b 289 27 68 88 125 27 b 651 100 406 27 548 62 b 625 -1 646 73 636 37 b 0 -213 290 -30 0 -78 b 338 -353 0 -303 119 -353 b 970 -81 636 -353 887 -307 z m 566 -172 b 378 -292 538 -252 454 -292 b 295 -219 342 -292 295 -256 b 600 -78 295 -132 460 -96 b 566 -172 588 -115 575 -149 z "},"g":{"ha":1273,"x_min":0,"x_max":0,"o":"m 19 -231 b 337 -353 19 -321 155 -353 b 996 -81 603 -353 930 -302 l 1015 -21 b 1380 134 1190 28 1310 81 b 1404 170 1398 146 1404 157 b 1377 193 1404 184 1392 193 b 1335 181 1364 193 1350 189 b 1043 71 1231 132 1164 103 b 1225 618 1152 411 1225 570 b 1111 700 1225 669 1175 700 b 842 652 1054 700 926 677 b 595 720 793 690 718 720 b 55 254 293 720 55 525 b 349 8 55 66 199 8 b 689 123 465 8 592 51 b 645 -4 674 79 659 36 b 19 -231 430 -33 19 -113 z m 435 269 b 713 583 435 418 579 583 b 795 502 775 583 795 551 b 755 340 795 453 777 390 b 534 165 683 174 589 165 b 435 269 475 165 435 203 z m 585 -172 b 404 -277 557 -252 480 -277 b 314 -219 353 -277 314 -255 b 617 -81 314 -143 486 -102 z "},"A":{"ha":1275,"x_min":0,"x_max":0,"o":"m 802 -27 b 1187 48 1047 -27 1149 22 b 1215 99 1206 62 1215 79 b 1153 123 1215 128 1185 120 b 1080 194 1097 127 1080 149 b 1199 801 1080 313 1199 604 b 850 1069 1199 995 1076 1069 b 349 915 568 1069 349 951 b 376 895 349 901 359 895 b 635 922 433 895 496 922 b 792 819 728 922 792 897 b 576 123 792 663 576 262 b 802 -27 576 20 659 -27 z m 692 787 b 721 827 713 803 721 817 b 692 844 721 840 710 844 b -23 67 569 844 -23 385 b 115 -5 -23 15 1 -5 b 299 56 227 -5 299 4 b 288 104 299 69 294 85 b 280 168 283 122 280 146 b 335 358 280 225 301 291 b 606 409 441 364 549 380 b 629 440 616 414 629 423 b 581 468 629 467 597 468 b 408 464 517 468 463 464 l 398 464 b 692 787 492 604 619 734 z "},"k":{"ha":1156,"x_min":0,"x_max":0,"o":"m 1258 122 b 1287 166 1282 139 1287 152 b 1259 193 1287 184 1272 193 b 1223 180 1250 193 1238 188 b 1030 110 1179 155 1078 110 b 987 155 997 110 987 126 b 1004 258 987 191 1004 224 b 832 366 1004 331 945 366 b 664 351 774 366 705 357 b 1158 673 869 394 1158 503 b 1122 707 1158 688 1148 707 b 857 700 1081 707 905 700 b 791 666 812 700 791 686 b 792 640 791 657 792 649 b 530 395 792 543 699 439 b 700 975 582 535 700 888 b 665 1006 700 989 687 1006 b 354 1004 590 1006 418 1004 b 288 970 309 1004 288 991 b 289 951 288 964 289 958 b 9 13 289 729 9 74 b 35 -14 9 1 25 -14 b 384 -6 110 -14 212 -6 b 420 19 398 -6 418 0 b 507 331 423 73 441 151 b 614 231 584 324 614 285 b 586 68 614 171 586 121 b 758 -27 586 1 630 -27 b 1258 122 917 -27 1121 26 z "},"E":{"ha":1273,"x_min":0,"x_max":0,"o":"m 1189 161 b 1163 187 1189 178 1179 187 b 1142 184 1157 187 1149 186 b 793 125 1031 153 905 125 b 547 298 689 125 547 167 b 887 485 547 442 772 477 b 966 585 919 487 966 526 b 940 623 966 612 959 623 b 883 619 921 623 901 619 b 640 787 745 619 640 699 b 852 956 640 884 734 956 b 1080 789 956 956 1032 897 b 1150 730 1093 759 1120 730 b 1196 751 1173 730 1184 739 b 1319 956 1235 787 1319 905 b 1293 998 1319 978 1307 989 b 857 1069 1196 1056 1004 1069 b 256 766 559 1069 256 962 b 715 559 256 597 561 567 b 41 242 410 558 41 474 b 589 -27 41 51 280 -27 b 1189 161 845 -27 1189 62 z "},"K":{"ha":1503,"x_min":0,"x_max":0,"o":"m 633 1055 b 260 913 519 1055 355 981 b 205 837 237 896 205 863 b 235 816 205 819 218 816 b 315 832 260 816 291 832 b 351 770 337 832 351 819 b 87 108 351 663 129 285 b 81 46 83 90 81 66 b 180 -12 81 -9 131 -12 b 452 -8 279 -12 305 -8 b 523 37 480 -8 523 7 b 521 82 523 54 521 68 b 801 906 521 255 801 709 b 633 1055 801 1028 751 1055 z m 1047 -27 b 1407 98 1311 -27 1407 43 b 1352 132 1407 125 1384 132 b 1249 244 1297 132 1249 146 b 1257 331 1249 268 1251 296 b 1261 367 1259 344 1261 356 b 994 494 1261 481 1139 494 b 941 493 977 494 959 494 b 1441 842 1187 524 1362 587 b 1487 1015 1467 925 1487 1002 b 1457 1044 1487 1035 1478 1044 b 1180 1028 1385 1044 1233 1028 b 1116 969 1147 1028 1125 1014 b 762 545 1069 755 994 628 b 720 499 741 537 720 522 b 848 381 720 462 848 503 b 796 113 848 325 796 210 b 1047 -27 796 -10 934 -27 z "},"f":{"ha":926,"x_min":0,"x_max":0,"o":"m 400 -265 b 439 16 406 -194 418 -96 b 1037 138 718 23 930 75 b 1058 170 1050 146 1058 156 b 1030 193 1058 186 1046 193 b 1006 189 1025 193 1013 192 b 521 122 909 157 758 122 b 484 124 511 122 498 123 b 922 781 745 243 922 497 b 684 1030 922 949 827 1030 b 317 812 518 1030 409 963 b 96 207 232 671 153 438 b 35 233 74 216 53 224 b 12 237 27 236 19 237 b -17 212 -5 237 -17 230 b 18 167 -17 191 3 176 b 77 130 33 155 54 142 b 11 -267 44 -16 20 -157 b 34 -290 11 -278 21 -290 b 366 -300 147 -290 332 -300 b 400 -265 380 -300 399 -285 z m 590 629 b 736 934 670 877 695 934 b 787 814 768 934 787 909 b 471 179 787 568 654 302 b 590 629 501 323 541 479 z "},"v":{"ha":1156,"x_min":0,"x_max":0,"o":"m 600 643 b 612 675 608 654 612 663 b 589 705 612 700 601 705 b 231 698 576 705 264 699 b 174 659 203 697 189 685 b 73 282 123 570 73 394 b 336 -50 73 37 250 -50 b 1036 360 508 -50 885 151 b 1051 383 1041 368 1046 375 b 1114 379 1072 380 1093 379 b 1377 454 1212 379 1303 397 b 1407 500 1392 465 1407 484 b 1382 526 1407 516 1395 526 b 1348 515 1368 526 1357 520 b 1154 466 1284 479 1220 466 b 1105 469 1137 466 1121 467 b 1172 674 1146 545 1172 616 l 1172 684 b 1147 703 1172 697 1165 703 b 882 695 1116 703 935 695 b 837 650 846 695 842 679 b 535 151 807 467 646 151 b 465 273 496 151 465 209 b 600 643 465 402 522 543 z "},"x":{"ha":1156,"x_min":0,"x_max":0,"o":"m 487 56 b 774 -35 539 -10 637 -35 b 1259 125 961 -35 1122 5 b 1288 168 1277 142 1288 153 b 1263 193 1288 184 1277 193 b 1217 176 1248 193 1235 187 b 989 104 1160 143 1050 104 b 919 138 962 104 938 113 b 794 395 873 195 831 296 b 1034 484 898 473 970 484 b 1133 490 1086 484 1110 485 b 1168 540 1154 494 1168 524 b 1078 726 1168 637 1126 726 b 757 493 1006 726 880 614 b 700 621 737 543 718 588 b 456 720 662 688 597 720 b 66 589 255 720 66 639 b 92 566 66 572 77 566 b 197 578 116 566 138 578 b 281 533 240 578 260 568 b 372 290 315 477 340 385 b 138 212 297 233 227 219 b 5 206 91 209 39 210 b -26 153 -16 204 -26 182 b 77 -28 -26 65 17 -28 b 410 192 163 -28 289 77 b 487 56 431 142 455 95 z "},"w":{"ha":1705,"x_min":0,"x_max":0,"o":"m 836 698 b 791 652 801 698 792 667 b 537 150 768 463 691 150 b 471 288 479 150 471 216 b 608 643 471 427 540 557 b 625 679 617 654 625 665 b 598 705 625 702 609 705 b 239 698 585 705 273 698 b 171 655 204 698 191 688 b 77 300 117 566 77 380 b 332 -51 77 89 184 -51 b 729 138 441 -51 594 26 b 936 -44 774 37 854 -44 b 1569 345 1122 -44 1408 130 l 1600 386 b 1678 379 1624 381 1651 379 b 1942 454 1776 379 1868 397 b 1971 500 1957 465 1971 484 b 1946 526 1971 516 1959 526 b 1912 515 1932 526 1921 520 b 1718 466 1849 479 1784 466 b 1655 472 1697 466 1676 468 b 1711 677 1688 533 1711 600 b 1683 705 1711 700 1701 705 b 1415 698 1652 705 1438 701 b 1369 652 1375 692 1369 667 b 1136 157 1369 415 1280 157 b 1067 273 1085 157 1067 211 b 1205 643 1067 413 1131 539 b 1221 683 1214 655 1221 669 b 1195 705 1221 702 1205 705 b 836 698 1182 705 870 699 z "},"F":{"ha":1273,"x_min":0,"x_max":0,"o":"m 787 691 b 819 767 802 726 819 747 b 713 802 819 798 764 802 b 453 763 635 802 530 800 b 172 251 285 682 254 417 b 18 144 127 161 99 144 b -26 111 -4 144 -24 132 b 317 -14 -26 56 140 -14 b 612 144 464 -14 569 -1 b 685 403 637 230 661 318 b 959 286 820 395 909 286 b 1002 311 977 286 992 297 b 1093 527 1034 359 1093 487 b 996 572 1093 559 1045 572 b 712 494 890 572 775 528 b 787 691 734 566 759 633 z m 1202 713 b 1249 694 1214 703 1229 694 b 1275 699 1257 694 1265 696 b 1419 979 1324 713 1415 924 b 951 1069 1419 1053 1135 1069 b 191 829 527 1069 191 900 b 214 808 191 812 203 808 b 264 823 221 808 242 812 b 677 905 384 876 573 905 b 1202 713 873 905 1075 825 z "},"I":{"ha":926,"x_min":0,"x_max":0,"o":"m 254 243 b 94 123 210 150 182 134 b 49 88 73 121 49 111 b 406 -14 49 35 218 -14 b 684 183 544 -14 639 41 b 902 896 783 492 902 762 b 730 1042 902 976 871 1042 b 151 666 477 1042 151 915 b 316 403 151 542 228 457 b 254 243 290 330 267 271 z m 439 828 b 345 486 439 786 393 629 b 292 655 315 533 292 587 b 402 865 292 812 375 865 b 439 828 426 865 439 849 z "},"T":{"ha":1158,"x_min":0,"x_max":0,"o":"m 535 -27 b 998 71 707 -27 859 -12 b 1038 125 1022 85 1038 101 b 977 159 1038 150 1015 159 b 840 146 934 159 890 146 b 726 298 755 146 726 210 b 823 680 726 422 777 585 b 833 722 829 696 833 710 b 758 775 833 758 805 775 b 497 662 684 775 605 770 b 210 157 372 535 210 315 b 535 -27 210 -3 351 -27 z m 254 1027 b 117 745 171 1005 117 791 b 152 705 117 714 135 705 b 349 787 178 705 239 741 b 810 862 475 839 686 862 b 1144 761 951 862 1100 761 b 1268 1004 1200 761 1268 954 b 1181 1063 1268 1046 1236 1063 b 811 1023 1156 1063 871 1023 b 353 1034 734 1023 475 1034 b 254 1027 307 1034 271 1034 z "},"L":{"ha":1273,"x_min":0,"x_max":0,"o":"m 321 761 b 118 148 245 553 212 277 b 8 34 78 92 8 82 b 75 -12 8 5 31 -12 b 346 -5 157 -12 246 -5 b 924 -14 498 -5 747 -14 b 1175 193 1084 -14 1133 56 b 1225 433 1203 283 1225 378 b 1175 477 1225 460 1199 477 b 1126 458 1156 477 1141 473 b 454 89 942 265 800 107 b 628 319 535 124 589 207 b 925 954 721 587 788 871 b 977 1009 958 974 977 991 b 797 1055 977 1050 898 1055 b 321 761 501 1055 413 1035 z "},"G":{"ha":1388,"x_min":0,"x_max":0,"o":"m 950 975 b 1056 931 994 975 1056 964 b 980 742 1056 887 980 767 b 1120 659 980 678 1069 659 b 1377 840 1311 659 1377 765 b 969 1069 1377 977 1261 1069 b 92 367 589 1069 92 768 b 559 0 92 153 218 0 b 773 24 641 0 715 9 b 749 -18 765 7 757 -7 b 611 -151 703 -87 611 -105 b 781 -194 611 -178 678 -194 b 1126 -71 976 -194 1074 -149 b 1289 386 1174 3 1227 264 b 1306 439 1299 407 1306 423 b 1126 493 1306 477 1250 493 b 753 414 892 493 753 466 b 876 332 753 367 876 383 b 804 97 876 311 842 195 b 788 96 799 96 793 96 b 535 418 610 96 535 233 b 950 975 535 696 753 975 z "},"H":{"ha":1388,"x_min":0,"x_max":0,"o":"m 613 1055 b 240 913 498 1055 330 987 b 184 837 214 892 184 863 b 214 816 184 819 197 816 b 294 832 239 816 271 832 b 330 770 317 832 330 819 b 87 108 330 663 129 285 b 81 46 83 90 81 66 b 180 -12 81 -9 131 -12 b 452 -8 279 -12 373 -8 b 523 37 480 -8 523 7 b 521 82 523 54 521 68 b 619 408 521 155 566 276 b 803 452 692 416 760 431 b 825 484 812 457 825 467 b 778 511 825 510 793 511 b 660 508 731 511 696 509 b 781 906 722 660 781 812 b 613 1055 781 1028 730 1055 z m 1412 980 b 1358 1036 1412 1011 1394 1036 b 1086 1024 1281 1036 1215 1024 b 996 963 1023 1024 996 1013 b 990 871 996 939 996 907 b 762 46 957 665 762 195 b 861 -12 762 -9 812 -12 b 1112 -8 960 -12 1034 -8 b 1183 37 1141 -8 1183 7 b 1181 80 1183 53 1181 66 b 1412 980 1181 364 1412 738 z "},"J":{"ha":926,"x_min":0,"x_max":0,"o":"m 715 1042 b 185 840 527 1042 307 945 b 163 801 172 828 163 815 b 198 773 163 782 176 773 b 256 787 216 773 239 779 b 408 836 315 812 370 836 b 441 795 432 836 441 824 b 274 261 441 715 336 451 b -80 -159 92 182 -80 39 b 143 -346 -80 -288 22 -346 b 656 125 415 -346 550 -197 b 902 924 741 385 902 785 b 715 1042 902 1014 848 1042 z m 88 -249 b 53 -167 67 -249 53 -222 b 243 163 53 -40 151 85 b 88 -249 140 -162 115 -249 z "},"N":{"ha":1504,"x_min":0,"x_max":0,"o":"m 620 1055 b 247 913 505 1055 338 986 b 191 837 219 890 191 863 b 221 816 191 819 204 816 b 301 832 246 816 277 832 b 337 770 323 832 337 819 b 94 108 337 663 136 285 b 87 46 90 90 87 66 b 186 -12 87 -9 138 -12 b 458 -8 286 -12 312 -8 b 530 37 487 -8 530 7 b 528 82 530 54 528 68 b 771 801 528 229 714 578 b 905 843 807 821 852 843 b 1008 778 954 843 1008 830 b 800 124 1008 637 800 328 b 1031 -27 800 20 897 -27 b 1394 93 1240 -27 1394 30 b 1326 133 1394 121 1357 127 b 1229 238 1274 142 1229 173 b 1451 902 1229 374 1451 736 b 1240 1069 1451 1013 1371 1069 b 785 876 1102 1069 968 1017 b 787 906 786 886 787 897 b 620 1055 787 1028 737 1055 z "},"z":{"ha":1156,"x_min":0,"x_max":0,"o":"m 336 720 b 234 695 288 720 258 718 b 115 436 193 656 115 467 b 149 400 115 418 128 400 b 545 540 197 400 315 540 b 612 538 568 540 590 539 b -15 109 147 203 -15 183 b 62 40 -15 76 13 52 b 391 -23 154 17 349 -23 b 507 39 437 -23 499 39 b 846 -20 534 39 644 -20 b 1250 126 1002 -20 1188 81 b 1288 171 1279 147 1288 157 b 1262 193 1288 183 1280 193 b 1195 173 1249 193 1226 186 b 814 109 1077 123 959 109 b 602 117 741 109 669 112 b 1166 610 774 241 1166 511 b 798 715 1166 670 838 715 b 698 617 762 715 715 617 b 336 720 675 617 409 720 z "},"U":{"ha":1508,"x_min":0,"x_max":0,"o":"m 791 130 b 983 -27 791 32 848 -27 b 1392 104 1112 -27 1392 26 b 1239 234 1392 157 1239 115 b 1449 882 1239 345 1341 639 b 1466 954 1459 905 1466 934 b 1367 1033 1466 1003 1414 1033 b 1154 1036 1333 1033 1225 1036 b 1054 960 1095 1036 1054 1016 b 801 216 1054 851 850 451 b 652 182 772 206 714 182 b 560 264 597 182 560 197 b 820 966 560 479 820 920 b 696 1042 820 1017 772 1042 b 226 906 408 1042 226 966 b 272 867 226 888 243 872 b 355 809 321 859 355 844 b 352 790 355 804 354 796 b 146 222 304 661 146 429 b 416 -27 146 27 277 -27 b 791 151 553 -27 708 58 b 791 130 791 143 791 136 z "},"Z":{"ha":1273,"x_min":0,"x_max":0,"o":"m 1151 309 b 561 144 1117 309 886 154 b 1289 852 754 275 1265 684 b 1289 859 1289 859 1289 859 b 987 1049 1289 954 1063 1049 b 888 966 941 1049 912 1016 b -16 102 783 743 -16 238 b 28 52 -16 77 0 65 b 324 -26 97 20 252 -26 b 474 60 366 -26 405 -2 b 901 -27 609 1 800 -27 b 1110 39 1044 -27 1086 0 b 1196 272 1137 82 1196 209 b 1151 309 1196 300 1176 309 z m 776 951 b 505 1023 776 1009 628 1023 b 344 1010 448 1023 391 1019 b 205 769 260 993 205 850 b 243 709 205 736 213 709 b 686 880 316 709 410 817 b 776 951 732 890 776 907 z "},"Y":{"ha":1389,"x_min":0,"x_max":0,"o":"m 578 -201 b 494 -310 559 -227 494 -279 b 561 -346 494 -332 517 -346 b 1143 82 812 -346 1003 -273 b 1411 906 1197 219 1336 730 b 1436 970 1423 937 1436 951 b 1339 1033 1436 1008 1384 1033 b 1156 1035 1305 1033 1227 1035 b 1021 995 1074 1035 1029 1029 b 790 229 956 723 874 452 b 655 205 748 216 697 205 b 540 296 592 205 540 229 b 772 968 540 446 772 873 b 648 1042 772 1018 724 1042 b 199 906 360 1042 199 966 b 245 867 199 888 216 872 b 328 809 294 859 328 844 b 325 790 328 804 327 796 b 142 262 307 732 142 429 b 406 32 142 100 275 32 b 759 151 541 32 674 88 b 578 -201 697 -2 635 -126 z "},"V":{"ha":1392,"x_min":0,"x_max":0,"o":"m 249 787 b 163 467 210 700 163 585 b 486 -34 163 213 317 -34 b 1435 823 767 -34 1259 371 b 1489 1022 1455 873 1489 974 b 1466 1035 1489 1031 1480 1035 b 1165 1027 1434 1035 1190 1027 b 1117 982 1126 1022 1120 996 b 605 143 1027 589 707 143 b 552 302 571 143 552 241 b 768 945 552 511 599 659 b 779 980 775 958 779 969 b 594 1042 779 1031 696 1042 b 104 899 335 1042 104 954 b 150 860 104 880 121 865 b 253 808 199 852 253 843 b 249 787 253 802 252 793 z "},"W":{"ha":1966,"x_min":0,"x_max":0,"o":"m 459 -34 b 874 156 574 -34 726 39 b 1050 -34 904 43 958 -34 b 1995 804 1330 -34 1809 342 b 2054 1021 2018 859 2054 972 b 2031 1035 2054 1031 2046 1035 b 1758 1027 2000 1035 1782 1027 b 1710 982 1733 1027 1718 1010 b 1171 143 1557 461 1273 143 b 1122 269 1125 143 1122 213 b 1407 1006 1122 438 1344 711 b 1384 1021 1407 1017 1400 1021 b 1097 1014 1353 1021 1122 1014 b 1049 968 1058 1008 1052 983 b 578 143 960 555 680 143 b 525 302 544 143 525 241 b 741 945 525 511 569 660 b 751 979 748 958 751 968 b 567 1042 751 1031 669 1042 b 77 898 308 1042 77 953 b 123 859 77 880 94 864 b 226 808 172 851 226 842 b 222 786 226 801 224 793 b 136 467 183 699 136 585 b 459 -34 136 213 290 -34 z "},"X":{"ha":1276,"x_min":0,"x_max":0,"o":"m 1258 80 b 1171 134 1258 127 1220 124 b 1065 205 1114 145 1084 169 b 801 841 1002 321 867 636 b 549 1069 751 997 684 1069 b 103 889 296 1069 103 956 b 144 859 103 871 119 859 b 221 865 172 859 195 865 b 335 795 283 865 313 852 b 456 489 364 721 406 618 b 27 247 322 381 201 320 b -12 178 -3 234 -12 201 b 89 -18 -12 133 37 -18 b 494 387 172 -18 340 184 b 564 193 516 327 540 262 b 931 -27 631 -3 772 -27 b 1173 9 1034 -27 1103 -16 b 1258 80 1225 28 1258 52 z m 1274 1061 b 913 724 1171 1061 998 875 b 898 682 904 708 898 695 b 934 643 898 659 911 643 b 970 652 945 643 958 646 b 1328 762 1104 715 1194 739 b 1371 824 1359 768 1371 793 b 1274 1061 1371 972 1335 1061 z "},"M":{"ha":2084,"x_min":0,"x_max":0,"o":"m 1414 901 b 1217 1069 1414 1007 1348 1069 b 764 871 1079 1069 931 1006 b 767 906 766 884 767 895 b 620 1055 767 1007 737 1055 b 247 913 505 1055 335 989 b 191 837 217 887 191 863 b 221 816 191 819 204 816 b 301 832 246 816 277 832 b 337 770 323 832 337 819 b 94 108 337 661 136 287 b 87 46 90 90 87 66 b 186 -12 87 -9 138 -12 b 438 -8 286 -12 292 -8 b 509 37 467 -8 509 7 b 507 82 509 54 507 68 b 749 792 507 228 690 569 b 924 850 796 819 859 850 b 1002 789 970 850 1002 832 b 748 108 1002 699 813 380 b 739 42 743 88 739 62 b 835 -12 739 -9 787 -12 b 1110 -8 935 -12 964 -8 b 1152 44 1134 -8 1150 15 b 1399 801 1164 269 1345 591 b 1556 850 1448 826 1505 850 b 1624 786 1605 850 1624 821 b 1408 124 1624 649 1408 323 b 1611 -27 1408 20 1477 -27 b 1974 93 1820 -27 1974 30 b 1906 133 1974 121 1941 127 b 1809 238 1854 142 1809 173 b 2031 894 1809 370 2031 663 b 1815 1069 2031 1002 1949 1069 b 1414 895 1691 1069 1561 1009 z "},"&":{"ha":1476,"x_min":0,"x_max":0,"o":"m 1109 900 b 793 1116 1109 1059 964 1116 b 380 781 574 1116 380 1008 b 432 559 380 711 400 635 b 38 193 144 469 38 342 b 353 -27 38 41 186 -27 b 759 81 490 -27 646 16 b 865 -18 798 40 835 6 b 948 -51 888 -37 915 -51 b 1314 57 1032 -51 1209 16 b 1359 104 1342 68 1359 81 b 1333 153 1359 119 1355 136 b 868 631 1202 254 979 436 b 1109 900 1005 689 1109 768 z m 1512 652 b 1338 762 1512 732 1397 762 b 1291 731 1316 762 1297 753 b 1167 449 1258 616 1232 549 b 1149 404 1158 435 1149 420 b 1182 378 1149 384 1165 378 b 1217 387 1193 378 1204 380 b 1512 652 1356 452 1512 556 z m 686 161 b 543 140 639 148 589 140 b 376 265 450 140 376 168 b 479 460 376 345 416 407 b 686 161 537 353 612 249 z m 802 849 b 886 1023 802 960 837 1023 b 947 931 918 1023 947 1004 b 823 730 947 850 900 786 b 802 849 809 770 802 810 z "},"?":{"ha":1040,"x_min":0,"x_max":0,"o":"m 267 820 b 645 922 358 875 455 922 b 734 871 702 922 734 901 b 370 454 734 782 370 576 b 488 353 370 404 461 353 b 512 362 498 353 507 356 b 1117 917 663 549 1117 635 b 653 1180 1117 1109 895 1180 b 332 1132 524 1180 380 1158 b 191 837 290 1109 191 904 b 224 811 191 817 206 811 b 267 820 240 811 258 814 z m 365 -38 b 642 153 506 -38 642 49 b 456 291 642 230 567 291 b 179 98 317 291 179 203 b 365 -38 179 20 256 -38 z "},"!":{"ha":812,"x_min":0,"x_max":0,"o":"m 513 378 b 578 422 544 378 568 392 b 892 1112 650 644 777 796 b 896 1135 894 1118 896 1127 b 840 1174 896 1160 877 1174 b 485 1152 779 1174 559 1160 b 436 1099 453 1149 441 1133 b 284 415 406 920 284 545 b 330 379 284 392 302 380 b 513 378 380 378 458 378 z m 319 -38 b 596 153 460 -38 596 49 b 410 291 596 230 521 291 b 133 98 271 291 133 203 b 319 -38 133 20 210 -38 z "},":":{"ha":812,"x_min":0,"x_max":0,"o":"m 319 -38 b 596 153 460 -38 596 49 b 410 291 596 230 521 291 b 133 98 271 291 133 203 b 319 -38 133 20 210 -38 z m 449 437 b 726 627 590 437 726 524 b 541 766 726 705 651 766 b 263 572 401 766 263 678 b 449 437 263 495 340 437 z "},"(":{"ha":809,"x_min":0,"x_max":0,"o":"m 909 1074 b 1006 1166 937 1094 1006 1137 b 975 1185 1006 1179 994 1185 b 864 1146 946 1185 916 1172 b 250 295 560 996 250 762 b 550 -193 250 65 355 -92 b 621 -219 578 -207 609 -219 b 646 -198 642 -219 646 -206 b 569 -87 646 -179 600 -142 b 471 284 500 37 471 162 b 909 1074 471 623 696 927 z "},")":{"ha":809,"x_min":0,"x_max":0,"o":"m 8 -121 b -88 -213 -20 -141 -88 -184 b -58 -233 -88 -226 -77 -233 b 54 -193 -28 -233 1 -219 b 668 658 357 -43 668 191 b 368 1145 668 888 562 1045 b 297 1172 340 1160 309 1172 b 272 1151 275 1172 272 1159 b 349 1040 272 1132 318 1095 b 446 669 418 916 446 791 b 8 -121 446 330 222 26 z "},",":{"ha":812,"x_min":0,"x_max":0,"o":"m 376 -22 b 255 -188 357 -87 305 -154 b 214 -233 222 -210 214 -220 b 258 -265 214 -251 224 -265 b 610 126 427 -265 610 -45 b 416 291 610 229 527 291 b 146 100 258 291 146 199 b 334 -25 146 31 199 -25 b 376 -22 349 -25 363 -24 z "},";":{"ha":812,"x_min":0,"x_max":0,"o":"m 372 -22 b 252 -188 354 -87 302 -154 b 210 -233 219 -210 210 -220 b 255 -265 210 -251 220 -265 b 606 126 423 -265 606 -45 b 412 291 606 229 524 291 b 143 100 254 291 143 199 b 330 -25 143 31 195 -25 b 372 -22 345 -25 359 -24 z m 435 437 b 713 627 576 437 713 524 b 527 766 713 705 637 766 b 250 572 388 766 250 678 b 435 437 250 495 326 437 z "},"@":{"ha":2008,"x_min":0,"x_max":0,"o":"m 1432 150 b 1596 671 1432 254 1596 553 b 1561 705 1596 686 1587 705 b 1251 720 1476 705 1316 720 b 1185 686 1206 720 1185 706 b 1185 661 1185 677 1185 669 b 1185 644 1185 655 1185 649 b 939 720 1137 686 1053 720 b 399 235 591 720 399 463 b 712 -27 399 44 557 -27 b 1004 79 869 -27 965 39 b 1295 -27 1042 -7 1150 -27 b 1916 475 1657 -27 1916 114 b 1111 986 1916 779 1592 986 b 110 255 472 986 110 662 b 920 -292 110 -146 458 -292 b 1833 -96 1243 -292 1581 -226 l 1810 -39 b 928 -204 1570 -146 1240 -204 b 208 261 531 -204 208 -86 b 1086 888 208 604 517 888 b 1816 467 1571 888 1816 728 b 1510 91 1816 233 1689 91 b 1432 150 1451 91 1432 111 z m 793 256 b 1062 583 793 405 928 583 b 1143 502 1124 583 1143 551 b 1104 340 1143 453 1126 390 b 891 145 1031 174 947 145 b 793 256 833 145 793 190 z "},"•":{"ha":926,"x_min":0,"x_max":0,"o":"m 453 326 b 799 564 629 326 799 435 b 567 736 799 661 705 736 b 221 496 393 736 221 627 b 453 326 221 399 317 326 z "},"·":{"ha":812,"x_min":0,"x_max":0,"o":"m 403 333 b 680 524 544 333 680 420 b 494 662 680 601 605 662 b 217 469 355 662 217 574 b 403 333 217 391 294 333 z "},"¡":{"ha":812,"x_min":0,"x_max":0,"o":"m 361 450 b 544 448 415 450 494 450 b 589 412 572 448 589 435 b 437 -272 589 283 468 -93 b 389 -325 432 -305 420 -321 b 34 -347 315 -333 94 -347 b -22 -308 -3 -347 -22 -332 b -18 -284 -22 -300 -20 -290 b 296 406 97 31 224 183 b 361 450 305 435 330 450 z m 555 865 b 277 675 414 865 277 779 b 463 536 277 597 353 536 b 741 730 602 536 741 624 b 555 865 741 807 664 865 z "},"¿":{"ha":1040,"x_min":0,"x_max":0,"o":"m 814 14 b 857 22 823 19 841 22 b 890 -3 875 22 890 16 b 749 -298 890 -71 791 -275 b 428 -347 701 -325 557 -347 b -36 -83 186 -347 -36 -276 b 569 471 -36 198 418 285 b 593 481 574 477 583 481 b 711 379 620 481 711 429 b 347 -38 711 257 347 52 b 436 -88 347 -67 379 -88 b 814 14 626 -88 723 -41 z m 716 871 b 439 681 575 871 439 785 b 625 543 439 604 514 543 b 902 736 764 543 902 630 b 716 871 902 813 825 871 z "},"©":{"ha":1485,"x_min":0,"x_max":0,"o":"m 929 857 b 983 823 958 857 983 852 b 899 586 983 783 899 611 b 981 534 899 546 951 534 b 1145 726 1092 534 1145 631 b 923 922 1145 846 1069 922 b 433 451 708 922 433 701 b 743 196 433 296 557 196 b 1062 324 886 196 1062 267 b 1040 338 1062 335 1053 338 b 845 302 1004 338 954 302 b 692 470 736 302 692 376 b 929 857 692 637 835 857 z m 180 543 b 810 -88 180 195 463 -88 b 1441 543 1158 -88 1441 195 b 810 1173 1441 890 1158 1173 b 180 543 463 1173 180 890 z m 258 543 b 808 1095 258 848 505 1095 b 1360 543 1113 1095 1360 848 b 808 -7 1360 239 1113 -7 b 258 543 505 -7 258 239 z "},"®":{"ha":1485,"x_min":0,"x_max":0,"o":"m 180 543 b 810 -88 180 195 463 -88 b 1441 543 1158 -88 1441 195 b 810 1173 1441 890 1158 1173 b 180 543 463 1173 180 890 z m 258 543 b 808 1095 258 848 505 1095 b 1360 543 1113 1095 1360 848 b 808 -7 1360 239 1113 -7 b 258 543 505 -7 258 239 z m 795 722 b 812 769 810 754 812 760 b 768 791 812 789 789 791 b 629 763 726 791 663 783 b 480 382 539 711 525 493 b 399 316 458 326 441 316 b 375 295 387 316 375 308 b 557 215 375 261 463 215 b 695 316 635 215 673 227 b 742 526 709 374 726 452 l 760 526 b 854 456 823 526 854 486 b 830 306 854 416 830 359 b 958 212 830 248 871 212 b 1161 283 1066 212 1161 245 b 1086 345 1161 327 1086 286 b 1093 449 1086 381 1093 415 b 926 564 1093 519 1019 564 b 1183 760 1069 591 1183 642 b 921 931 1183 894 1024 931 b 516 822 727 931 604 888 b 496 788 504 813 496 800 b 515 774 496 779 503 774 b 793 840 536 774 628 840 b 959 734 860 840 959 829 b 751 566 959 637 873 582 b 795 722 767 635 782 695 z "},"˙":{"ha":833,"x_min":0,"x_max":0,"o":"m 377 830 b 618 996 500 830 618 906 b 457 1117 618 1064 553 1117 b 215 948 336 1117 215 1041 b 377 830 215 881 282 830 z "},"ṡ":{"ha":1040,"x_min":0,"x_max":0,"o":""},"ṗ":{"ha":1273,"x_min":0,"x_max":0,"o":"m 692 -26 b 1379 132 954 -26 1218 20 b 1404 168 1392 141 1404 155 b 1381 193 1404 184 1396 193 b 1326 172 1364 193 1350 185 b 1004 94 1280 146 1192 108 b 1185 460 1114 184 1185 314 b 912 720 1185 638 1076 720 b 579 578 789 720 671 683 b 589 671 579 608 589 644 b 553 705 589 686 579 705 b 245 698 475 705 319 698 b 179 649 186 698 179 677 b 182 593 179 633 182 607 b -72 -304 182 407 -72 -115 b -37 -336 -72 -319 -60 -336 b 279 -328 49 -336 214 -328 b 345 -294 323 -328 345 -315 b 344 -275 345 -288 344 -281 b 391 56 344 -204 353 -59 b 654 -27 456 1 562 -27 b 692 -26 667 -27 680 -26 z m 810 437 b 541 109 810 288 675 109 b 460 191 479 109 460 142 b 499 352 460 239 477 302 b 712 547 572 518 656 547 b 810 437 770 547 810 503 z m 923 830 b 1164 996 1046 830 1164 906 b 1003 1117 1164 1064 1099 1117 b 761 948 882 1117 761 1041 b 923 830 761 881 828 830 z "},"ṁ":{"ha":1735,"x_min":0,"x_max":0,"o":""},"ḋ":{"ha":1273,"x_min":0,"x_max":0,"o":"m 355 -27 b 646 79 512 -27 608 39 b 860 -27 675 -5 754 -27 b 1376 125 1058 -27 1285 58 b 1404 165 1394 138 1404 148 b 1374 193 1404 184 1391 193 b 1351 186 1366 193 1356 189 b 1115 108 1277 149 1164 108 b 1074 163 1083 108 1074 128 b 1297 960 1074 233 1297 798 b 1262 992 1297 975 1285 992 b 958 1006 1177 992 1023 1006 b 892 972 913 1006 892 993 b 893 953 892 966 893 960 b 855 637 893 886 870 732 b 581 720 803 677 723 720 b 55 235 234 720 55 463 b 355 -27 55 44 199 -27 z m 435 256 b 714 587 435 405 576 587 b 795 506 776 587 795 555 b 747 340 795 457 772 390 b 534 145 674 174 589 145 b 435 256 475 145 435 190 z m 515 830 b 756 996 637 830 756 906 b 595 1117 756 1064 691 1117 b 353 948 473 1117 353 1041 b 515 830 353 881 420 830 z "},"ḃ":{"ha":1974,"x_min":0,"x_max":0,"o":""},"ḟ":{"ha":926,"x_min":0,"x_max":0,"o":"m 400 -265 b 439 16 406 -194 418 -96 b 1037 138 718 23 930 75 b 1058 170 1050 146 1058 156 b 1030 193 1058 186 1046 193 b 1006 189 1025 193 1013 192 b 521 122 909 157 758 122 b 484 124 511 122 498 123 b 922 781 745 243 922 497 b 684 1030 922 949 827 1030 b 317 812 518 1030 409 963 b 96 207 232 671 153 438 b 35 233 74 216 53 224 b 12 237 27 236 19 237 b -17 212 -5 237 -17 230 b 18 167 -17 191 3 176 b 77 130 33 155 54 142 b 11 -267 44 -16 20 -157 b 34 -290 11 -278 21 -290 b 366 -300 147 -290 332 -300 b 400 -265 380 -300 399 -285 z m 590 629 b 736 934 670 877 695 934 b 787 814 768 934 787 909 b 471 179 787 568 654 302 b 590 629 501 323 541 479 z m 467 1080 b 708 1246 589 1080 708 1156 b 547 1367 708 1314 643 1367 b 304 1198 425 1367 304 1291 b 467 1080 304 1131 372 1080 z "},"ṫ":{"ha":812,"x_min":0,"x_max":0,"o":""},"´":{"ha":833,"x_min":0,"x_max":0,"o":"m 504 1161 b 149 827 313 1058 149 874 b 176 802 149 810 159 802 b 222 814 189 802 203 806 b 609 974 362 882 444 914 b 685 1051 664 994 685 1023 b 538 1168 685 1109 601 1168 b 504 1161 526 1168 514 1166 z "},"æ":{"ha":1732,"x_min":0,"x_max":0,"o":"m 1826 130 b 1860 170 1855 147 1860 157 b 1836 193 1860 189 1847 193 b 1808 187 1826 193 1818 191 b 1350 92 1657 139 1489 92 b 1124 229 1253 92 1136 119 b 1699 519 1449 252 1699 323 b 1370 720 1699 637 1603 720 b 1177 699 1302 720 1238 712 b 907 740 1093 700 970 740 b 841 706 862 740 841 726 b 842 681 841 698 842 690 b 534 145 842 398 688 145 b 435 256 475 145 435 190 b 672 593 435 405 549 541 b 763 659 749 626 763 635 b 644 699 763 684 739 699 b 55 245 290 699 55 488 b 388 -27 55 19 218 -27 b 777 176 592 -27 695 75 b 1183 -27 804 46 911 -27 b 1826 130 1529 -27 1770 97 z m 1124 303 b 1320 620 1137 452 1211 620 b 1379 565 1355 620 1379 599 b 1124 303 1379 434 1276 345 z "},"˚":{"ha":833,"x_min":0,"x_max":0,"o":"m 300 944 b 446 1042 300 1017 376 1042 b 531 973 496 1042 531 1016 b 398 866 531 901 467 866 b 300 944 345 866 300 892 z m 464 1137 b 132 928 257 1137 132 1047 b 370 781 132 831 221 781 b 701 985 572 781 701 873 b 464 1137 701 1079 621 1137 z "},"`":{"ha":833,"x_min":0,"x_max":0,"o":"m 329 1164 b 304 1168 321 1168 313 1168 b 170 1036 247 1168 170 1097 b 258 947 170 1000 194 969 b 590 819 384 905 448 880 b 636 802 614 808 627 802 b 663 831 648 802 663 812 b 329 1164 663 878 501 1067 z "},"¨":{"ha":833,"x_min":0,"x_max":0,"o":"m 135 825 b 363 981 250 825 363 895 b 210 1095 363 1045 301 1095 b -18 936 96 1095 -18 1023 b 135 825 -18 872 45 825 z m 623 825 b 852 981 739 825 852 895 b 699 1095 852 1045 789 1095 b 470 936 584 1095 470 1023 b 623 825 470 872 534 825 z "},"_":{"ha":763,"x_min":0,"x_max":0,"o":"m -212 -124 b -256 -176 -241 -124 -256 -150 b -212 -227 -256 -201 -241 -227 l 732 -227 b 776 -176 761 -227 776 -201 b 732 -124 776 -150 761 -124 z "},"ð":{"ha":1273,"x_min":0,"x_max":0,"o":"m 464 897 b 435 847 446 886 435 871 b 484 804 435 818 456 804 b 504 807 490 804 499 804 l 688 895 b 768 707 732 839 756 774 b 636 713 731 712 692 713 b 58 299 319 713 58 556 b 538 -27 58 37 331 -27 b 641 -22 573 -27 608 -25 b 1374 133 930 -7 1277 66 b 1398 170 1390 144 1398 155 b 1371 193 1398 186 1385 193 b 1333 184 1360 193 1347 190 b 996 113 1274 163 1142 134 b 1201 561 1122 212 1201 362 b 936 1022 1201 764 1102 926 l 1034 1063 b 1057 1101 1050 1069 1057 1084 b 1001 1177 1057 1135 1029 1177 b 989 1175 997 1177 993 1177 l 794 1082 b 543 1117 718 1105 633 1117 b 411 1109 498 1117 448 1115 b 352 1070 385 1106 352 1099 b 389 1040 352 1054 362 1044 b 602 971 479 1029 548 1005 z m 781 543 b 559 97 781 338 691 97 b 441 246 472 97 441 158 b 744 605 441 415 557 605 b 780 602 756 605 768 604 b 781 543 781 583 781 562 z "},"¯":{"ha":833,"x_min":0,"x_max":0,"o":"m 180 1021 b 115 932 149 1021 115 987 b 146 884 115 898 130 884 b 398 898 224 884 300 898 b 654 884 502 898 571 884 b 718 975 686 884 718 918 b 694 1021 718 1004 710 1021 b 441 1007 621 1021 537 1007 b 180 1021 355 1007 249 1021 z "},"ˆ":{"ha":833,"x_min":0,"x_max":0,"o":"m 565 1132 b 481 1171 545 1156 519 1171 b 377 1143 431 1171 412 1166 b 75 848 217 1034 75 891 b 107 817 75 827 90 817 b 169 838 125 817 146 825 b 446 977 297 907 345 931 b 663 838 530 926 564 905 b 724 812 692 818 709 812 b 759 841 742 812 759 820 b 758 851 759 844 759 847 b 565 1132 752 892 673 1004 z "},"þ":{"ha":1273,"x_min":0,"x_max":0,"o":"m 692 -26 b 1379 132 954 -26 1218 20 b 1404 168 1392 141 1404 155 b 1381 193 1404 184 1396 193 b 1326 172 1364 193 1350 185 b 1004 94 1280 146 1192 108 b 1185 460 1114 184 1185 314 b 912 720 1185 638 1076 720 b 578 577 789 720 671 683 b 703 972 641 747 703 915 b 667 1006 703 987 693 1006 b 531 1004 630 1006 586 1004 l 354 1004 b 288 970 309 1004 288 991 b 293 902 288 946 293 924 b 138 374 293 797 230 624 b -72 -304 -2 -9 -72 -222 b -37 -336 -72 -319 -60 -336 b 279 -328 49 -336 214 -328 b 345 -294 323 -328 345 -315 b 344 -275 345 -288 344 -281 b 388 47 344 -205 353 -66 b 397 50 391 47 394 49 b 654 -27 464 0 564 -27 b 692 -26 667 -27 680 -26 z m 810 437 b 541 109 810 288 675 109 b 460 191 479 109 460 142 b 499 352 460 239 477 302 b 712 547 572 518 656 547 b 810 437 770 547 810 503 z "},"Þ":{"ha":1388,"x_min":0,"x_max":0,"o":"m 613 1055 b 240 913 498 1055 330 987 b 184 837 214 892 184 863 b 214 816 184 819 197 816 b 294 832 239 816 271 832 b 330 770 317 832 330 819 b 87 108 330 663 129 285 b 81 46 83 90 81 66 b 180 -12 81 -9 131 -12 b 452 -8 279 -12 373 -8 b 523 37 480 -8 523 7 b 521 82 523 54 521 68 b 536 173 521 107 526 138 b 752 153 608 159 680 153 b 1355 526 1107 153 1355 235 b 1061 807 1355 699 1215 807 b 887 775 987 807 941 799 b 806 711 842 755 806 728 b 883 681 806 694 831 685 b 1007 536 974 674 1007 617 b 644 252 1007 328 823 252 b 562 256 617 252 589 253 b 781 906 634 466 781 758 b 613 1055 781 1028 730 1055 z "},"-":{"ha":1003,"x_min":0,"x_max":0,"o":"m 165 362 b 200 322 165 332 183 322 b 440 329 238 322 361 329 b 724 323 535 329 654 323 b 809 326 760 323 777 323 b 878 437 876 333 878 391 b 843 477 878 467 860 477 b 603 470 805 477 682 470 b 319 476 508 470 389 476 b 234 473 283 476 267 476 b 165 362 168 466 165 408 z "},"=":{"ha":1003,"x_min":0,"x_max":0,"o":"m 146 227 b 181 186 146 196 164 186 b 421 193 219 186 342 193 b 705 187 516 193 635 187 b 790 191 741 187 758 187 b 859 301 857 197 859 255 b 824 341 859 332 841 341 b 584 334 786 341 663 334 b 300 340 489 334 370 340 b 215 337 264 340 248 340 b 146 227 149 330 146 273 z m 217 538 b 252 498 217 508 235 498 b 492 505 290 498 413 505 b 775 499 587 505 706 499 b 861 503 812 499 828 499 b 929 613 927 509 929 567 b 895 653 929 644 911 653 b 654 646 857 653 733 646 b 371 652 559 646 440 652 b 286 649 334 652 318 652 b 217 538 219 642 217 585 z "},"Œ":{"ha":2011,"x_min":0,"x_max":0,"o":"m 1933 161 b 1907 187 1933 178 1923 187 b 1886 184 1901 187 1893 186 b 1537 125 1775 153 1649 125 b 1304 295 1444 125 1304 164 b 1631 485 1304 439 1441 485 b 1710 585 1663 485 1710 526 b 1684 623 1710 612 1703 623 b 1627 619 1665 623 1645 619 b 1390 753 1503 619 1390 665 b 1596 956 1390 850 1445 956 b 1824 789 1700 956 1763 890 b 1894 730 1841 762 1864 730 b 1940 751 1917 730 1928 739 b 2063 956 1979 787 2063 905 b 2037 998 2063 978 2051 989 b 1600 1069 1940 1056 1748 1069 b 1088 766 1297 1069 1088 868 b 873 242 1088 393 873 288 b 1408 -27 873 119 1118 -27 b 1933 161 1645 -27 1933 68 z m 699 737 b 781 829 748 781 781 803 b 730 861 781 843 770 861 b 85 314 463 861 85 645 b 569 -27 85 87 251 -27 b 1371 625 1006 -27 1371 220 b 857 1069 1371 874 1223 1069 b 268 859 575 1069 268 913 b 293 839 268 843 280 839 b 728 935 318 839 525 935 b 958 659 894 935 958 858 b 611 92 958 366 768 92 b 496 267 529 92 496 159 b 699 737 496 479 604 661 z "},"ŋ":{"ha":1275,"x_min":0,"x_max":0,"o":"m 1376 125 b 1407 170 1400 142 1407 157 b 1381 193 1407 186 1395 193 b 1348 184 1369 193 1356 189 b 1050 111 1291 153 1097 111 b 1181 582 1097 272 1181 454 b 1002 720 1181 680 1078 720 b 610 620 873 720 701 659 b 617 671 614 642 617 660 b 582 705 617 686 608 705 b 260 698 503 705 334 698 b 195 664 216 698 195 684 b 195 638 195 655 195 647 b 10 13 195 436 10 68 b 36 -14 10 1 26 -14 b 385 -6 111 -14 213 -6 b 421 19 391 -6 414 -3 b 588 535 460 142 543 380 b 685 546 618 541 654 546 b 779 486 736 546 779 532 b 663 67 779 401 709 191 b 467 -231 598 -106 537 -231 b 421 -229 453 -231 436 -229 b 386 -258 404 -229 386 -237 b 643 -346 386 -313 509 -346 b 1017 -8 886 -346 943 -275 b 1376 125 1183 27 1345 102 z "},"a":{"ha":1273,"x_min":0,"x_max":0,"o":"m 435 256 b 705 583 435 405 570 583 b 786 502 766 583 786 551 b 747 340 786 453 768 390 b 534 145 674 174 589 145 b 435 256 475 145 435 190 z m 1381 133 b 1404 170 1393 144 1404 155 b 1378 193 1404 187 1393 193 b 1349 186 1368 193 1359 191 b 1112 106 1305 162 1166 106 b 1068 150 1083 106 1068 115 b 1156 420 1068 205 1114 313 b 1232 671 1195 518 1232 615 b 1197 705 1232 686 1223 705 b 1055 711 1159 705 1107 708 b 886 720 989 715 923 720 b 821 686 842 720 821 706 b 821 656 821 675 821 665 b 821 644 821 652 821 648 b 581 720 772 686 696 720 b 55 235 234 720 55 463 b 355 -27 55 44 199 -27 b 640 79 512 -27 601 39 b 840 -27 668 -9 762 -27 b 1381 133 1124 -27 1334 91 z "}," ":{"ha":524,"x_min":0,"x_max":0,"o":""},"\u0001":{"ha":0,"x_min":0,"x_max":0,"o":""},"\u0002":{"ha":0,"x_min":0,"x_max":0,"o":""},"\u0003":{"ha":0,"x_min":0,"x_max":0,"o":""},"\u0004":{"ha":0,"x_min":0,"x_max":0,"o":""},"\u0005":{"ha":0,"x_min":0,"x_max":0,"o":""},"\u0006":{"ha":0,"x_min":0,"x_max":0,"o":""},"\u0007":{"ha":0,"x_min":0,"x_max":0,"o":""},"\b":{"ha":0,"x_min":0,"x_max":0,"o":""},"\t":{"ha":0,"x_min":0,"x_max":0,"o":""},"\u0010":{"ha":0,"x_min":0,"x_max":0,"o":""},"\u0011":{"ha":0,"x_min":0,"x_max":0,"o":""},"\u0012":{"ha":0,"x_min":0,"x_max":0,"o":""},"\u0013":{"ha":0,"x_min":0,"x_max":0,"o":""},"\u0014":{"ha":0,"x_min":0,"x_max":0,"o":""},"\u0015":{"ha":0,"x_min":0,"x_max":0,"o":""},"\u0016":{"ha":0,"x_min":0,"x_max":0,"o":""},"\u0017":{"ha":0,"x_min":0,"x_max":0,"o":""},"\u0018":{"ha":0,"x_min":0,"x_max":0,"o":""},"\u0019":{"ha":0,"x_min":0,"x_max":0,"o":""},"˛":{"ha":833,"x_min":0,"x_max":0,"o":"m 596 65 b 186 -254 404 8 186 -132 b 367 -368 186 -320 248 -368 b 647 -280 526 -368 647 -326 b 618 -254 647 -262 633 -254 b 548 -260 603 -254 583 -260 b 445 -181 488 -260 445 -237 b 596 14 445 -102 531 -18 z "},"˝":{"ha":833,"x_min":0,"x_max":0,"o":"m 304 1166 b -7 821 116 1062 -7 868 b 16 795 -7 804 6 795 b 66 808 24 795 46 797 b 376 1013 203 880 262 943 b 454 1108 432 1048 454 1081 b 354 1179 454 1150 403 1179 b 304 1166 336 1179 319 1175 z m 675 1153 b 351 821 488 1048 351 868 b 374 795 351 804 363 795 b 424 808 382 795 404 797 b 768 1000 560 880 647 940 b 841 1080 821 1026 841 1055 b 721 1163 841 1126 777 1163 b 675 1153 704 1163 688 1160 z "},"ˇ":{"ha":833,"x_min":0,"x_max":0,"o":"m 269 852 b 353 812 288 828 314 812 b 456 841 402 812 422 817 b 759 1136 616 950 759 1093 b 726 1166 759 1156 743 1166 b 665 1146 709 1166 687 1158 b 387 1007 536 1077 489 1053 b 171 1146 303 1058 269 1079 b 109 1171 142 1166 125 1171 b 75 1143 92 1171 75 1164 b 75 1133 75 1140 75 1137 b 269 852 81 1092 161 980 z "},"œ":{"ha":1665,"x_min":0,"x_max":0,"o":"m 1759 130 b 1792 170 1788 147 1792 157 b 1769 193 1792 189 1780 193 b 1741 187 1759 193 1751 191 b 1283 92 1590 139 1421 92 b 1057 229 1185 92 1069 119 b 1632 519 1382 252 1632 323 b 1303 720 1632 637 1536 720 b 966 648 1176 720 1061 694 b 663 720 890 703 779 720 b 43 278 342 720 43 557 b 498 -27 43 65 230 -27 b 807 33 621 -27 724 -5 b 1116 -27 871 -6 970 -27 b 1759 130 1462 -27 1703 97 z m 416 218 b 655 605 416 410 532 605 b 724 503 714 605 724 549 b 508 93 724 316 629 93 b 416 218 432 93 416 156 z m 1057 303 b 1253 620 1069 452 1143 620 b 1312 565 1288 620 1312 599 b 1057 303 1312 434 1208 345 z "},"…":{"ha":2236,"x_min":0,"x_max":0,"o":"m 332 -38 b 610 153 473 -38 610 49 b 424 291 610 230 534 291 b 146 98 285 291 146 203 b 332 -38 146 20 223 -38 z m 1078 -38 b 1355 153 1219 -38 1355 49 b 1169 291 1355 230 1280 291 b 892 98 1030 291 892 203 b 1078 -38 892 20 968 -38 z m 1823 -38 b 2100 153 1964 -38 2100 49 b 1914 291 2100 230 2025 291 b 1637 98 1775 291 1637 203 b 1823 -38 1637 20 1714 -38 z "},"ȷ":{"ha":695,"x_min":0,"x_max":0,"o":"m 388 -123 b 430 15 404 -75 418 -30 b 806 136 595 42 751 98 b 827 165 818 144 827 153 b 796 193 827 184 813 193 b 777 191 791 193 783 192 b 458 119 739 181 657 132 b 616 630 498 273 535 431 b 627 674 621 644 627 656 b 587 707 627 695 610 707 b 258 700 515 707 326 700 b 207 663 216 700 212 685 b 63 131 179 534 112 282 b -130 -231 -1 -68 -53 -231 b -176 -229 -144 -231 -161 -229 b -211 -258 -193 -229 -211 -237 b -159 -312 -211 -281 -189 -300 b 46 -346 -107 -334 -40 -346 b 388 -123 243 -346 336 -279 z "},"ı":{"ha":696,"x_min":0,"x_max":0,"o":"m 766 184 b 509 115 701 153 574 115 b 467 165 478 115 467 138 b 637 673 467 259 637 562 b 602 707 637 688 628 707 b 267 700 524 707 341 700 b 201 666 222 700 201 686 b 202 640 201 657 202 649 b 32 85 202 446 32 155 b 237 -27 32 4 132 -27 b 807 136 439 -27 725 74 b 828 165 819 144 828 152 b 800 193 828 183 818 193 b 766 184 787 193 776 189 z "},"ĳ":{"ha":1392,"x_min":0,"x_max":0,"o":"m 437 776 b 700 956 571 776 700 858 b 524 1087 700 1029 629 1087 b 262 904 393 1087 262 1004 b 437 776 262 831 334 776 z m 766 184 b 509 115 701 153 574 115 b 467 165 478 115 467 138 b 637 673 467 259 637 562 b 602 707 637 688 628 707 b 267 700 524 707 341 700 b 201 666 222 700 201 686 b 202 640 201 657 202 649 b 32 85 202 446 32 155 b 237 -27 32 4 132 -27 b 807 136 439 -27 725 74 b 828 165 819 144 828 152 b 800 193 828 183 818 193 b 766 184 787 193 776 189 z m 1084 -123 b 1126 15 1100 -75 1114 -30 b 1502 136 1291 42 1447 98 b 1523 165 1514 144 1523 153 b 1493 193 1523 184 1510 193 b 1474 191 1487 193 1480 192 b 1154 119 1435 181 1354 132 b 1312 630 1194 273 1232 431 b 1324 674 1318 644 1324 656 b 1284 707 1324 695 1306 707 b 954 700 1212 707 1023 700 b 903 663 913 700 908 685 b 760 131 876 534 808 282 b 567 -231 696 -68 644 -231 b 521 -229 553 -231 536 -229 b 486 -258 503 -229 486 -237 b 538 -312 486 -281 508 -300 b 743 -346 589 -334 656 -346 b 1084 -123 940 -346 1033 -279 z m 1138 776 b 1400 956 1272 776 1400 858 b 1225 1087 1400 1029 1329 1087 b 962 904 1093 1087 962 1004 b 1138 776 962 831 1035 776 z "},"ĸ":{"ha":1156,"x_min":0,"x_max":0,"o":"m 1258 122 b 1287 166 1282 139 1287 152 b 1259 193 1287 184 1272 193 b 1223 180 1250 193 1238 188 b 1030 110 1179 155 1078 110 b 987 155 997 110 987 126 b 1004 258 987 191 1004 224 b 832 366 1004 331 945 366 b 664 351 774 366 705 357 b 1158 673 869 394 1158 503 b 1122 707 1158 688 1148 707 b 857 700 1081 707 905 700 b 791 666 812 700 791 686 b 792 640 791 657 792 649 b 531 395 792 543 699 439 b 603 674 576 516 603 602 b 568 705 603 688 590 705 b 257 698 493 705 321 698 b 191 664 212 698 191 684 b 192 645 191 657 192 652 b 9 13 192 422 9 74 b 35 -14 9 1 25 -14 b 384 -6 110 -14 212 -6 b 420 19 398 -6 418 0 b 507 331 423 73 441 151 b 614 231 584 324 614 285 b 586 68 614 171 586 121 b 758 -27 586 1 630 -27 b 1258 122 917 -27 1121 26 z "},"˜":{"ha":833,"x_min":0,"x_max":0,"o":"m 741 966 b 791 1046 762 989 791 1021 b 745 1079 791 1067 770 1079 b 587 1021 696 1079 627 1021 b 298 1105 505 1021 411 1105 b 92 989 231 1105 160 1063 b 41 909 71 965 41 934 b 88 876 41 887 60 876 b 245 934 136 876 205 934 b 534 848 328 934 422 848 b 741 966 602 848 673 891 z "},"à":{"ha":1674,"x_min":0,"x_max":0,"o":""},"á":{"ha":1273,"x_min":0,"x_max":0,"o":"m 435 256 b 705 583 435 405 570 583 b 786 502 766 583 786 551 b 747 340 786 453 768 390 b 534 145 674 174 589 145 b 435 256 475 145 435 190 z m 1381 133 b 1404 170 1393 144 1404 155 b 1378 193 1404 187 1393 193 b 1349 186 1368 193 1359 191 b 1112 106 1305 162 1166 106 b 1068 150 1083 106 1068 115 b 1156 420 1068 205 1114 313 b 1232 671 1195 518 1232 615 b 1197 705 1232 686 1223 705 b 1055 711 1159 705 1107 708 b 886 720 989 715 923 720 b 821 686 842 720 821 706 b 821 656 821 675 821 665 b 821 644 821 652 821 648 b 581 720 772 686 696 720 b 55 235 234 720 55 463 b 355 -27 55 44 199 -27 b 640 79 512 -27 601 39 b 840 -27 668 -9 762 -27 b 1381 133 1124 -27 1334 91 z m 895 1161 b 540 827 704 1058 540 874 b 568 802 540 810 551 802 b 613 814 580 802 595 806 b 1000 974 753 882 836 914 b 1076 1051 1055 994 1076 1023 b 930 1168 1076 1109 992 1168 b 895 1161 917 1168 905 1166 z "},"ä":{"ha":1749,"x_min":0,"x_max":0,"o":""},"è":{"ha":1042,"x_min":0,"x_max":0,"o":""},"é":{"ha":1042,"x_min":0,"x_max":0,"o":"m 1141 130 b 1174 170 1170 147 1174 157 b 1150 193 1174 189 1161 193 b 1122 187 1141 193 1133 191 b 665 92 972 139 803 92 b 438 229 567 92 450 119 b 1013 519 764 252 1013 323 b 684 720 1013 637 918 720 b 39 255 329 720 39 537 b 498 -27 39 76 174 -27 b 1141 130 844 -27 1084 97 z m 439 303 b 635 620 451 452 525 620 b 694 565 669 620 694 599 b 439 303 694 434 590 345 z m 780 1161 b 425 827 589 1058 425 874 b 452 802 425 810 435 802 b 498 814 465 802 479 806 b 885 974 638 882 720 914 b 961 1051 940 994 961 1023 b 814 1168 961 1109 877 1168 b 780 1161 802 1168 790 1166 z "},"ê":{"ha":1042,"x_min":0,"x_max":0,"o":""},"ë":{"ha":1042,"x_min":0,"x_max":0,"o":"m 1141 130 b 1174 170 1170 147 1174 157 b 1150 193 1174 189 1161 193 b 1122 187 1141 193 1133 191 b 665 92 972 139 803 92 b 438 229 567 92 450 119 b 1013 519 764 252 1013 323 b 684 720 1013 637 918 720 b 39 255 329 720 39 537 b 498 -27 39 76 174 -27 b 1141 130 844 -27 1084 97 z m 439 303 b 635 620 451 452 525 620 b 694 565 669 620 694 599 b 439 303 694 434 590 345 z m 425 825 b 653 981 540 825 653 895 b 500 1095 653 1045 591 1095 b 271 936 385 1095 271 1023 b 425 825 271 872 335 825 z m 913 825 b 1141 981 1029 825 1141 895 b 988 1095 1141 1045 1079 1095 b 760 936 873 1095 760 1023 b 913 825 760 872 823 825 z "},"ï":{"ha":696,"x_min":0,"x_max":0,"o":"m 780 184 b 523 115 714 153 587 115 b 480 165 492 115 480 138 b 651 673 480 259 651 562 b 616 707 651 688 642 707 b 281 700 537 707 355 700 b 215 666 236 700 215 686 b 216 640 215 657 216 649 b 45 85 216 446 45 155 b 251 -27 45 4 145 -27 b 821 136 453 -27 739 74 b 842 165 832 144 842 152 b 813 193 842 183 831 193 b 780 184 800 193 789 189 z m 222 825 b 450 981 337 825 450 895 b 297 1095 450 1045 388 1095 b 68 936 182 1095 68 1023 b 222 825 68 872 132 825 z m 710 825 b 939 981 826 825 939 895 b 785 1095 939 1045 876 1095 b 557 936 671 1095 557 1023 b 710 825 557 872 621 825 z "},"ì":{"ha":696,"x_min":0,"x_max":0,"o":"m 780 184 b 523 115 714 153 587 115 b 480 165 492 115 480 138 b 651 673 480 259 651 562 b 616 707 651 688 642 707 b 281 700 537 707 355 700 b 215 666 236 700 215 686 b 216 640 215 657 216 649 b 45 85 216 446 45 155 b 251 -27 45 4 145 -27 b 821 136 453 -27 739 74 b 842 165 832 144 842 152 b 813 193 842 183 831 193 b 780 184 800 193 789 189 z m 364 1164 b 339 1168 357 1168 348 1168 b 205 1036 282 1168 205 1097 b 294 947 205 1000 229 969 b 625 819 419 905 484 880 b 671 802 650 808 662 802 b 699 831 684 802 699 812 b 364 1164 699 878 536 1067 z "},"í":{"ha":696,"x_min":0,"x_max":0,"o":"m 780 184 b 523 115 714 153 587 115 b 480 165 492 115 480 138 b 651 673 480 259 651 562 b 616 707 651 688 642 707 b 281 700 537 707 355 700 b 215 666 236 700 215 686 b 216 640 215 657 216 649 b 45 85 216 446 45 155 b 251 -27 45 4 145 -27 b 821 136 453 -27 739 74 b 842 165 832 144 842 152 b 813 193 842 183 831 193 b 780 184 800 193 789 189 z m 577 1161 b 222 827 386 1058 222 874 b 250 802 222 810 233 802 b 295 814 262 802 277 806 b 682 974 435 882 517 914 b 758 1051 737 994 758 1023 b 612 1168 758 1109 674 1168 b 577 1161 599 1168 587 1166 z "},"î":{"ha":696,"x_min":0,"x_max":0,"o":"m 780 184 b 523 115 714 153 587 115 b 480 165 492 115 480 138 b 651 673 480 259 651 562 b 616 707 651 688 642 707 b 281 700 537 707 355 700 b 215 666 236 700 215 686 b 216 640 215 657 216 649 b 45 85 216 446 45 155 b 251 -27 45 4 145 -27 b 821 136 453 -27 739 74 b 842 165 832 144 842 152 b 813 193 842 183 831 193 b 780 184 800 193 789 189 z m 627 1132 b 543 1171 607 1156 581 1171 b 439 1143 493 1171 473 1166 b 136 848 279 1034 136 891 b 169 817 136 827 152 817 b 231 838 186 817 208 825 b 508 977 359 907 406 931 b 724 838 592 926 626 905 b 786 812 753 818 770 812 b 821 841 804 812 821 820 b 820 851 821 844 821 847 b 627 1132 814 892 734 1004 z "},"å":{"ha":1765,"x_min":0,"x_max":0,"o":""},"ĩ":{"ha":696,"x_min":0,"x_max":0,"o":"m 780 184 b 523 115 714 153 587 115 b 480 165 492 115 480 138 b 651 673 480 259 651 562 b 616 707 651 688 642 707 b 281 700 537 707 355 700 b 215 666 236 700 215 686 b 216 640 215 657 216 649 b 45 85 216 446 45 155 b 251 -27 45 4 145 -27 b 821 136 453 -27 739 74 b 842 165 832 144 842 152 b 813 193 842 183 831 193 b 780 184 800 193 789 189 z m 823 966 b 873 1046 844 989 873 1021 b 827 1079 873 1067 852 1079 b 669 1021 779 1079 709 1021 b 380 1105 587 1021 493 1105 b 174 989 313 1105 242 1063 b 123 909 153 965 123 934 b 170 876 123 887 142 876 b 328 934 218 876 288 934 b 616 848 410 934 504 848 b 823 966 684 848 755 891 z "},"ã":{"ha":1273,"x_min":0,"x_max":0,"o":"m 435 256 b 705 583 435 405 570 583 b 786 502 766 583 786 551 b 747 340 786 453 768 390 b 534 145 674 174 589 145 b 435 256 475 145 435 190 z m 1381 133 b 1404 170 1393 144 1404 155 b 1378 193 1404 187 1393 193 b 1349 186 1368 193 1359 191 b 1112 106 1305 162 1166 106 b 1068 150 1083 106 1068 115 b 1156 420 1068 205 1114 313 b 1232 671 1195 518 1232 615 b 1197 705 1232 686 1223 705 b 1055 711 1159 705 1107 708 b 886 720 989 715 923 720 b 821 686 842 720 821 706 b 821 656 821 675 821 665 b 821 644 821 652 821 648 b 581 720 772 686 696 720 b 55 235 234 720 55 463 b 355 -27 55 44 199 -27 b 640 79 512 -27 601 39 b 840 -27 668 -9 762 -27 b 1381 133 1124 -27 1334 91 z m 1141 966 b 1192 1046 1162 989 1192 1021 b 1145 1079 1192 1067 1171 1079 b 987 1021 1097 1079 1027 1021 b 699 1105 905 1021 811 1105 b 492 989 631 1105 560 1063 b 441 909 471 965 441 934 b 488 876 441 887 460 876 b 646 934 536 876 606 934 b 934 848 728 934 822 848 b 1141 966 1002 848 1073 891 z "},"ò":{"ha":1158,"x_min":0,"x_max":0,"o":""},"ó":{"ha":1158,"x_min":0,"x_max":0,"o":"m 498 -27 b 1090 374 846 -27 1062 151 b 1166 369 1116 370 1142 369 b 1373 426 1251 369 1309 381 b 1406 473 1390 437 1406 455 b 1380 498 1406 490 1395 498 b 1348 489 1368 498 1358 494 b 1190 453 1291 460 1253 453 b 1090 469 1158 453 1124 458 b 663 720 1065 671 862 720 b 43 278 342 720 43 557 b 498 -27 43 65 230 -27 z m 416 218 b 655 605 416 410 532 605 b 724 503 714 605 724 549 b 508 93 724 316 629 93 b 416 218 432 93 416 156 z m 812 1161 b 457 827 621 1058 457 874 b 485 802 457 810 468 802 b 530 814 497 802 512 806 b 918 974 671 882 753 914 b 994 1051 972 994 994 1023 b 847 1168 994 1109 909 1168 b 812 1161 834 1168 823 1166 z "},"ô":{"ha":1158,"x_min":0,"x_max":0,"o":""},"õ":{"ha":1158,"x_min":0,"x_max":0,"o":"m 498 -27 b 1090 374 846 -27 1062 151 b 1166 369 1116 370 1142 369 b 1373 426 1251 369 1309 381 b 1406 473 1390 437 1406 455 b 1380 498 1406 490 1395 498 b 1348 489 1368 498 1358 494 b 1190 453 1291 460 1253 453 b 1090 469 1158 453 1124 458 b 663 720 1065 671 862 720 b 43 278 342 720 43 557 b 498 -27 43 65 230 -27 z m 416 218 b 655 605 416 410 532 605 b 724 503 714 605 724 549 b 508 93 724 316 629 93 b 416 218 432 93 416 156 z m 1058 966 b 1109 1046 1080 989 1109 1021 b 1062 1079 1109 1067 1088 1079 b 905 1021 1014 1079 945 1021 b 616 1105 822 1021 728 1105 b 410 989 548 1105 477 1063 b 359 909 388 965 359 934 b 406 876 359 887 378 876 b 563 934 454 876 523 934 b 851 848 646 934 739 848 b 1058 966 919 848 990 891 z "},"ö":{"ha":1158,"x_min":0,"x_max":0,"o":""},"ù":{"ha":1275,"x_min":0,"x_max":0,"o":""},"ú":{"ha":1275,"x_min":0,"x_max":0,"o":"m 1367 120 b 1407 170 1391 135 1407 149 b 1381 193 1407 188 1394 193 b 1352 183 1372 193 1361 188 b 1101 109 1294 151 1161 109 b 1053 160 1065 109 1053 128 b 1221 679 1053 281 1221 597 b 1196 705 1221 690 1205 705 b 854 697 1120 705 1027 697 b 819 672 848 697 822 695 b 648 157 789 484 692 313 b 555 146 620 151 593 146 b 465 222 505 146 465 171 b 616 671 465 347 616 600 b 581 705 616 686 607 705 b 275 698 507 705 345 698 b 208 642 215 698 208 682 b 68 136 208 552 68 302 b 268 -27 68 5 162 -27 b 629 65 403 -27 538 28 b 827 -27 648 -15 761 -27 b 1367 120 1065 -27 1293 75 z m 867 1161 b 512 827 676 1058 512 874 b 540 802 512 810 523 802 b 585 814 552 802 567 806 b 972 974 726 882 808 914 b 1048 1051 1027 994 1048 1023 b 902 1168 1048 1109 964 1168 b 867 1161 889 1168 878 1166 z "},"û":{"ha":1275,"x_min":0,"x_max":0,"o":""},"ü":{"ha":1275,"x_min":0,"x_max":0,"o":"m 1367 120 b 1407 170 1391 135 1407 149 b 1381 193 1407 188 1394 193 b 1352 183 1372 193 1361 188 b 1101 109 1294 151 1161 109 b 1053 160 1065 109 1053 128 b 1221 679 1053 281 1221 597 b 1196 705 1221 690 1205 705 b 854 697 1120 705 1027 697 b 819 672 848 697 822 695 b 648 157 789 484 692 313 b 555 146 620 151 593 146 b 465 222 505 146 465 171 b 616 671 465 347 616 600 b 581 705 616 686 607 705 b 275 698 507 705 345 698 b 208 642 215 698 208 682 b 68 136 208 552 68 302 b 268 -27 68 5 162 -27 b 629 65 403 -27 538 28 b 827 -27 648 -15 761 -27 b 1367 120 1065 -27 1293 75 z m 512 825 b 741 981 627 825 741 895 b 587 1095 741 1045 678 1095 b 359 936 473 1095 359 1023 b 512 825 359 872 422 825 z m 1000 825 b 1229 981 1116 825 1229 895 b 1076 1095 1229 1045 1166 1095 b 847 936 961 1095 847 1023 b 1000 825 847 872 911 825 z "},"ý":{"ha":1683,"x_min":0,"x_max":0,"o":""},"ÿ":{"ha":1273,"x_min":0,"x_max":0,"o":"m 970 -81 b 992 -21 975 -67 983 -47 b 1387 138 1175 18 1328 88 b 1404 170 1399 149 1404 159 b 1379 193 1404 183 1396 193 b 1343 184 1365 193 1356 191 b 1025 71 1299 161 1176 106 b 1227 682 1103 294 1227 659 b 1201 705 1227 692 1210 705 b 852 684 1126 705 1024 684 b 816 659 845 684 821 682 b 682 223 781 523 738 373 b 543 182 644 199 597 182 b 465 243 499 182 465 201 b 593 671 465 331 593 553 b 557 705 593 686 583 705 b 414 695 520 705 469 695 b 256 698 355 695 288 698 b 191 664 212 698 191 684 b 191 638 191 655 191 647 b 68 173 191 529 68 337 b 289 27 68 88 125 27 b 651 100 406 27 548 62 b 625 -1 646 73 636 37 b 0 -213 290 -30 0 -78 b 338 -353 0 -303 119 -353 b 970 -81 636 -353 887 -307 z m 566 -172 b 378 -292 538 -252 454 -292 b 295 -219 342 -292 295 -256 b 600 -78 295 -132 460 -96 b 566 -172 588 -115 575 -149 z m 488 825 b 716 981 603 825 716 895 b 563 1095 716 1045 654 1095 b 334 936 448 1095 334 1023 b 488 825 334 872 398 825 z m 976 825 b 1204 981 1092 825 1204 895 b 1051 1095 1204 1045 1142 1095 b 823 936 937 1095 823 1023 b 976 825 823 872 886 825 z "},"ā":{"ha":1719,"x_min":0,"x_max":0,"o":""},"ć":{"ha":1042,"x_min":0,"x_max":0,"o":""},"ĉ":{"ha":1042,"x_min":0,"x_max":0,"o":"m 652 602 b 852 427 753 602 800 519 b 894 401 860 412 876 401 b 1034 637 958 401 1034 581 b 1023 665 1034 650 1029 659 b 688 720 969 695 854 720 b 50 259 360 720 50 545 b 503 -27 50 88 181 -27 b 1138 123 777 -27 1021 47 b 1174 172 1167 142 1174 157 b 1153 193 1174 186 1164 193 b 1115 185 1141 193 1129 190 b 644 100 991 144 784 100 b 438 271 520 100 438 131 b 652 602 438 399 496 602 z m 884 1132 b 800 1171 865 1156 839 1171 b 696 1143 751 1171 731 1166 b 394 848 536 1034 394 891 b 427 817 394 827 410 817 b 488 838 444 817 466 825 b 766 977 616 907 664 931 b 982 838 850 926 884 905 b 1044 812 1011 818 1028 812 b 1078 841 1061 812 1078 820 b 1078 851 1078 844 1078 847 b 884 1132 1072 892 992 1004 z "},"č":{"ha":1042,"x_min":0,"x_max":0,"o":""},"ċ":{"ha":1042,"x_min":0,"x_max":0,"o":"m 652 602 b 852 427 753 602 800 519 b 894 401 860 412 876 401 b 1034 637 958 401 1034 581 b 1023 665 1034 650 1029 659 b 688 720 969 695 854 720 b 50 259 360 720 50 545 b 503 -27 50 88 181 -27 b 1138 123 777 -27 1021 47 b 1174 172 1167 142 1174 157 b 1153 193 1174 186 1164 193 b 1115 185 1141 193 1129 190 b 644 100 991 144 784 100 b 438 271 520 100 438 131 b 652 602 438 399 496 602 z m 685 830 b 926 996 808 830 926 906 b 765 1117 926 1064 861 1117 b 523 948 644 1117 523 1041 b 685 830 523 881 590 830 z "},"ě":{"ha":1042,"x_min":0,"x_max":0,"o":"m 1141 130 b 1174 170 1170 147 1174 157 b 1150 193 1174 189 1161 193 b 1122 187 1141 193 1133 191 b 665 92 972 139 803 92 b 438 229 567 92 450 119 b 1013 519 764 252 1013 323 b 684 720 1013 637 918 720 b 39 255 329 720 39 537 b 498 -27 39 76 174 -27 b 1141 130 844 -27 1084 97 z m 439 303 b 635 620 451 452 525 620 b 694 565 669 620 694 599 b 439 303 694 434 590 345 z m 553 852 b 637 812 573 828 599 812 b 741 841 687 812 707 817 b 1044 1136 901 950 1044 1093 b 1011 1166 1044 1156 1028 1166 b 949 1146 994 1166 972 1158 b 672 1007 821 1077 774 1053 b 456 1146 588 1058 554 1079 b 394 1171 427 1166 410 1171 b 359 1143 376 1171 359 1164 b 360 1133 359 1140 359 1137 b 553 852 366 1092 446 980 z "},"ē":{"ha":1042,"x_min":0,"x_max":0,"o":"m 1141 130 b 1174 170 1170 147 1174 157 b 1150 193 1174 189 1161 193 b 1122 187 1141 193 1133 191 b 665 92 972 139 803 92 b 438 229 567 92 450 119 b 1013 519 764 252 1013 323 b 684 720 1013 637 918 720 b 39 255 329 720 39 537 b 498 -27 39 76 174 -27 b 1141 130 844 -27 1084 97 z m 439 303 b 635 620 451 452 525 620 b 694 565 669 620 694 599 b 439 303 694 434 590 345 z m 439 1021 b 375 932 409 1021 375 987 b 406 884 375 898 389 884 b 658 898 484 884 559 898 b 913 884 762 898 831 884 b 978 975 945 884 978 918 b 954 1021 978 1004 970 1021 b 701 1007 881 1021 797 1007 b 439 1021 614 1007 509 1021 z "},"ė":{"ha":1042,"x_min":0,"x_max":0,"o":""},"ī":{"ha":696,"x_min":0,"x_max":0,"o":"m 780 184 b 523 115 714 153 587 115 b 480 165 492 115 480 138 b 651 673 480 259 651 562 b 616 707 651 688 642 707 b 281 700 537 707 355 700 b 215 666 236 700 215 686 b 216 640 215 657 216 649 b 45 85 216 446 45 155 b 251 -27 45 4 145 -27 b 821 136 453 -27 739 74 b 842 165 832 144 842 152 b 813 193 842 183 831 193 b 780 184 800 193 789 189 z m 237 1021 b 172 932 206 1021 172 987 b 203 884 172 898 186 884 b 455 898 281 884 357 898 b 711 884 559 898 628 884 b 775 975 743 884 775 918 b 751 1021 775 1004 767 1021 b 498 1007 678 1021 594 1007 b 237 1021 412 1007 306 1021 z "},"ỳ":{"ha":1622,"x_min":0,"x_max":0,"o":""},"ŷ":{"ha":1273,"x_min":0,"x_max":0,"o":"m 970 -81 b 992 -21 975 -67 983 -47 b 1387 138 1175 18 1328 88 b 1404 170 1399 149 1404 159 b 1379 193 1404 183 1396 193 b 1343 184 1365 193 1356 191 b 1025 71 1299 161 1176 106 b 1227 682 1103 294 1227 659 b 1201 705 1227 692 1210 705 b 852 684 1126 705 1024 684 b 816 659 845 684 821 682 b 682 223 781 523 738 373 b 543 182 644 199 597 182 b 465 243 499 182 465 201 b 593 671 465 331 593 553 b 557 705 593 686 583 705 b 414 695 520 705 469 695 b 256 698 355 695 288 698 b 191 664 212 698 191 684 b 191 638 191 655 191 647 b 68 173 191 529 68 337 b 289 27 68 88 125 27 b 651 100 406 27 548 62 b 625 -1 646 73 636 37 b 0 -213 290 -30 0 -78 b 338 -353 0 -303 119 -353 b 970 -81 636 -353 887 -307 z m 566 -172 b 378 -292 538 -252 454 -292 b 295 -219 342 -292 295 -256 b 600 -78 295 -132 460 -96 b 566 -172 588 -115 575 -149 z m 892 1132 b 808 1171 873 1156 847 1171 b 705 1143 759 1171 739 1166 b 402 848 545 1034 402 891 b 435 817 402 827 418 817 b 496 838 452 817 474 825 b 774 977 625 907 672 931 b 990 838 858 926 892 905 b 1052 812 1019 818 1036 812 b 1086 841 1069 812 1086 820 b 1086 851 1086 844 1086 847 b 892 1132 1080 892 1000 1004 z "},"ẁ":{"ha":1705,"x_min":0,"x_max":0,"o":"m 836 698 b 791 652 801 698 792 667 b 537 150 768 463 691 150 b 471 288 479 150 471 216 b 608 643 471 427 540 557 b 625 679 617 654 625 665 b 598 705 625 702 609 705 b 239 698 585 705 273 698 b 171 655 204 698 191 688 b 77 300 117 566 77 380 b 332 -51 77 89 184 -51 b 729 138 441 -51 594 26 b 936 -44 774 37 854 -44 b 1569 345 1122 -44 1408 130 l 1600 386 b 1678 379 1624 381 1651 379 b 1942 454 1776 379 1868 397 b 1971 500 1957 465 1971 484 b 1946 526 1971 516 1959 526 b 1912 515 1932 526 1921 520 b 1718 466 1849 479 1784 466 b 1655 472 1697 466 1676 468 b 1711 677 1688 533 1711 600 b 1683 705 1711 700 1701 705 b 1415 698 1652 705 1438 701 b 1369 652 1375 692 1369 667 b 1136 157 1369 415 1280 157 b 1067 273 1085 157 1067 211 b 1205 643 1067 413 1131 539 b 1221 683 1214 655 1221 669 b 1195 705 1221 702 1205 705 b 836 698 1182 705 870 699 z m 880 1164 b 855 1168 873 1168 864 1168 b 721 1036 798 1168 721 1097 b 810 947 721 1000 745 969 b 1141 819 935 905 1000 880 b 1187 802 1166 808 1178 802 b 1215 831 1200 802 1215 812 b 880 1164 1215 878 1053 1067 z "},"ẃ":{"ha":1705,"x_min":0,"x_max":0,"o":"m 836 698 b 791 652 801 698 792 667 b 537 150 768 463 691 150 b 471 288 479 150 471 216 b 608 643 471 427 540 557 b 625 679 617 654 625 665 b 598 705 625 702 609 705 b 239 698 585 705 273 698 b 171 655 204 698 191 688 b 77 300 117 566 77 380 b 332 -51 77 89 184 -51 b 729 138 441 -51 594 26 b 936 -44 774 37 854 -44 b 1569 345 1122 -44 1408 130 l 1600 386 b 1678 379 1624 381 1651 379 b 1942 454 1776 379 1868 397 b 1971 500 1957 465 1971 484 b 1946 526 1971 516 1959 526 b 1912 515 1932 526 1921 520 b 1718 466 1849 479 1784 466 b 1655 472 1697 466 1676 468 b 1711 677 1688 533 1711 600 b 1683 705 1711 700 1701 705 b 1415 698 1652 705 1438 701 b 1369 652 1375 692 1369 667 b 1136 157 1369 415 1280 157 b 1067 273 1085 157 1067 211 b 1205 643 1067 413 1131 539 b 1221 683 1214 655 1221 669 b 1195 705 1221 702 1205 705 b 836 698 1182 705 870 699 z m 1116 1161 b 761 827 925 1058 761 874 b 789 802 761 810 772 802 b 834 814 801 802 816 806 b 1221 974 975 882 1057 914 b 1297 1051 1276 994 1297 1023 b 1151 1168 1297 1109 1213 1168 b 1116 1161 1138 1168 1126 1166 z "},"ŵ":{"ha":1705,"x_min":0,"x_max":0,"o":""},"ẅ":{"ha":1705,"x_min":0,"x_max":0,"o":"m 836 698 b 791 652 801 698 792 667 b 537 150 768 463 691 150 b 471 288 479 150 471 216 b 608 643 471 427 540 557 b 625 679 617 654 625 665 b 598 705 625 702 609 705 b 239 698 585 705 273 698 b 171 655 204 698 191 688 b 77 300 117 566 77 380 b 332 -51 77 89 184 -51 b 729 138 441 -51 594 26 b 936 -44 774 37 854 -44 b 1569 345 1122 -44 1408 130 l 1600 386 b 1678 379 1624 381 1651 379 b 1942 454 1776 379 1868 397 b 1971 500 1957 465 1971 484 b 1946 526 1971 516 1959 526 b 1912 515 1932 526 1921 520 b 1718 466 1849 479 1784 466 b 1655 472 1697 466 1676 468 b 1711 677 1688 533 1711 600 b 1683 705 1711 700 1701 705 b 1415 698 1652 705 1438 701 b 1369 652 1375 692 1369 667 b 1136 157 1369 415 1280 157 b 1067 273 1085 157 1067 211 b 1205 643 1067 413 1131 539 b 1221 683 1214 655 1221 669 b 1195 705 1221 702 1205 705 b 836 698 1182 705 870 699 z m 761 825 b 989 981 876 825 989 895 b 836 1095 989 1045 927 1095 b 608 936 722 1095 608 1023 b 761 825 608 872 671 825 z m 1249 825 b 1478 981 1365 825 1478 895 b 1324 1095 1478 1045 1415 1095 b 1096 936 1210 1095 1096 1023 b 1249 825 1096 872 1160 825 z "},"ũ":{"ha":1275,"x_min":0,"x_max":0,"o":""},"ū":{"ha":1275,"x_min":0,"x_max":0,"o":"m 1367 120 b 1407 170 1391 135 1407 149 b 1381 193 1407 188 1394 193 b 1352 183 1372 193 1361 188 b 1101 109 1294 151 1161 109 b 1053 160 1065 109 1053 128 b 1221 679 1053 281 1221 597 b 1196 705 1221 690 1205 705 b 854 697 1120 705 1027 697 b 819 672 848 697 822 695 b 648 157 789 484 692 313 b 555 146 620 151 593 146 b 465 222 505 146 465 171 b 616 671 465 347 616 600 b 581 705 616 686 607 705 b 275 698 507 705 345 698 b 208 642 215 698 208 682 b 68 136 208 552 68 302 b 268 -27 68 5 162 -27 b 629 65 403 -27 538 28 b 827 -27 648 -15 761 -27 b 1367 120 1065 -27 1293 75 z m 527 1021 b 463 932 496 1021 463 987 b 493 884 463 898 477 884 b 745 898 571 884 647 898 b 1001 884 849 898 918 884 b 1065 975 1033 884 1065 918 b 1042 1021 1065 1004 1057 1021 b 789 1007 968 1021 884 1007 b 527 1021 702 1007 596 1021 z "},"ů":{"ha":1275,"x_min":0,"x_max":0,"o":""},"ś":{"ha":1040,"x_min":0,"x_max":0,"o":""},"ŝ":{"ha":1040,"x_min":0,"x_max":0,"o":"m 492 -26 b 1149 131 807 -26 1075 79 b 1172 168 1164 140 1172 151 b 1147 193 1172 184 1160 193 b 1118 184 1137 193 1128 190 b 855 101 1069 158 969 123 b 895 222 880 134 895 173 b 543 532 895 399 543 436 b 644 601 543 586 604 601 b 901 440 747 601 826 530 b 916 433 905 435 911 433 b 1031 638 965 433 1031 587 b 1021 670 1031 655 1029 665 b 665 720 962 706 781 720 b 98 445 475 720 98 660 b 425 149 98 260 425 267 b 347 84 425 109 393 84 b 84 199 188 84 131 199 b -23 104 55 199 -23 121 b -15 70 -23 92 -23 82 b 442 -27 19 18 236 -27 b 492 -26 459 -27 475 -27 z m 829 1132 b 745 1171 810 1156 784 1171 b 642 1143 696 1171 676 1166 b 339 848 481 1034 339 891 b 372 817 339 827 355 817 b 433 838 389 817 411 825 b 711 977 562 907 609 931 b 927 838 795 926 829 905 b 989 812 956 818 973 812 b 1023 841 1006 812 1023 820 b 1023 851 1023 844 1023 847 b 829 1132 1017 892 937 1004 z "},"š":{"ha":1040,"x_min":0,"x_max":0,"o":""},"ŕ":{"ha":926,"x_min":0,"x_max":0,"o":""},"ź":{"ha":1156,"x_min":0,"x_max":0,"o":"m 336 720 b 234 695 288 720 258 718 b 115 436 193 656 115 467 b 149 400 115 418 128 400 b 545 540 197 400 315 540 b 612 538 568 540 590 539 b -15 109 147 203 -15 183 b 62 40 -15 76 13 52 b 391 -23 154 17 349 -23 b 507 39 437 -23 499 39 b 846 -20 534 39 644 -20 b 1250 126 1002 -20 1188 81 b 1288 171 1279 147 1288 157 b 1262 193 1288 183 1280 193 b 1195 173 1249 193 1226 186 b 814 109 1077 123 959 109 b 602 117 741 109 669 112 b 1166 610 774 241 1166 511 b 798 715 1166 670 838 715 b 698 617 762 715 715 617 b 336 720 675 617 409 720 z m 864 1161 b 509 827 673 1058 509 874 b 536 802 509 810 519 802 b 582 814 549 802 564 806 b 969 974 722 882 804 914 b 1045 1051 1024 994 1045 1023 b 899 1168 1045 1109 961 1168 b 864 1161 886 1168 874 1166 z "},"ž":{"ha":1156,"x_min":0,"x_max":0,"o":"m 336 720 b 234 695 288 720 258 718 b 115 436 193 656 115 467 b 149 400 115 418 128 400 b 545 540 197 400 315 540 b 612 538 568 540 590 539 b -15 109 147 203 -15 183 b 62 40 -15 76 13 52 b 391 -23 154 17 349 -23 b 507 39 437 -23 499 39 b 846 -20 534 39 644 -20 b 1250 126 1002 -20 1188 81 b 1288 171 1279 147 1288 157 b 1262 193 1288 183 1280 193 b 1195 173 1249 193 1226 186 b 814 109 1077 123 959 109 b 602 117 741 109 669 112 b 1166 610 774 241 1166 511 b 798 715 1166 670 838 715 b 698 617 762 715 715 617 b 336 720 675 617 409 720 z m 637 852 b 722 812 657 828 683 812 b 825 841 771 812 791 817 b 1128 1136 985 950 1128 1093 b 1095 1166 1128 1156 1112 1166 b 1034 1146 1078 1166 1056 1158 b 756 1007 905 1077 858 1053 b 540 1146 672 1058 638 1079 b 478 1171 511 1166 494 1171 b 444 1143 460 1171 444 1164 b 444 1133 444 1140 444 1137 b 637 852 450 1092 530 980 z "},"ż":{"ha":1156,"x_min":0,"x_max":0,"o":""},"ō":{"ha":1158,"x_min":0,"x_max":0,"o":""},"ň":{"ha":1275,"x_min":0,"x_max":0,"o":""},"ĝ":{"ha":1681,"x_min":0,"x_max":0,"o":""},"ġ":{"ha":1273,"x_min":0,"x_max":0,"o":"m 19 -231 b 337 -353 19 -321 155 -353 b 996 -81 603 -353 930 -302 l 1015 -21 b 1380 134 1190 28 1310 81 b 1404 170 1398 146 1404 157 b 1377 193 1404 184 1392 193 b 1335 181 1364 193 1350 189 b 1043 71 1231 132 1164 103 b 1225 618 1152 411 1225 570 b 1111 700 1225 669 1175 700 b 842 652 1054 700 926 677 b 595 720 793 690 718 720 b 55 254 293 720 55 525 b 349 8 55 66 199 8 b 689 123 465 8 592 51 b 645 -4 674 79 659 36 b 19 -231 430 -33 19 -113 z m 435 269 b 713 583 435 418 579 583 b 795 502 775 583 795 551 b 755 340 795 453 777 390 b 534 165 683 174 589 165 b 435 269 475 165 435 203 z m 585 -172 b 404 -277 557 -252 480 -277 b 314 -219 353 -277 314 -255 b 617 -81 314 -143 486 -102 z m 702 830 b 943 996 825 830 943 906 b 782 1117 943 1064 878 1117 b 540 948 661 1117 540 1041 b 702 830 540 881 607 830 z "},"˘":{"ha":833,"x_min":0,"x_max":0,"o":"m 417 1019 b 121 1116 262 1019 176 1116 b 75 1071 95 1116 75 1102 b 100 989 75 1040 87 1008 b 387 838 151 910 230 838 b 692 976 515 838 618 902 b 759 1089 729 1013 759 1054 b 725 1117 759 1108 747 1117 b 417 1019 669 1117 619 1019 z "},"ñ":{"ha":1275,"x_min":0,"x_max":0,"o":""},"ń":{"ha":1275,"x_min":0,"x_max":0,"o":"m 1376 125 b 1407 170 1400 142 1407 157 b 1381 193 1407 186 1395 193 b 1343 184 1369 193 1359 191 b 1104 114 1285 160 1152 114 b 1054 170 1069 114 1054 140 b 1180 562 1054 240 1180 433 b 1002 720 1180 675 1082 720 b 610 620 873 720 701 659 b 617 671 614 642 617 660 b 582 705 617 686 608 705 b 260 698 503 705 334 698 b 195 664 216 698 195 684 b 195 638 195 655 195 647 b 10 13 195 436 10 68 b 36 -14 10 1 26 -14 b 385 -6 111 -14 213 -6 b 421 19 392 -6 414 -3 b 588 535 460 142 544 380 b 685 546 618 541 654 546 b 779 486 736 546 779 532 b 643 65 779 396 643 163 b 844 -27 643 -24 787 -27 b 1376 125 1090 -27 1335 96 z m 895 1161 b 540 827 704 1058 540 874 b 568 802 540 810 551 802 b 613 814 580 802 595 806 b 1000 974 753 882 836 914 b 1076 1051 1055 994 1076 1023 b 930 1168 1076 1109 992 1168 b 895 1161 917 1168 905 1166 z "},"ă":{"ha":1754,"x_min":0,"x_max":0,"o":""},"ĕ":{"ha":1042,"x_min":0,"x_max":0,"o":"m 1141 130 b 1174 170 1170 147 1174 157 b 1150 193 1174 189 1161 193 b 1122 187 1141 193 1133 191 b 665 92 972 139 803 92 b 438 229 567 92 450 119 b 1013 519 764 252 1013 323 b 684 720 1013 637 918 720 b 39 255 329 720 39 537 b 498 -27 39 76 174 -27 b 1141 130 844 -27 1084 97 z m 439 303 b 635 620 451 452 525 620 b 694 565 669 620 694 599 b 439 303 694 434 590 345 z m 711 1019 b 416 1116 556 1019 471 1116 b 369 1071 389 1116 369 1102 b 395 989 369 1040 382 1008 b 681 838 446 910 524 838 b 987 976 810 838 913 902 b 1053 1089 1023 1013 1053 1054 b 1019 1117 1053 1108 1041 1117 b 711 1019 964 1117 913 1019 z "},"ğ":{"ha":1710,"x_min":0,"x_max":0,"o":""},"ĭ":{"ha":696,"x_min":0,"x_max":0,"o":"m 780 184 b 523 115 714 153 587 115 b 480 165 492 115 480 138 b 651 673 480 259 651 562 b 616 707 651 688 642 707 b 281 700 537 707 355 700 b 215 666 236 700 215 686 b 216 640 215 657 216 649 b 45 85 216 446 45 155 b 251 -27 45 4 145 -27 b 821 136 453 -27 739 74 b 842 165 832 144 842 152 b 813 193 842 183 831 193 b 780 184 800 193 789 189 z m 509 1019 b 213 1116 353 1019 268 1116 b 166 1071 186 1116 166 1102 b 192 989 166 1040 179 1008 b 478 838 243 910 321 838 b 784 976 607 838 710 902 b 850 1089 821 1013 850 1054 b 817 1117 850 1108 838 1117 b 509 1019 761 1117 711 1019 z "},"ŭ":{"ha":1275,"x_min":0,"x_max":0,"o":"m 1367 120 b 1407 170 1391 135 1407 149 b 1381 193 1407 188 1394 193 b 1352 183 1372 193 1361 188 b 1101 109 1294 151 1161 109 b 1053 160 1065 109 1053 128 b 1221 679 1053 281 1221 597 b 1196 705 1221 690 1205 705 b 854 697 1120 705 1027 697 b 819 672 848 697 822 695 b 648 157 789 484 692 313 b 555 146 620 151 593 146 b 465 222 505 146 465 171 b 616 671 465 347 616 600 b 581 705 616 686 607 705 b 275 698 507 705 345 698 b 208 642 215 698 208 682 b 68 136 208 552 68 302 b 268 -27 68 5 162 -27 b 629 65 403 -27 538 28 b 827 -27 648 -15 761 -27 b 1367 120 1065 -27 1293 75 z m 799 1019 b 503 1116 644 1019 558 1116 b 456 1071 477 1116 456 1102 b 482 989 456 1040 469 1008 b 768 838 533 910 612 838 b 1074 976 897 838 1000 902 b 1141 1089 1111 1013 1141 1054 b 1107 1117 1141 1108 1128 1117 b 799 1019 1051 1117 1001 1019 z "},"ŏ":{"ha":1158,"x_min":0,"x_max":0,"o":""},"ß":{"ha":1388,"x_min":0,"x_max":0,"o":"m 1570 131 b 1592 168 1584 140 1592 151 b 1568 193 1592 184 1580 193 b 1539 184 1557 193 1550 190 b 1303 98 1494 157 1404 119 b 1345 231 1330 135 1345 180 b 932 559 1345 461 932 463 b 1242 838 932 630 1242 668 b 812 1036 1242 962 1066 1036 b 286 792 546 1036 408 960 b 66 208 194 666 119 437 b 7 233 45 216 25 224 b -15 237 0 236 -8 237 b -44 212 -33 237 -44 230 b -9 167 -44 191 -24 176 b 50 131 6 157 26 144 b -12 -267 19 -15 -1 -157 b 12 -290 -12 -278 -1 -290 b 323 -300 119 -290 290 -300 b 357 -265 337 -300 354 -285 b 568 605 399 56 483 338 b 823 961 647 850 723 961 b 930 844 878 961 930 920 b 655 461 930 632 655 630 b 921 176 655 303 921 291 b 817 84 921 120 883 84 b 602 199 673 84 644 199 b 501 85 555 199 501 127 b 506 68 501 79 503 73 b 932 -27 538 16 739 -27 b 982 -26 949 -27 964 -26 b 1015 -26 993 -26 1004 -26 b 1570 131 1280 -16 1506 81 z "},"ę":{"ha":1042,"x_min":0,"x_max":0,"o":""},"ą":{"ha":1273,"x_min":0,"x_max":0,"o":"m 435 256 b 705 583 435 405 570 583 b 786 502 766 583 786 551 b 747 340 786 453 768 390 b 534 145 674 174 589 145 b 435 256 475 145 435 190 z m 1381 133 b 1404 170 1393 144 1404 155 b 1378 193 1404 187 1393 193 b 1349 186 1368 193 1359 191 b 1112 106 1305 162 1166 106 b 1068 150 1083 106 1068 115 b 1156 420 1068 205 1114 313 b 1232 671 1195 518 1232 615 b 1197 705 1232 686 1223 705 b 1055 711 1159 705 1107 708 b 886 720 989 715 923 720 b 821 686 842 720 821 706 b 821 656 821 675 821 665 b 821 644 821 652 821 648 b 581 720 772 686 696 720 b 55 235 234 720 55 463 b 355 -27 55 44 199 -27 b 640 79 512 -27 601 39 b 840 -27 668 -9 762 -27 b 1381 133 1124 -27 1334 91 z m 994 65 b 584 -254 802 8 584 -132 b 764 -368 584 -320 646 -368 b 1044 -280 924 -368 1044 -326 b 1015 -254 1044 -262 1031 -254 b 945 -260 1000 -254 981 -260 b 842 -181 886 -260 842 -237 b 994 14 842 -102 928 -18 z "},"į":{"ha":696,"x_min":0,"x_max":0,"o":""},"ų":{"ha":1275,"x_min":0,"x_max":0,"o":"m 1367 120 b 1407 170 1391 135 1407 149 b 1381 193 1407 188 1394 193 b 1352 183 1372 193 1361 188 b 1101 109 1294 151 1161 109 b 1053 160 1065 109 1053 128 b 1221 679 1053 281 1221 597 b 1196 705 1221 690 1205 705 b 854 697 1120 705 1027 697 b 819 672 848 697 822 695 b 648 157 789 484 692 313 b 555 146 620 151 593 146 b 465 222 505 146 465 171 b 616 671 465 347 616 600 b 581 705 616 686 607 705 b 275 698 507 705 345 698 b 208 642 215 698 208 682 b 68 136 208 552 68 302 b 268 -27 68 5 162 -27 b 629 65 403 -27 538 28 b 827 -27 648 -15 761 -27 b 1367 120 1065 -27 1293 75 z m 918 65 b 508 -254 726 8 508 -132 b 688 -368 508 -320 570 -368 b 968 -280 848 -368 968 -326 b 939 -254 968 -262 955 -254 b 869 -260 924 -254 905 -260 b 766 -181 810 -260 766 -237 b 918 14 766 -102 852 -18 z "},"ș":{"ha":1040,"x_min":0,"x_max":0,"o":"m 492 -26 b 1149 131 807 -26 1075 79 b 1172 168 1164 140 1172 151 b 1147 193 1172 184 1160 193 b 1118 184 1137 193 1128 190 b 855 101 1069 158 969 123 b 895 222 880 134 895 173 b 543 532 895 399 543 436 b 644 601 543 586 604 601 b 901 440 747 601 826 530 b 916 433 905 435 911 433 b 1031 638 965 433 1031 587 b 1021 670 1031 655 1029 665 b 665 720 962 706 781 720 b 98 445 475 720 98 660 b 425 149 98 260 425 267 b 347 84 425 109 393 84 b 84 199 188 84 131 199 b -23 104 55 199 -23 121 b -15 70 -23 92 -23 82 b 442 -27 19 18 236 -27 b 492 -26 459 -27 475 -27 z m 477 -274 b 290 -338 417 -311 366 -317 b 241 -380 263 -345 241 -356 b 298 -407 241 -400 265 -407 b 679 -201 496 -407 679 -344 b 494 -74 679 -100 571 -74 b 211 -197 328 -74 211 -129 b 392 -281 211 -256 281 -281 b 477 -274 427 -281 454 -280 z "},"ņ":{"ha":1275,"x_min":0,"x_max":0,"o":"m 1376 125 b 1407 170 1400 142 1407 157 b 1381 193 1407 186 1395 193 b 1343 184 1369 193 1359 191 b 1104 114 1285 160 1152 114 b 1054 170 1069 114 1054 140 b 1180 562 1054 240 1180 433 b 1002 720 1180 675 1082 720 b 610 620 873 720 701 659 b 617 671 614 642 617 660 b 582 705 617 686 608 705 b 260 698 503 705 334 698 b 195 664 216 698 195 684 b 195 638 195 655 195 647 b 10 13 195 436 10 68 b 36 -14 10 1 26 -14 b 385 -6 111 -14 213 -6 b 421 19 392 -6 414 -3 b 588 535 460 142 544 380 b 685 546 618 541 654 546 b 779 486 736 546 779 532 b 643 65 779 396 643 163 b 844 -27 643 -24 787 -27 b 1376 125 1090 -27 1335 96 z m 543 -274 b 355 -338 482 -311 431 -317 b 306 -380 328 -345 306 -356 b 363 -407 306 -400 330 -407 b 744 -201 561 -407 744 -344 b 559 -74 744 -100 636 -74 b 276 -197 393 -74 276 -129 b 457 -281 276 -256 347 -281 b 543 -274 492 -281 519 -280 z "},"ļ":{"ha":694,"x_min":0,"x_max":0,"o":"m 792 130 b 825 172 821 151 825 159 b 804 193 825 186 815 193 b 765 186 795 193 777 191 b 515 111 686 151 579 111 b 469 161 478 111 469 131 b 728 972 469 266 728 854 b 693 1006 728 987 719 1006 b 361 999 612 1006 437 999 b 295 965 316 999 295 985 b 296 939 295 956 296 948 b 45 95 296 741 45 191 b 276 -27 45 -5 137 -27 b 792 130 503 -27 743 95 z m 278 -274 b 91 -338 218 -311 166 -317 b 41 -380 64 -345 41 -356 b 99 -407 41 -400 66 -407 b 479 -201 296 -407 479 -344 b 294 -74 479 -100 372 -74 b 12 -197 129 -74 12 -129 b 193 -281 12 -256 82 -281 b 278 -274 227 -281 255 -280 z "},"ţ":{"ha":812,"x_min":0,"x_max":0,"o":"m 911 127 b 943 170 937 144 943 156 b 922 193 943 183 935 193 b 883 184 909 193 896 189 b 537 119 786 143 661 119 b 477 168 503 119 477 131 b 641 599 477 231 573 422 b 854 625 733 608 822 618 b 903 673 883 631 903 647 b 852 713 903 705 878 713 b 674 690 837 713 764 701 b 708 852 694 752 708 808 b 673 886 708 867 699 886 b 330 821 596 886 408 831 b 253 780 286 815 253 800 b 254 754 253 771 254 763 b 245 657 254 722 250 689 b 165 648 215 654 188 651 b 128 605 142 644 128 627 b 168 572 128 582 149 572 b 227 574 176 572 199 573 b 42 86 170 369 42 176 b 240 -27 42 17 110 -27 b 911 127 456 -27 773 36 z m 278 -274 b 91 -338 218 -311 166 -317 b 41 -380 64 -345 41 -356 b 99 -407 41 -400 66 -407 b 479 -201 296 -407 479 -344 b 294 -74 479 -100 372 -74 b 12 -197 129 -74 12 -129 b 193 -281 12 -256 82 -281 b 278 -274 227 -281 255 -280 z "},"ģ":{"ha":1273,"x_min":0,"x_max":0,"o":"m 19 -231 b 337 -353 19 -321 155 -353 b 996 -81 603 -353 930 -302 l 1015 -21 b 1380 134 1190 28 1310 81 b 1404 170 1398 146 1404 157 b 1377 193 1404 184 1392 193 b 1335 181 1364 193 1350 189 b 1043 71 1231 132 1164 103 b 1225 618 1152 411 1225 570 b 1111 700 1225 669 1175 700 b 842 652 1054 700 926 677 b 595 720 793 690 718 720 b 55 254 293 720 55 525 b 349 8 55 66 199 8 b 689 123 465 8 592 51 b 645 -4 674 79 659 36 b 19 -231 430 -33 19 -113 z m 435 269 b 713 583 435 418 579 583 b 795 502 775 583 795 551 b 755 340 795 453 777 390 b 534 165 683 174 589 165 b 435 269 475 165 435 203 z m 585 -172 b 404 -277 557 -252 480 -277 b 314 -219 353 -277 314 -255 b 617 -81 314 -143 486 -102 z m 412 983 b 600 1047 473 1021 524 1027 b 649 1090 627 1055 649 1065 b 591 1116 649 1109 625 1116 b 211 911 394 1116 211 1053 b 396 783 211 809 319 783 b 679 907 562 783 679 838 b 498 991 679 965 608 991 b 412 983 463 991 435 989 z "},"ű":{"ha":1275,"x_min":0,"x_max":0,"o":""},"ő":{"ha":1158,"x_min":0,"x_max":0,"o":"m 498 -27 b 1090 374 846 -27 1062 151 b 1166 369 1116 370 1142 369 b 1373 426 1251 369 1309 381 b 1406 473 1390 437 1406 455 b 1380 498 1406 490 1395 498 b 1348 489 1368 498 1358 494 b 1190 453 1291 460 1253 453 b 1090 469 1158 453 1124 458 b 663 720 1065 671 862 720 b 43 278 342 720 43 557 b 498 -27 43 65 230 -27 z m 416 218 b 655 605 416 410 532 605 b 724 503 714 605 724 549 b 508 93 724 316 629 93 b 416 218 432 93 416 156 z m 801 1166 b 490 821 613 1062 490 868 b 513 795 490 804 503 795 b 564 808 522 795 543 797 b 873 1013 700 880 759 943 b 951 1108 929 1048 951 1081 b 851 1179 951 1150 900 1179 b 801 1166 833 1179 816 1175 z m 1173 1153 b 848 821 985 1048 848 868 b 871 795 848 804 861 795 b 921 808 879 795 901 797 b 1265 1000 1057 880 1144 940 b 1338 1080 1318 1026 1338 1055 b 1218 1163 1338 1126 1274 1163 b 1173 1153 1201 1163 1185 1160 z "},"ķ":{"ha":1156,"x_min":0,"x_max":0,"o":"m 1258 122 b 1287 166 1282 139 1287 152 b 1259 193 1287 184 1272 193 b 1223 180 1250 193 1238 188 b 1030 110 1179 155 1078 110 b 987 155 997 110 987 126 b 1004 258 987 191 1004 224 b 832 366 1004 331 945 366 b 664 351 774 366 705 357 b 1158 673 869 394 1158 503 b 1122 707 1158 688 1148 707 b 857 700 1081 707 905 700 b 791 666 812 700 791 686 b 792 640 791 657 792 649 b 530 395 792 543 699 439 b 700 975 582 535 700 888 b 665 1006 700 989 687 1006 b 354 1004 590 1006 418 1004 b 288 970 309 1004 288 991 b 289 951 288 964 289 958 b 9 13 289 729 9 74 b 35 -14 9 1 25 -14 b 384 -6 110 -14 212 -6 b 420 19 398 -6 418 0 b 507 331 423 73 441 151 b 614 231 584 324 614 285 b 586 68 614 171 586 121 b 758 -27 586 1 630 -27 b 1258 122 917 -27 1121 26 z m 484 -274 b 296 -338 423 -311 372 -317 b 247 -380 269 -345 247 -356 b 304 -407 247 -400 271 -407 b 685 -201 502 -407 685 -344 b 500 -74 685 -100 577 -74 b 217 -197 334 -74 217 -129 b 398 -281 217 -256 288 -281 b 484 -274 433 -281 460 -280 z "},"ř":{"ha":926,"x_min":0,"x_max":0,"o":""},"ŗ":{"ha":926,"x_min":0,"x_max":0,"o":"m 617 671 b 582 705 617 686 608 705 b 260 698 503 705 334 698 b 195 664 216 698 195 684 b 195 638 195 655 195 647 b 10 -1 195 436 10 55 b 36 -27 10 -12 26 -27 b 385 -6 111 -27 213 -6 b 421 19 391 -6 414 -3 b 571 489 460 142 526 334 b 636 494 595 494 617 494 b 815 433 722 494 778 461 b 854 420 829 423 841 420 b 891 431 870 420 881 423 b 991 665 928 460 991 586 b 872 720 991 703 935 720 b 591 560 773 720 654 636 b 617 671 597 589 617 661 z m 220 -274 b 33 -338 159 -311 108 -317 b -17 -380 5 -345 -17 -356 b 41 -407 -17 -400 7 -407 b 421 -201 238 -407 421 -344 b 236 -74 421 -100 313 -74 b -47 -197 71 -74 -47 -129 b 134 -281 -47 -256 24 -281 b 220 -274 169 -281 197 -280 z "},"¸":{"ha":833,"x_min":0,"x_max":0,"o":"m 521 -76 b 429 -87 488 -76 458 -81 l 467 44 l 418 68 b 314 -132 360 12 314 -99 b 413 -168 314 -163 352 -168 b 490 -227 465 -168 490 -195 b 413 -292 490 -267 462 -292 b 218 -233 353 -292 262 -258 b 182 -220 203 -224 193 -220 b 146 -256 161 -220 146 -234 b 216 -338 146 -290 172 -313 b 474 -407 295 -385 372 -407 b 687 -229 585 -407 687 -349 b 521 -76 687 -132 621 -76 z "},"ç":{"ha":1042,"x_min":0,"x_max":0,"o":""},"ħ":{"ha":1275,"x_min":0,"x_max":0,"o":"m 151 810 b 100 732 125 806 100 777 b 140 670 100 682 123 670 b 453 736 217 683 356 720 b 774 776 555 753 693 762 b 825 853 802 781 825 809 b 793 917 825 897 810 917 b 478 851 720 905 572 867 b 151 810 393 837 219 822 z m 1345 182 b 1106 114 1295 157 1198 114 b 1053 170 1075 114 1053 130 b 1179 562 1053 238 1179 438 b 1000 720 1179 675 1081 720 b 610 620 872 720 701 659 b 700 975 655 757 700 930 b 665 1006 700 989 687 1006 b 354 1004 590 1006 418 1004 b 288 970 309 1004 288 991 b 289 951 288 964 289 958 b 9 13 289 729 9 74 b 35 -14 9 1 25 -14 b 384 -6 110 -14 212 -6 b 420 19 391 -6 414 -1 b 581 534 435 75 505 315 b 684 550 612 544 650 550 b 778 486 735 550 778 532 b 642 65 778 396 642 163 b 840 -27 642 -20 772 -27 b 1373 123 1090 -27 1315 86 b 1407 168 1396 137 1407 151 b 1383 193 1407 183 1394 193 b 1345 182 1367 193 1357 189 z "},"ŀ":{"ha":990,"x_min":0,"x_max":0,"o":"m 792 130 b 825 172 821 151 825 159 b 804 193 825 186 815 193 b 765 186 795 193 777 191 b 515 111 686 151 579 111 b 469 161 478 111 469 131 b 728 972 469 266 728 854 b 693 1006 728 987 719 1006 b 361 999 612 1006 437 999 b 295 965 316 999 295 985 b 296 939 295 956 296 948 b 45 95 296 741 45 191 b 276 -27 45 -5 137 -27 b 792 130 503 -27 743 95 z m 822 353 b 1063 519 945 353 1063 429 b 902 640 1063 587 998 640 b 660 471 781 640 660 564 b 822 353 660 404 727 353 z "},"ł":{"ha":694,"x_min":0,"x_max":0,"o":"m 905 1177 b 956 1257 928 1200 956 1233 b 909 1291 956 1279 935 1291 b 754 1250 861 1291 816 1250 b 465 1308 671 1250 578 1308 b 261 1220 386 1308 324 1268 b 210 1140 235 1200 210 1165 b 257 1107 210 1118 229 1107 b 452 1153 305 1107 369 1153 b 737 1095 534 1153 625 1095 b 905 1177 805 1095 859 1132 z m 792 130 b 825 172 821 151 825 159 b 804 193 825 186 815 193 b 765 186 795 193 777 191 b 515 111 686 151 579 111 b 469 161 478 111 469 131 b 728 972 469 266 728 854 b 693 1006 728 987 719 1006 b 361 999 612 1006 437 999 b 295 965 316 999 295 985 b 296 939 295 956 296 948 b 45 95 296 741 45 191 b 276 -27 45 -5 137 -27 b 792 130 503 -27 743 95 z "},"ď":{"ha":1329,"x_min":0,"x_max":0,"o":"m 1292 564 b 1330 530 1292 539 1310 530 b 1532 905 1404 530 1532 797 b 1463 980 1532 964 1499 980 b 1357 857 1379 980 1369 924 b 1292 564 1329 693 1292 610 z m 355 -27 b 646 79 512 -27 608 39 b 860 -27 675 -5 754 -27 b 1376 125 1058 -27 1285 58 b 1404 165 1394 138 1404 148 b 1374 193 1404 184 1391 193 b 1351 186 1366 193 1356 189 b 1115 108 1277 149 1164 108 b 1074 163 1083 108 1074 128 b 1297 960 1074 233 1297 798 b 1262 992 1297 975 1285 992 b 958 1006 1177 992 1023 1006 b 892 972 913 1006 892 993 b 893 953 892 966 893 960 b 855 637 893 886 870 732 b 581 720 803 677 723 720 b 55 235 234 720 55 463 b 355 -27 55 44 199 -27 z m 435 256 b 714 587 435 405 576 587 b 795 506 776 587 795 555 b 747 340 795 457 772 390 b 534 145 674 174 589 145 b 435 256 475 145 435 190 z "},"ľ":{"ha":754,"x_min":0,"x_max":0,"o":"m 718 564 b 755 530 718 539 735 530 b 958 905 830 530 958 797 b 888 980 958 964 925 980 b 783 857 804 980 794 924 b 718 564 755 693 718 610 z m 792 130 b 825 172 821 151 825 159 b 804 193 825 186 815 193 b 765 186 795 193 777 191 b 515 111 686 151 579 111 b 469 161 478 111 469 131 b 728 972 469 266 728 854 b 693 1006 728 987 719 1006 b 361 999 612 1006 437 999 b 295 965 316 999 295 985 b 296 939 295 956 296 948 b 45 95 296 741 45 191 b 276 -27 45 -5 137 -27 b 792 130 503 -27 743 95 z "},"ť":{"ha":867,"x_min":0,"x_max":0,"o":"m 877 127 b 909 170 903 144 909 156 b 888 193 909 183 901 193 b 849 184 876 193 862 189 b 537 119 752 149 661 119 b 477 168 503 119 477 131 b 640 595 477 230 572 420 b 747 610 684 599 723 604 b 795 659 776 618 795 633 b 743 699 795 691 769 699 b 674 690 732 699 709 694 b 708 852 694 752 708 808 b 673 886 708 867 699 886 b 330 821 596 886 408 831 b 253 780 286 815 253 800 b 254 754 253 771 254 763 b 245 657 254 722 250 689 b 165 648 215 654 188 651 b 128 605 142 644 128 627 b 168 572 128 582 149 572 b 227 574 176 572 199 573 b 42 86 170 369 42 176 b 240 -27 42 17 110 -27 b 877 127 456 -27 739 36 z m 831 564 b 869 530 831 539 848 530 b 1071 905 943 530 1071 797 b 1002 980 1071 964 1038 980 b 896 857 918 980 907 924 b 831 564 868 693 831 610 z "},"đ":{"ha":1273,"x_min":0,"x_max":0,"o":"m 783 909 b 770 911 779 911 775 911 b 693 821 741 911 693 874 b 713 787 693 802 703 792 b 1025 713 789 766 930 740 b 1333 611 1125 685 1253 634 b 1345 610 1337 610 1341 610 b 1423 704 1376 610 1423 650 b 1409 731 1423 718 1418 727 b 1097 806 1339 751 1189 781 b 783 909 1013 830 850 891 z m 355 -27 b 646 79 512 -27 608 39 b 860 -27 675 -5 754 -27 b 1376 125 1058 -27 1285 58 b 1404 165 1394 138 1404 148 b 1374 193 1404 184 1391 193 b 1351 186 1366 193 1356 189 b 1115 108 1277 149 1164 108 b 1074 163 1083 108 1074 128 b 1297 960 1074 233 1297 798 b 1262 992 1297 975 1285 992 b 958 1006 1177 992 1023 1006 b 892 972 913 1006 892 993 b 893 953 892 966 893 960 b 855 637 893 886 870 732 b 581 720 803 677 723 720 b 55 235 234 720 55 463 b 355 -27 55 44 199 -27 z m 435 256 b 714 587 435 405 576 587 b 795 506 776 587 795 555 b 747 340 795 457 772 390 b 534 145 674 174 589 145 b 435 256 475 145 435 190 z "},"ŧ":{"ha":812,"x_min":0,"x_max":0,"o":"m 427 468 b 73 435 290 456 154 447 b 36 392 50 431 36 414 b 76 359 36 369 56 359 b 329 374 98 359 220 366 l 325 368 b 762 412 428 373 701 399 b 810 460 791 418 810 434 b 760 500 810 492 786 500 b 425 465 736 500 570 469 z m 911 127 b 943 170 937 144 943 156 b 922 193 943 183 935 193 b 883 184 909 193 896 189 b 537 119 786 143 661 119 b 477 168 503 119 477 131 b 641 599 477 231 573 422 b 854 625 733 608 822 618 b 903 673 883 631 903 647 b 852 713 903 705 878 713 b 674 690 837 713 764 701 b 708 852 694 752 708 808 b 673 886 708 867 699 886 b 330 821 596 886 408 831 b 253 780 286 815 253 800 b 254 754 253 771 254 763 b 245 657 254 722 250 689 b 165 648 215 654 188 651 b 128 605 142 644 128 627 b 168 572 128 582 149 572 b 227 574 176 572 199 573 b 42 86 170 369 42 176 b 240 -27 42 17 110 -27 b 911 127 456 -27 773 36 z "},"§":{"ha":1328,"x_min":0,"x_max":0,"o":"m 26 2 b 483 -95 60 -50 277 -95 b 868 125 689 -95 868 -31 b 831 229 868 165 854 199 b 907 228 857 228 882 228 b 1251 427 1156 228 1251 310 b 890 786 1251 595 890 677 b 991 855 890 840 950 855 b 1207 722 1070 855 1132 812 b 1222 714 1211 717 1217 714 b 1310 899 1271 714 1310 848 b 1299 931 1310 916 1308 926 b 1012 974 1241 967 1128 974 b 513 699 822 974 513 914 b 524 645 513 679 517 661 b 139 377 345 624 139 552 b 465 81 139 192 465 199 b 388 16 465 41 434 16 b 125 132 229 16 172 132 b 18 37 96 132 18 54 b 26 2 18 24 18 14 z m 839 404 b 762 338 839 363 808 338 b 638 365 711 338 671 349 l 636 364 b 516 464 570 397 516 427 b 617 533 516 518 576 533 b 680 524 639 533 660 530 b 839 404 760 488 839 461 z "},"$":{"ha":1273,"x_min":0,"x_max":0,"o":"m 1124 740 b 1145 730 1131 732 1137 730 b 1286 965 1197 730 1286 910 b 1265 1002 1286 985 1281 995 b 991 1061 1190 1034 1093 1053 l 994 1072 b 1012 1160 1001 1100 1012 1133 b 975 1203 1012 1185 1000 1203 b 922 1162 955 1203 935 1190 b 886 1067 913 1146 901 1113 b 822 1069 865 1068 843 1069 b 729 1065 790 1069 760 1067 l 731 1072 b 749 1160 739 1100 749 1133 b 712 1203 749 1185 738 1203 b 659 1162 692 1203 673 1190 b 618 1048 649 1144 635 1103 b 222 685 386 999 222 865 b 443 379 222 570 334 468 b 389 146 423 297 405 217 b 161 281 279 199 195 281 b 55 80 127 281 55 118 b 72 53 55 67 61 58 b 354 -11 107 34 220 6 b 331 -142 339 -80 331 -128 b 364 -184 331 -164 340 -184 b 401 -143 385 -184 395 -167 b 435 -20 406 -127 418 -82 b 588 -27 486 -24 537 -27 l 613 -27 b 593 -142 600 -87 593 -129 b 627 -184 593 -164 602 -184 b 664 -143 647 -184 657 -167 l 697 -24 b 1122 250 932 -7 1122 65 b 863 583 1122 392 986 492 b 945 890 893 694 922 801 b 1124 740 1016 849 1082 786 z m 667 811 b 669 839 667 821 668 830 l 674 855 b 812 935 694 908 749 935 b 846 931 823 935 835 934 b 772 652 823 849 798 753 b 667 811 711 703 667 754 z m 526 312 b 653 163 597 255 653 205 b 559 102 653 118 597 102 b 472 114 530 102 500 106 z "},"¢":{"ha":1183,"x_min":0,"x_max":0,"o":"m 732 809 b 698 719 722 791 711 760 b 96 259 384 707 96 534 b 518 -26 96 94 218 -19 b 497 -151 505 -92 497 -138 b 530 -193 497 -172 506 -193 b 568 -151 551 -193 561 -175 l 602 -26 b 942 16 811 -24 902 -8 b 996 258 972 35 996 244 b 970 283 996 273 983 283 b 943 273 960 283 952 281 b 631 79 842 187 726 88 b 770 591 674 235 729 436 b 982 441 849 571 926 518 b 1002 429 988 433 994 429 b 1080 642 1028 429 1080 540 b 1059 669 1080 656 1074 662 b 804 718 1002 693 927 713 b 822 806 811 747 822 779 b 785 850 822 832 810 850 b 732 809 765 850 745 836 z m 481 272 b 663 598 481 396 534 571 b 545 104 623 450 578 258 b 481 272 503 139 481 205 z "},"£":{"ha":1273,"x_min":0,"x_max":0,"o":"m 115 533 b 55 448 85 532 55 499 b 88 395 55 408 71 395 b 234 403 125 395 177 399 b 150 148 217 301 195 210 b 40 34 110 92 40 82 b 107 -12 40 5 63 -12 b 310 1 189 -12 210 1 b 888 -14 462 1 711 -14 b 1139 193 1048 -14 1107 54 b 1162 365 1160 281 1162 311 b 1116 411 1162 395 1139 411 b 1063 391 1095 411 1076 404 b 416 88 878 197 760 99 b 592 319 498 123 553 205 b 625 428 604 354 614 391 b 842 427 692 427 794 427 b 940 516 894 427 940 435 b 913 568 940 550 930 568 b 656 547 838 562 747 554 b 851 952 709 754 753 952 b 1069 754 921 952 972 885 b 1084 747 1072 749 1078 747 b 1199 977 1133 747 1199 926 b 1188 1009 1199 994 1196 1004 b 867 1069 1130 1045 983 1069 b 295 747 677 1069 379 1064 b 254 535 277 678 265 606 l 197 535 b 115 533 169 535 142 534 z "},"€":{"ha":1273,"x_min":0,"x_max":0,"o":"m 113 393 b 49 326 83 393 49 380 b 79 284 49 291 63 284 b 221 290 114 284 165 287 b 709 -27 262 94 448 -27 b 1219 176 937 -27 1219 86 b 1183 199 1219 193 1204 199 b 871 141 1126 199 1047 141 b 644 290 746 141 675 201 b 831 284 720 287 792 284 b 896 354 863 284 896 297 b 872 393 896 383 888 393 b 627 385 828 393 724 389 b 627 407 627 392 627 399 b 632 481 627 431 629 456 b 884 473 729 477 833 473 b 948 543 916 473 948 486 b 924 582 948 572 940 582 b 652 572 876 582 756 576 b 1006 985 717 787 886 985 b 1092 933 1051 985 1092 978 b 1011 702 1092 870 1011 741 b 1142 619 1011 663 1078 619 b 1352 810 1280 619 1352 689 b 996 1069 1352 947 1231 1069 b 252 579 713 1069 367 870 b 165 582 216 581 185 582 b 101 514 135 582 101 569 b 132 473 101 479 115 473 b 221 475 155 473 186 473 b 212 390 216 448 213 419 b 113 393 172 392 136 393 z "},"¥":{"ha":1389,"x_min":0,"x_max":0,"o":"m 332 429 b 267 361 301 429 267 416 b 298 319 267 326 281 319 b 473 327 339 319 405 323 b 447 233 465 296 456 264 b 279 240 379 237 314 240 b 215 172 249 240 215 227 b 245 131 215 138 229 131 b 421 138 287 131 353 134 b 406 46 412 102 406 71 b 505 -12 406 -9 456 -12 b 757 -8 605 -12 678 -8 b 828 37 785 -8 828 7 b 825 74 828 51 825 62 b 828 136 825 94 826 115 b 998 131 897 133 961 131 b 1062 201 1029 131 1062 144 b 1038 240 1062 230 1054 240 b 841 233 1002 240 922 237 b 861 326 847 264 854 295 b 1050 319 937 322 1010 319 b 1114 389 1082 319 1114 332 b 1090 429 1114 418 1106 429 b 929 423 1059 429 997 426 b 1402 970 1071 581 1402 791 b 1339 1035 1402 1008 1386 1035 b 1070 1029 1318 1035 1141 1029 b 1012 985 1036 1029 1021 1019 b 829 515 967 812 920 686 b 730 968 808 675 753 890 b 606 1042 715 1016 681 1042 b 199 906 317 1042 199 966 b 245 867 199 888 216 872 b 328 809 294 859 311 840 b 477 422 355 757 429 593 b 332 429 418 426 362 429 z "},"’":{"ha":555,"x_min":0,"x_max":0,"o":"m 209 625 b 243 595 209 608 221 595 b 363 663 276 595 324 626 b 588 1032 488 782 588 907 b 460 1158 588 1109 549 1158 b 281 994 374 1158 281 1074 b 338 857 281 947 338 905 b 209 625 338 799 209 665 z "},"‘":{"ha":555,"x_min":0,"x_max":0,"o":"m 568 1158 b 456 1094 532 1158 498 1131 b 246 726 330 984 246 842 b 371 595 246 650 284 595 b 541 732 455 595 519 665 b 545 756 543 741 545 749 b 476 893 545 814 476 844 b 602 1128 476 952 602 1088 b 568 1158 602 1147 584 1158 z "},"“":{"ha":965,"x_min":0,"x_max":0,"o":"m 568 1158 b 456 1094 532 1158 498 1131 b 246 726 330 984 246 842 b 371 595 246 650 284 595 b 541 732 455 595 519 665 b 545 756 543 741 545 749 b 476 893 545 814 476 844 b 602 1128 476 952 602 1088 b 568 1158 602 1147 584 1158 z m 955 1158 b 843 1094 918 1158 885 1131 b 633 726 717 984 633 842 b 758 595 633 650 671 595 b 927 732 842 595 905 665 b 931 756 930 741 931 749 b 863 893 931 814 863 844 b 988 1128 863 952 988 1088 b 955 1158 988 1147 970 1158 z "},"”":{"ha":965,"x_min":0,"x_max":0,"o":"m 209 625 b 243 595 209 608 221 595 b 363 663 276 595 324 626 b 588 1032 488 782 588 907 b 460 1158 588 1109 549 1158 b 281 994 374 1158 281 1074 b 338 857 281 947 338 905 b 209 625 338 799 209 665 z m 616 625 b 650 595 616 608 628 595 b 770 663 683 595 731 626 b 995 1032 895 782 995 907 b 867 1158 995 1109 956 1158 b 688 994 781 1158 688 1074 b 745 857 688 947 745 905 b 616 625 745 799 616 665 z "},"‚":{"ha":555,"x_min":0,"x_max":0,"o":"m 24 -316 b 58 -346 24 -334 36 -346 b 178 -278 91 -346 139 -315 b 403 91 303 -159 403 -35 b 275 216 403 168 363 216 b 96 53 189 216 96 133 b 153 -84 96 6 153 -36 b 24 -316 153 -142 24 -276 z "},"„":{"ha":1033,"x_min":0,"x_max":0,"o":"m 61 -248 b 95 -278 61 -266 73 -278 b 216 -210 128 -278 176 -248 b 440 159 340 -92 440 33 b 313 284 440 235 401 284 b 134 121 227 284 134 201 b 191 -16 134 74 191 32 b 61 -248 191 -75 61 -208 z m 468 -248 b 502 -278 468 -266 480 -278 b 623 -210 535 -278 583 -248 b 847 159 747 -92 847 33 b 720 284 847 235 808 284 b 541 121 633 284 541 201 b 597 -16 541 74 597 32 b 468 -248 597 -75 468 -208 z "},"'":{"ha":555,"x_min":0,"x_max":0,"o":"m 549 1115 b 475 1187 549 1168 515 1187 b 329 1090 414 1187 342 1165 b 320 966 321 1049 322 1007 b 295 666 315 867 295 739 b 340 602 295 634 306 602 b 401 654 366 602 381 621 b 549 1115 473 769 549 979 z "},"\"":{"ha":901,"x_min":0,"x_max":0,"o":"m 549 1115 b 475 1187 549 1168 515 1187 b 329 1090 414 1187 342 1165 b 320 966 321 1049 322 1007 b 295 666 315 867 295 739 b 340 602 295 634 306 602 b 401 654 366 602 381 621 b 549 1115 473 769 549 979 z m 888 1115 b 814 1187 888 1168 854 1187 b 668 1090 753 1187 682 1165 b 659 966 661 1049 661 1007 b 634 666 654 867 634 739 b 680 602 634 634 645 602 b 741 654 705 602 720 621 b 888 1115 812 769 888 979 z "},"ø":{"ha":1158,"x_min":0,"x_max":0,"o":"m 189 187 b -28 60 118 142 27 96 b -53 8 -43 50 -53 31 b 4 -77 -53 -26 -23 -77 b 18 -73 9 -77 14 -75 b 222 78 83 -30 140 24 z m 921 517 b 1141 646 1008 574 1072 601 b 1166 697 1156 656 1166 675 b 1111 786 1166 728 1136 786 b 1101 783 1107 786 1104 785 b 897 632 1039 743 977 685 l 888 627 z m 498 -27 b 1090 374 846 -27 1062 151 b 1166 369 1116 370 1142 369 b 1373 426 1251 369 1309 381 b 1406 473 1390 437 1406 455 b 1380 498 1406 490 1395 498 b 1348 489 1368 498 1358 494 b 1190 453 1291 460 1253 453 b 1090 469 1158 453 1124 458 b 663 720 1065 671 862 720 b 43 278 342 720 43 557 b 498 -27 43 65 230 -27 z m 416 218 b 655 605 416 410 532 605 b 724 503 714 605 724 549 b 508 93 724 316 629 93 b 416 218 432 93 416 156 z "},"À":{"ha":1275,"x_min":0,"x_max":0,"o":"m 802 -27 b 1187 48 1047 -27 1149 22 b 1215 99 1206 62 1215 79 b 1153 123 1215 128 1185 120 b 1080 194 1097 127 1080 149 b 1199 801 1080 313 1199 604 b 850 1069 1199 995 1076 1069 b 349 915 568 1069 349 951 b 376 895 349 901 359 895 b 635 922 433 895 496 922 b 792 819 728 922 792 897 b 576 123 792 663 576 262 b 802 -27 576 20 659 -27 z m 692 787 b 721 827 713 803 721 817 b 692 844 721 840 710 844 b -23 67 569 844 -23 385 b 115 -5 -23 15 1 -5 b 299 56 227 -5 299 4 b 288 104 299 69 294 85 b 280 168 283 122 280 146 b 335 358 280 225 301 291 b 606 409 441 364 549 380 b 629 440 616 414 629 423 b 581 468 629 467 597 468 b 408 464 517 468 463 464 l 398 464 b 692 787 492 604 619 734 z m 739 1390 b 610 1287 667 1390 610 1354 b 700 1190 610 1232 650 1195 b 1027 1127 833 1177 903 1165 b 1111 1109 1065 1116 1086 1109 b 1140 1135 1129 1109 1140 1120 b 739 1390 1140 1186 918 1390 z "},"Á":{"ha":1275,"x_min":0,"x_max":0,"o":"m 802 -27 b 1187 48 1047 -27 1149 22 b 1215 99 1206 62 1215 79 b 1153 123 1215 128 1185 120 b 1080 194 1097 127 1080 149 b 1199 801 1080 313 1199 604 b 850 1069 1199 995 1076 1069 b 349 915 568 1069 349 951 b 376 895 349 901 359 895 b 635 922 433 895 496 922 b 792 819 728 922 792 897 b 576 123 792 663 576 262 b 802 -27 576 20 659 -27 z m 692 787 b 721 827 713 803 721 817 b 692 844 721 840 710 844 b -23 67 569 844 -23 385 b 115 -5 -23 15 1 -5 b 299 56 227 -5 299 4 b 288 104 299 69 294 85 b 280 168 283 122 280 146 b 335 358 280 225 301 291 b 606 409 441 364 549 380 b 629 440 616 414 629 423 b 581 468 629 467 597 468 b 408 464 517 468 463 464 l 398 464 b 692 787 492 604 619 734 z m 1093 1365 b 766 1139 916 1299 766 1190 b 790 1113 766 1122 775 1113 b 840 1122 808 1113 822 1116 b 1280 1202 979 1164 1185 1189 b 1357 1279 1339 1210 1357 1250 b 1205 1390 1357 1337 1291 1390 b 1093 1365 1177 1390 1137 1382 z "},"Â":{"ha":1275,"x_min":0,"x_max":0,"o":"m 802 -27 b 1187 48 1047 -27 1149 22 b 1215 99 1206 62 1215 79 b 1153 123 1215 128 1185 120 b 1080 194 1097 127 1080 149 b 1199 801 1080 313 1199 604 b 850 1069 1199 995 1076 1069 b 349 915 568 1069 349 951 b 376 895 349 901 359 895 b 635 922 433 895 496 922 b 792 819 728 922 792 897 b 576 123 792 663 576 262 b 802 -27 576 20 659 -27 z m 692 787 b 721 827 713 803 721 817 b 692 844 721 840 710 844 b -23 67 569 844 -23 385 b 115 -5 -23 15 1 -5 b 299 56 227 -5 299 4 b 288 104 299 69 294 85 b 280 168 283 122 280 146 b 335 358 280 225 301 291 b 606 409 441 364 549 380 b 629 440 616 414 629 423 b 581 468 629 467 597 468 b 408 464 517 468 463 464 l 398 464 b 692 787 492 604 619 734 z m 1088 1350 b 997 1390 1066 1372 1042 1390 b 893 1361 947 1390 928 1383 b 611 1134 731 1259 611 1175 b 644 1103 611 1114 627 1103 b 714 1119 661 1103 686 1109 b 962 1208 841 1162 861 1170 b 1171 1112 1046 1163 1067 1154 b 1234 1099 1194 1103 1218 1099 b 1268 1127 1251 1099 1268 1106 b 1088 1350 1268 1164 1194 1245 z "},"Ä":{"ha":1275,"x_min":0,"x_max":0,"o":"m 802 -27 b 1187 48 1047 -27 1149 22 b 1215 99 1206 62 1215 79 b 1153 123 1215 128 1185 120 b 1080 194 1097 127 1080 149 b 1199 801 1080 313 1199 604 b 850 1069 1199 995 1076 1069 b 349 915 568 1069 349 951 b 376 895 349 901 359 895 b 635 922 433 895 496 922 b 792 819 728 922 792 897 b 576 123 792 663 576 262 b 802 -27 576 20 659 -27 z m 692 787 b 721 827 713 803 721 817 b 692 844 721 840 710 844 b -23 67 569 844 -23 385 b 115 -5 -23 15 1 -5 b 299 56 227 -5 299 4 b 288 104 299 69 294 85 b 280 168 283 122 280 146 b 335 358 280 225 301 291 b 606 409 441 364 549 380 b 629 440 616 414 629 423 b 581 468 629 467 597 468 b 408 464 517 468 463 464 l 398 464 b 692 787 492 604 619 734 z m 667 1113 b 903 1263 783 1113 903 1177 b 743 1370 903 1326 833 1370 b 507 1217 628 1370 507 1305 b 667 1113 507 1154 578 1113 z m 1169 1113 b 1404 1263 1285 1113 1404 1177 b 1244 1370 1404 1326 1335 1370 b 1009 1217 1130 1370 1009 1305 b 1169 1113 1009 1154 1080 1113 z "},"Å":{"ha":1275,"x_min":0,"x_max":0,"o":"m 802 -27 b 1187 48 1047 -27 1149 22 b 1215 99 1206 62 1215 79 b 1153 123 1215 128 1185 120 b 1080 194 1097 127 1080 149 b 1199 801 1080 313 1199 604 b 850 1069 1199 995 1076 1069 b 349 915 568 1069 349 951 b 376 895 349 901 359 895 b 635 922 433 895 496 922 b 792 819 728 922 792 897 b 576 123 792 663 576 262 b 802 -27 576 20 659 -27 z m 692 787 b 721 827 713 803 721 817 b 692 844 721 840 710 844 b -23 67 569 844 -23 385 b 115 -5 -23 15 1 -5 b 299 56 227 -5 299 4 b 288 104 299 69 294 85 b 280 168 283 122 280 146 b 335 358 280 225 301 291 b 606 409 441 364 549 380 b 629 440 616 414 629 423 b 581 468 629 467 597 468 b 408 464 517 468 463 464 l 398 464 b 692 787 492 604 619 734 z m 814 1197 b 966 1288 814 1263 897 1288 b 1058 1217 1019 1288 1058 1266 b 918 1126 1058 1151 985 1126 b 814 1197 865 1126 814 1145 z m 984 1383 b 646 1181 777 1383 646 1300 b 890 1041 646 1084 741 1041 b 1227 1238 1093 1041 1227 1126 b 984 1383 1227 1332 1141 1383 z "},"Ç":{"ha":1564,"x_min":0,"x_max":0,"o":""},"È":{"ha":1273,"x_min":0,"x_max":0,"o":"m 1189 161 b 1163 187 1189 178 1179 187 b 1142 184 1157 187 1149 186 b 793 125 1031 153 905 125 b 547 298 689 125 547 167 b 887 485 547 442 772 477 b 966 585 919 487 966 526 b 940 623 966 612 959 623 b 883 619 921 623 901 619 b 640 787 745 619 640 699 b 852 956 640 884 734 956 b 1080 789 956 956 1032 897 b 1150 730 1093 759 1120 730 b 1196 751 1173 730 1184 739 b 1319 956 1235 787 1319 905 b 1293 998 1319 978 1307 989 b 857 1069 1196 1056 1004 1069 b 256 766 559 1069 256 962 b 715 559 256 597 561 567 b 41 242 410 558 41 474 b 589 -27 41 51 280 -27 b 1189 161 845 -27 1189 62 z m 697 1390 b 568 1287 626 1390 568 1354 b 659 1190 568 1232 608 1195 b 986 1127 791 1177 861 1165 b 1069 1109 1024 1116 1044 1109 b 1099 1135 1088 1109 1099 1120 b 697 1390 1099 1186 876 1390 z "},"É":{"ha":1273,"x_min":0,"x_max":0,"o":"m 1189 161 b 1163 187 1189 178 1179 187 b 1142 184 1157 187 1149 186 b 793 125 1031 153 905 125 b 547 298 689 125 547 167 b 887 485 547 442 772 477 b 966 585 919 487 966 526 b 940 623 966 612 959 623 b 883 619 921 623 901 619 b 640 787 745 619 640 699 b 852 956 640 884 734 956 b 1080 789 956 956 1032 897 b 1150 730 1093 759 1120 730 b 1196 751 1173 730 1184 739 b 1319 956 1235 787 1319 905 b 1293 998 1319 978 1307 989 b 857 1069 1196 1056 1004 1069 b 256 766 559 1069 256 962 b 715 559 256 597 561 567 b 41 242 410 558 41 474 b 589 -27 41 51 280 -27 b 1189 161 845 -27 1189 62 z m 1051 1365 b 725 1139 875 1299 725 1190 b 749 1113 725 1122 734 1113 b 798 1122 766 1113 781 1116 b 1239 1202 938 1164 1144 1189 b 1316 1279 1298 1210 1316 1250 b 1164 1390 1316 1337 1250 1390 b 1051 1365 1135 1390 1096 1382 z "},"Ê":{"ha":1273,"x_min":0,"x_max":0,"o":"m 1189 161 b 1163 187 1189 178 1179 187 b 1142 184 1157 187 1149 186 b 793 125 1031 153 905 125 b 547 298 689 125 547 167 b 887 485 547 442 772 477 b 966 585 919 487 966 526 b 940 623 966 612 959 623 b 883 619 921 623 901 619 b 640 787 745 619 640 699 b 852 956 640 884 734 956 b 1080 789 956 956 1032 897 b 1150 730 1093 759 1120 730 b 1196 751 1173 730 1184 739 b 1319 956 1235 787 1319 905 b 1293 998 1319 978 1307 989 b 857 1069 1196 1056 1004 1069 b 256 766 559 1069 256 962 b 715 559 256 597 561 567 b 41 242 410 558 41 474 b 589 -27 41 51 280 -27 b 1189 161 845 -27 1189 62 z m 1046 1350 b 956 1390 1025 1372 1001 1390 b 852 1361 906 1390 887 1383 b 570 1134 690 1259 570 1175 b 602 1103 570 1114 585 1103 b 673 1119 620 1103 645 1109 b 921 1208 800 1162 820 1170 b 1129 1112 1005 1163 1026 1154 b 1192 1099 1152 1103 1177 1099 b 1227 1127 1210 1099 1227 1106 b 1046 1350 1227 1164 1153 1245 z "},"Ë":{"ha":1273,"x_min":0,"x_max":0,"o":"m 1189 161 b 1163 187 1189 178 1179 187 b 1142 184 1157 187 1149 186 b 793 125 1031 153 905 125 b 547 298 689 125 547 167 b 887 485 547 442 772 477 b 966 585 919 487 966 526 b 940 623 966 612 959 623 b 883 619 921 623 901 619 b 640 787 745 619 640 699 b 852 956 640 884 734 956 b 1080 789 956 956 1032 897 b 1150 730 1093 759 1120 730 b 1196 751 1173 730 1184 739 b 1319 956 1235 787 1319 905 b 1293 998 1319 978 1307 989 b 857 1069 1196 1056 1004 1069 b 256 766 559 1069 256 962 b 715 559 256 597 561 567 b 41 242 410 558 41 474 b 589 -27 41 51 280 -27 b 1189 161 845 -27 1189 62 z m 626 1113 b 861 1263 741 1113 861 1177 b 701 1370 861 1326 792 1370 b 466 1217 587 1370 466 1305 b 626 1113 466 1154 536 1113 z m 1128 1113 b 1363 1263 1244 1113 1363 1177 b 1203 1370 1363 1326 1294 1370 b 968 1217 1088 1370 968 1305 b 1128 1113 968 1154 1038 1113 z "},"Ì":{"ha":926,"x_min":0,"x_max":0,"o":"m 254 243 b 94 123 210 150 182 134 b 49 88 73 121 49 111 b 406 -14 49 35 218 -14 b 684 183 544 -14 639 41 b 902 896 783 492 902 762 b 730 1042 902 976 871 1042 b 151 666 477 1042 151 915 b 316 403 151 542 228 457 b 254 243 290 330 267 271 z m 439 828 b 345 486 439 786 393 629 b 292 655 315 533 292 587 b 402 865 292 812 375 865 b 439 828 426 865 439 849 z m 532 1390 b 404 1287 461 1390 404 1354 b 494 1190 404 1232 444 1195 b 821 1127 627 1177 696 1165 b 905 1109 859 1116 880 1109 b 934 1135 923 1109 934 1120 b 532 1390 934 1186 711 1390 z "},"Í":{"ha":926,"x_min":0,"x_max":0,"o":"m 254 243 b 94 123 210 150 182 134 b 49 88 73 121 49 111 b 406 -14 49 35 218 -14 b 684 183 544 -14 639 41 b 902 896 783 492 902 762 b 730 1042 902 976 871 1042 b 151 666 477 1042 151 915 b 316 403 151 542 228 457 b 254 243 290 330 267 271 z m 439 828 b 345 486 439 786 393 629 b 292 655 315 533 292 587 b 402 865 292 812 375 865 b 439 828 426 865 439 849 z m 886 1365 b 560 1139 710 1299 560 1190 b 584 1113 560 1122 569 1113 b 633 1122 602 1113 616 1116 b 1074 1202 773 1164 979 1189 b 1151 1279 1133 1210 1151 1250 b 999 1390 1151 1337 1085 1390 b 886 1365 970 1390 931 1382 z "},"Î":{"ha":926,"x_min":0,"x_max":0,"o":"m 254 243 b 94 123 210 150 182 134 b 49 88 73 121 49 111 b 406 -14 49 35 218 -14 b 684 183 544 -14 639 41 b 902 896 783 492 902 762 b 730 1042 902 976 871 1042 b 151 666 477 1042 151 915 b 316 403 151 542 228 457 b 254 243 290 330 267 271 z m 439 828 b 345 486 439 786 393 629 b 292 655 315 533 292 587 b 402 865 292 812 375 865 b 439 828 426 865 439 849 z m 882 1350 b 791 1390 860 1372 836 1390 b 687 1361 741 1390 722 1383 b 405 1134 525 1259 405 1175 b 437 1103 405 1114 420 1103 b 508 1119 455 1103 480 1109 b 756 1208 635 1162 655 1170 b 964 1112 840 1163 861 1154 b 1027 1099 987 1103 1012 1099 b 1062 1127 1045 1099 1062 1106 b 882 1350 1062 1164 988 1245 z "},"Ï":{"ha":926,"x_min":0,"x_max":0,"o":"m 254 243 b 94 123 210 150 182 134 b 49 88 73 121 49 111 b 406 -14 49 35 218 -14 b 684 183 544 -14 639 41 b 902 896 783 492 902 762 b 730 1042 902 976 871 1042 b 151 666 477 1042 151 915 b 316 403 151 542 228 457 b 254 243 290 330 267 271 z m 439 828 b 345 486 439 786 393 629 b 292 655 315 533 292 587 b 402 865 292 812 375 865 b 439 828 426 865 439 849 z m 461 1113 b 696 1263 576 1113 696 1177 b 536 1370 696 1326 627 1370 b 301 1217 422 1370 301 1305 b 461 1113 301 1154 372 1113 z m 963 1113 b 1198 1263 1079 1113 1198 1177 b 1038 1370 1198 1326 1129 1370 b 803 1217 924 1370 803 1305 b 963 1113 803 1154 873 1113 z "},"Ĳ":{"ha":1853,"x_min":0,"x_max":0,"o":"m 254 243 b 94 123 210 150 182 134 b 49 88 73 121 49 111 b 406 -14 49 35 218 -14 b 684 183 544 -14 639 41 b 902 896 783 492 902 762 b 730 1042 902 976 871 1042 b 151 666 477 1042 151 915 b 316 403 151 542 228 457 b 254 243 290 330 267 271 z m 439 828 b 345 486 439 786 393 629 b 292 655 315 533 292 587 b 402 865 292 812 375 865 b 439 828 426 865 439 849 z m 1642 1042 b 1112 840 1453 1042 1234 945 b 1089 801 1099 828 1089 815 b 1124 773 1089 782 1103 773 b 1183 787 1143 773 1165 779 b 1335 836 1241 812 1297 836 b 1367 795 1358 836 1367 824 b 1200 261 1367 715 1263 451 b 846 -159 1019 182 846 39 b 1069 -346 846 -288 948 -346 b 1582 125 1341 -346 1476 -197 b 1828 924 1668 385 1828 785 b 1642 1042 1828 1014 1775 1042 z m 1015 -249 b 979 -167 994 -249 979 -222 b 1169 163 979 -40 1078 85 b 1015 -249 1066 -162 1042 -249 z "},"Ã":{"ha":1275,"x_min":0,"x_max":0,"o":"m 802 -27 b 1187 48 1047 -27 1149 22 b 1215 99 1206 62 1215 79 b 1153 123 1215 128 1185 120 b 1080 194 1097 127 1080 149 b 1199 801 1080 313 1199 604 b 850 1069 1199 995 1076 1069 b 349 915 568 1069 349 951 b 376 895 349 901 359 895 b 635 922 433 895 496 922 b 792 819 728 922 792 897 b 576 123 792 663 576 262 b 802 -27 576 20 659 -27 z m 692 787 b 721 827 713 803 721 817 b 692 844 721 840 710 844 b -23 67 569 844 -23 385 b 115 -5 -23 15 1 -5 b 299 56 227 -5 299 4 b 288 104 299 69 294 85 b 280 168 283 122 280 146 b 335 358 280 225 301 291 b 606 409 441 364 549 380 b 629 440 616 414 629 423 b 581 468 629 467 597 468 b 408 464 517 468 463 464 l 398 464 b 692 787 492 604 619 734 z m 1292 1233 b 1343 1313 1314 1256 1343 1289 b 1296 1346 1343 1335 1322 1346 b 1132 1304 1255 1346 1172 1304 b 857 1373 1049 1304 969 1373 b 644 1270 789 1373 711 1343 b 593 1190 622 1246 593 1215 b 640 1156 593 1168 612 1156 b 804 1198 681 1156 764 1198 b 1078 1129 886 1198 966 1129 b 1292 1233 1146 1129 1224 1158 z "},"Ĩ":{"ha":926,"x_min":0,"x_max":0,"o":"m 254 243 b 94 123 210 150 182 134 b 49 88 73 121 49 111 b 406 -14 49 35 218 -14 b 684 183 544 -14 639 41 b 902 896 783 492 902 762 b 730 1042 902 976 871 1042 b 151 666 477 1042 151 915 b 316 403 151 542 228 457 b 254 243 290 330 267 271 z m 439 828 b 345 486 439 786 393 629 b 292 655 315 533 292 587 b 402 865 292 812 375 865 b 439 828 426 865 439 849 z m 1086 1233 b 1137 1313 1107 1256 1137 1289 b 1090 1346 1137 1335 1116 1346 b 926 1304 1048 1346 966 1304 b 650 1373 843 1304 763 1373 b 437 1270 583 1373 505 1343 b 387 1190 416 1246 387 1215 b 433 1156 387 1168 406 1156 b 597 1198 475 1156 557 1198 b 872 1129 680 1198 760 1129 b 1086 1233 940 1129 1018 1158 z "},"Ĵ":{"ha":926,"x_min":0,"x_max":0,"o":"m 715 1042 b 185 840 527 1042 307 945 b 163 801 172 828 163 815 b 198 773 163 782 176 773 b 256 787 216 773 239 779 b 408 836 315 812 370 836 b 441 795 432 836 441 824 b 274 261 441 715 336 451 b -80 -159 92 182 -80 39 b 143 -346 -80 -288 22 -346 b 656 125 415 -346 550 -197 b 902 924 741 385 902 785 b 715 1042 902 1014 848 1042 z m 88 -249 b 53 -167 67 -249 53 -222 b 243 163 53 -40 151 85 b 88 -249 140 -162 115 -249 z m 894 1350 b 803 1390 872 1372 848 1390 b 699 1361 753 1390 734 1383 b 417 1134 537 1259 417 1175 b 450 1103 417 1114 433 1103 b 520 1119 467 1103 492 1109 b 768 1208 647 1162 667 1170 b 977 1112 852 1163 873 1154 b 1040 1099 1000 1103 1024 1099 b 1074 1127 1057 1099 1074 1106 b 894 1350 1074 1164 1000 1245 z "},"Ń":{"ha":1504,"x_min":0,"x_max":0,"o":"m 620 1055 b 247 913 505 1055 338 986 b 191 837 219 890 191 863 b 221 816 191 819 204 816 b 301 832 246 816 277 832 b 337 770 323 832 337 819 b 94 108 337 663 136 285 b 87 46 90 90 87 66 b 186 -12 87 -9 138 -12 b 458 -8 286 -12 312 -8 b 530 37 487 -8 530 7 b 528 82 530 54 528 68 b 771 801 528 229 714 578 b 905 843 807 821 852 843 b 1008 778 954 843 1008 830 b 800 124 1008 637 800 328 b 1031 -27 800 20 897 -27 b 1394 93 1240 -27 1394 30 b 1326 133 1394 121 1357 127 b 1229 238 1274 142 1229 173 b 1451 902 1229 374 1451 736 b 1240 1069 1451 1013 1371 1069 b 785 876 1102 1069 968 1017 b 787 906 786 886 787 897 b 620 1055 787 1028 737 1055 z m 1131 1365 b 804 1139 954 1299 804 1190 b 828 1113 804 1122 813 1113 b 878 1122 846 1113 860 1116 b 1318 1202 1017 1164 1223 1189 b 1395 1279 1377 1210 1395 1250 b 1243 1390 1395 1337 1329 1390 b 1131 1365 1215 1390 1175 1382 z "},"Ñ":{"ha":1504,"x_min":0,"x_max":0,"o":"m 620 1055 b 247 913 505 1055 338 986 b 191 837 219 890 191 863 b 221 816 191 819 204 816 b 301 832 246 816 277 832 b 337 770 323 832 337 819 b 94 108 337 663 136 285 b 87 46 90 90 87 66 b 186 -12 87 -9 138 -12 b 458 -8 286 -12 312 -8 b 530 37 487 -8 530 7 b 528 82 530 54 528 68 b 771 801 528 229 714 578 b 905 843 807 821 852 843 b 1008 778 954 843 1008 830 b 800 124 1008 637 800 328 b 1031 -27 800 20 897 -27 b 1394 93 1240 -27 1394 30 b 1326 133 1394 121 1357 127 b 1229 238 1274 142 1229 173 b 1451 902 1229 374 1451 736 b 1240 1069 1451 1013 1371 1069 b 785 876 1102 1069 968 1017 b 787 906 786 886 787 897 b 620 1055 787 1028 737 1055 z m 1330 1233 b 1381 1313 1352 1256 1381 1289 b 1334 1346 1381 1335 1360 1346 b 1170 1304 1293 1346 1210 1304 b 895 1373 1087 1304 1007 1373 b 682 1270 827 1373 749 1343 b 631 1190 660 1246 631 1215 b 677 1156 631 1168 650 1156 b 842 1198 719 1156 802 1198 b 1116 1129 924 1198 1004 1129 b 1330 1233 1184 1129 1262 1158 z "},"Ù":{"ha":1508,"x_min":0,"x_max":0,"o":"m 791 130 b 983 -27 791 32 848 -27 b 1392 104 1112 -27 1392 26 b 1239 234 1392 157 1239 115 b 1449 882 1239 345 1341 639 b 1466 954 1459 905 1466 934 b 1367 1033 1466 1003 1414 1033 b 1154 1036 1333 1033 1225 1036 b 1054 960 1095 1036 1054 1016 b 801 216 1054 851 850 451 b 652 182 772 206 714 182 b 560 264 597 182 560 197 b 820 966 560 479 820 920 b 696 1042 820 1017 772 1042 b 226 906 408 1042 226 966 b 272 867 226 888 243 872 b 355 809 321 859 355 844 b 352 790 355 804 354 796 b 146 222 304 661 146 429 b 416 -27 146 27 277 -27 b 791 151 553 -27 708 58 b 791 130 791 143 791 136 z m 803 1390 b 674 1287 732 1390 674 1354 b 764 1190 674 1232 714 1195 b 1092 1127 897 1177 967 1165 b 1175 1109 1130 1116 1150 1109 b 1204 1135 1194 1109 1204 1120 b 803 1390 1204 1186 982 1390 z "},"Ú":{"ha":1508,"x_min":0,"x_max":0,"o":"m 791 130 b 983 -27 791 32 848 -27 b 1392 104 1112 -27 1392 26 b 1239 234 1392 157 1239 115 b 1449 882 1239 345 1341 639 b 1466 954 1459 905 1466 934 b 1367 1033 1466 1003 1414 1033 b 1154 1036 1333 1033 1225 1036 b 1054 960 1095 1036 1054 1016 b 801 216 1054 851 850 451 b 652 182 772 206 714 182 b 560 264 597 182 560 197 b 820 966 560 479 820 920 b 696 1042 820 1017 772 1042 b 226 906 408 1042 226 966 b 272 867 226 888 243 872 b 355 809 321 859 355 844 b 352 790 355 804 354 796 b 146 222 304 661 146 429 b 416 -27 146 27 277 -27 b 791 151 553 -27 708 58 b 791 130 791 143 791 136 z m 1157 1365 b 831 1139 981 1299 831 1190 b 854 1113 831 1122 840 1113 b 904 1122 872 1113 886 1116 b 1345 1202 1044 1164 1250 1189 b 1421 1279 1404 1210 1421 1250 b 1270 1390 1421 1337 1356 1390 b 1157 1365 1241 1390 1202 1382 z "},"Û":{"ha":1508,"x_min":0,"x_max":0,"o":"m 791 130 b 983 -27 791 32 848 -27 b 1392 104 1112 -27 1392 26 b 1239 234 1392 157 1239 115 b 1449 882 1239 345 1341 639 b 1466 954 1459 905 1466 934 b 1367 1033 1466 1003 1414 1033 b 1154 1036 1333 1033 1225 1036 b 1054 960 1095 1036 1054 1016 b 801 216 1054 851 850 451 b 652 182 772 206 714 182 b 560 264 597 182 560 197 b 820 966 560 479 820 920 b 696 1042 820 1017 772 1042 b 226 906 408 1042 226 966 b 272 867 226 888 243 872 b 355 809 321 859 355 844 b 352 790 355 804 354 796 b 146 222 304 661 146 429 b 416 -27 146 27 277 -27 b 791 151 553 -27 708 58 b 791 130 791 143 791 136 z m 1152 1350 b 1061 1390 1131 1372 1107 1390 b 958 1361 1012 1390 993 1383 b 675 1134 795 1259 675 1175 b 708 1103 675 1114 691 1103 b 779 1119 726 1103 751 1109 b 1027 1208 905 1162 926 1170 b 1235 1112 1111 1163 1132 1154 b 1298 1099 1258 1103 1282 1099 b 1333 1127 1316 1099 1333 1106 b 1152 1350 1333 1164 1259 1245 z "},"Ü":{"ha":1508,"x_min":0,"x_max":0,"o":"m 791 130 b 983 -27 791 32 848 -27 b 1392 104 1112 -27 1392 26 b 1239 234 1392 157 1239 115 b 1449 882 1239 345 1341 639 b 1466 954 1459 905 1466 934 b 1367 1033 1466 1003 1414 1033 b 1154 1036 1333 1033 1225 1036 b 1054 960 1095 1036 1054 1016 b 801 216 1054 851 850 451 b 652 182 772 206 714 182 b 560 264 597 182 560 197 b 820 966 560 479 820 920 b 696 1042 820 1017 772 1042 b 226 906 408 1042 226 966 b 272 867 226 888 243 872 b 355 809 321 859 355 844 b 352 790 355 804 354 796 b 146 222 304 661 146 429 b 416 -27 146 27 277 -27 b 791 151 553 -27 708 58 b 791 130 791 143 791 136 z m 732 1113 b 967 1263 847 1113 967 1177 b 807 1370 967 1326 898 1370 b 572 1217 692 1370 572 1305 b 732 1113 572 1154 642 1113 z m 1234 1113 b 1469 1263 1350 1113 1469 1177 b 1309 1370 1469 1326 1400 1370 b 1074 1217 1194 1370 1074 1305 b 1234 1113 1074 1154 1144 1113 z "},"Ý":{"ha":1389,"x_min":0,"x_max":0,"o":"m 578 -201 b 494 -310 559 -227 494 -279 b 561 -346 494 -332 517 -346 b 1143 82 812 -346 1003 -273 b 1411 906 1197 219 1336 730 b 1436 970 1423 937 1436 951 b 1339 1033 1436 1008 1384 1033 b 1156 1035 1305 1033 1227 1035 b 1021 995 1074 1035 1029 1029 b 790 229 956 723 874 452 b 655 205 748 216 697 205 b 540 296 592 205 540 229 b 772 968 540 446 772 873 b 648 1042 772 1018 724 1042 b 199 906 360 1042 199 966 b 245 867 199 888 216 872 b 328 809 294 859 328 844 b 325 790 328 804 327 796 b 142 262 307 732 142 429 b 406 32 142 100 275 32 b 759 151 541 32 674 88 b 578 -201 697 -2 635 -126 z m 1086 1365 b 760 1139 910 1299 760 1190 b 784 1113 760 1122 769 1113 b 833 1122 802 1113 816 1116 b 1274 1202 973 1164 1179 1189 b 1351 1279 1333 1210 1351 1250 b 1199 1390 1351 1337 1285 1390 b 1086 1365 1171 1390 1131 1382 z "},"Ř":{"ha":1504,"x_min":0,"x_max":0,"o":"m 764 732 b 795 808 790 779 795 788 b 712 843 795 840 754 843 b 450 798 633 843 515 829 b 144 251 281 716 227 417 b -9 144 100 161 72 144 b -54 111 -31 144 -54 132 b 290 -14 -54 56 113 -14 b 551 144 437 -14 509 1 b 640 422 575 224 607 326 b 673 423 651 422 663 423 b 824 319 791 423 824 368 b 779 124 824 269 779 193 b 1020 -27 779 31 857 -27 b 1404 88 1226 -27 1404 26 b 1263 187 1404 159 1263 92 b 1276 308 1263 229 1276 274 b 985 484 1276 421 1162 484 b 1447 792 1257 526 1447 603 b 977 1069 1447 1009 1171 1069 b 237 893 610 1069 402 1000 b 198 839 214 879 198 857 b 234 815 198 824 213 815 b 734 922 276 815 422 922 b 1023 752 861 922 1023 904 b 663 489 1023 597 888 515 b 764 732 701 595 738 689 z m 825 1138 b 916 1099 846 1116 870 1099 b 1019 1127 965 1099 984 1105 b 1301 1354 1181 1229 1301 1314 b 1269 1385 1301 1375 1286 1385 b 1198 1369 1251 1385 1226 1379 b 950 1280 1072 1326 1051 1318 b 742 1376 866 1325 845 1335 b 679 1390 719 1385 694 1390 b 644 1361 661 1390 644 1382 b 825 1138 644 1324 718 1244 z "},"Ŕ":{"ha":1504,"x_min":0,"x_max":0,"o":"m 764 732 b 795 808 790 779 795 788 b 712 843 795 840 754 843 b 450 798 633 843 515 829 b 144 251 281 716 227 417 b -9 144 100 161 72 144 b -54 111 -31 144 -54 132 b 290 -14 -54 56 113 -14 b 551 144 437 -14 509 1 b 640 422 575 224 607 326 b 673 423 651 422 663 423 b 824 319 791 423 824 368 b 779 124 824 269 779 193 b 1020 -27 779 31 857 -27 b 1404 88 1226 -27 1404 26 b 1263 187 1404 159 1263 92 b 1276 308 1263 229 1276 274 b 985 484 1276 421 1162 484 b 1447 792 1257 526 1447 603 b 977 1069 1447 1009 1171 1069 b 237 893 610 1069 402 1000 b 198 839 214 879 198 857 b 234 815 198 824 213 815 b 734 922 276 815 422 922 b 1023 752 861 922 1023 904 b 663 489 1023 597 888 515 b 764 732 701 595 738 689 z m 1038 1365 b 711 1139 861 1299 711 1190 b 735 1113 711 1122 720 1113 b 785 1122 753 1113 767 1116 b 1225 1202 924 1164 1131 1189 b 1302 1279 1284 1210 1302 1250 b 1150 1390 1302 1337 1236 1390 b 1038 1365 1122 1390 1082 1382 z "},"Ø":{"ha":1389,"x_min":0,"x_max":0,"o":"m 291 133 b 73 5 220 87 129 42 b 49 -46 58 -4 49 -23 b 106 -131 49 -81 79 -131 b 120 -127 111 -131 116 -130 b 323 24 185 -84 242 -31 z m 1259 808 b 1479 937 1345 864 1410 891 b 1503 987 1494 946 1503 965 b 1449 1076 1503 1018 1474 1076 b 1438 1073 1444 1076 1442 1075 b 1234 922 1377 1033 1314 975 l 1226 917 z m 706 737 b 787 829 755 781 787 803 b 736 861 787 843 777 861 b 92 314 469 861 92 645 b 576 -27 92 87 258 -27 b 1377 625 1013 -27 1377 220 b 864 1069 1377 874 1230 1069 b 275 859 582 1069 275 913 b 300 839 275 843 287 839 b 734 935 325 839 532 935 b 965 659 901 935 965 858 b 618 92 965 366 775 92 b 503 267 536 92 503 159 b 706 737 503 479 611 661 z "},"Ö":{"ha":1389,"x_min":0,"x_max":0,"o":"m 706 737 b 787 829 755 781 787 803 b 736 861 787 843 777 861 b 92 314 469 861 92 645 b 576 -27 92 87 258 -27 b 1377 625 1013 -27 1377 220 b 864 1069 1377 874 1230 1069 b 275 859 582 1069 275 913 b 300 839 275 843 287 839 b 734 935 325 839 532 935 b 965 659 901 935 965 858 b 618 92 965 366 775 92 b 503 267 536 92 503 159 b 706 737 503 479 611 661 z m 690 1113 b 925 1263 805 1113 925 1177 b 765 1370 925 1326 856 1370 b 530 1217 650 1370 530 1305 b 690 1113 530 1154 600 1113 z m 1192 1113 b 1427 1263 1308 1113 1427 1177 b 1267 1370 1427 1326 1358 1370 b 1031 1217 1152 1370 1031 1305 b 1192 1113 1031 1154 1102 1113 z "},"Õ":{"ha":1389,"x_min":0,"x_max":0,"o":"m 706 737 b 787 829 755 781 787 803 b 736 861 787 843 777 861 b 92 314 469 861 92 645 b 576 -27 92 87 258 -27 b 1377 625 1013 -27 1377 220 b 864 1069 1377 874 1230 1069 b 275 859 582 1069 275 913 b 300 839 275 843 287 839 b 734 935 325 839 532 935 b 965 659 901 935 965 858 b 618 92 965 366 775 92 b 503 267 536 92 503 159 b 706 737 503 479 611 661 z m 1314 1233 b 1365 1313 1336 1256 1365 1289 b 1318 1346 1365 1335 1344 1346 b 1154 1304 1277 1346 1194 1304 b 879 1373 1072 1304 991 1373 b 666 1270 811 1373 734 1343 b 615 1190 644 1246 615 1215 b 662 1156 615 1168 634 1156 b 826 1198 703 1156 786 1198 b 1101 1129 909 1198 989 1129 b 1314 1233 1168 1129 1246 1158 z "},"Ô":{"ha":1389,"x_min":0,"x_max":0,"o":"m 706 737 b 787 829 755 781 787 803 b 736 861 787 843 777 861 b 92 314 469 861 92 645 b 576 -27 92 87 258 -27 b 1377 625 1013 -27 1377 220 b 864 1069 1377 874 1230 1069 b 275 859 582 1069 275 913 b 300 839 275 843 287 839 b 734 935 325 839 532 935 b 965 659 901 935 965 858 b 618 92 965 366 775 92 b 503 267 536 92 503 159 b 706 737 503 479 611 661 z m 1110 1350 b 1019 1390 1088 1372 1065 1390 b 916 1361 970 1390 951 1383 b 633 1134 753 1259 633 1175 b 666 1103 633 1114 649 1103 b 736 1119 684 1103 709 1109 b 985 1208 863 1162 884 1170 b 1193 1112 1069 1163 1090 1154 b 1256 1099 1216 1103 1240 1099 b 1291 1127 1274 1099 1291 1106 b 1110 1350 1291 1164 1217 1245 z "},"Ó":{"ha":1389,"x_min":0,"x_max":0,"o":"m 706 737 b 787 829 755 781 787 803 b 736 861 787 843 777 861 b 92 314 469 861 92 645 b 576 -27 92 87 258 -27 b 1377 625 1013 -27 1377 220 b 864 1069 1377 874 1230 1069 b 275 859 582 1069 275 913 b 300 839 275 843 287 839 b 734 935 325 839 532 935 b 965 659 901 935 965 858 b 618 92 965 366 775 92 b 503 267 536 92 503 159 b 706 737 503 479 611 661 z m 1115 1365 b 789 1139 939 1299 789 1190 b 812 1113 789 1122 798 1113 b 862 1122 830 1113 844 1116 b 1303 1202 1002 1164 1208 1189 b 1379 1279 1362 1210 1379 1250 b 1227 1390 1379 1337 1314 1390 b 1115 1365 1199 1390 1160 1382 z "},"Ò":{"ha":1389,"x_min":0,"x_max":0,"o":"m 706 737 b 787 829 755 781 787 803 b 736 861 787 843 777 861 b 92 314 469 861 92 645 b 576 -27 92 87 258 -27 b 1377 625 1013 -27 1377 220 b 864 1069 1377 874 1230 1069 b 275 859 582 1069 275 913 b 300 839 275 843 287 839 b 734 935 325 839 532 935 b 965 659 901 935 965 858 b 618 92 965 366 775 92 b 503 267 536 92 503 159 b 706 737 503 479 611 661 z m 761 1390 b 632 1287 690 1390 632 1354 b 722 1190 632 1232 672 1195 b 1050 1127 855 1177 925 1165 b 1133 1109 1088 1116 1108 1109 b 1162 1135 1152 1109 1162 1120 b 761 1390 1162 1186 940 1390 z "},"Ŗ":{"ha":1504,"x_min":0,"x_max":0,"o":"m 764 732 b 795 808 790 779 795 788 b 712 843 795 840 754 843 b 450 798 633 843 515 829 b 144 251 281 716 227 417 b -9 144 100 161 72 144 b -54 111 -31 144 -54 132 b 290 -14 -54 56 113 -14 b 551 144 437 -14 509 1 b 640 422 575 224 607 326 b 673 423 651 422 663 423 b 824 319 791 423 824 368 b 779 124 824 269 779 193 b 1020 -27 779 31 857 -27 b 1404 88 1226 -27 1404 26 b 1263 187 1404 159 1263 92 b 1276 308 1263 229 1276 274 b 985 484 1276 421 1162 484 b 1447 792 1257 526 1447 603 b 977 1069 1447 1009 1171 1069 b 237 893 610 1069 402 1000 b 198 839 214 879 198 857 b 234 815 198 824 213 815 b 734 922 276 815 422 922 b 1023 752 861 922 1023 904 b 663 489 1023 597 888 515 b 764 732 701 595 738 689 z m 654 -274 b 467 -338 594 -311 543 -317 b 418 -380 440 -345 418 -356 b 475 -407 418 -400 442 -407 b 856 -201 673 -407 856 -344 b 671 -74 856 -100 748 -74 b 388 -197 505 -74 388 -129 b 569 -281 388 -256 458 -281 b 654 -274 604 -281 631 -280 z "},"Ð":{"ha":1388,"x_min":0,"x_max":0,"o":"m 130 512 b 70 427 100 511 70 478 b 103 374 70 387 86 374 b 544 407 220 374 414 407 b 721 406 606 407 667 406 b 819 495 773 406 819 414 b 793 547 819 529 809 547 b 357 513 643 536 501 513 b 212 514 313 513 255 514 b 130 512 184 514 157 513 z m 706 922 b 991 671 900 922 991 840 b 586 106 991 437 895 106 b 540 109 569 106 554 107 l 551 138 b 758 732 618 327 699 642 b 793 816 787 780 793 800 b 712 850 793 846 753 850 b 455 804 633 850 522 836 b 149 251 281 723 236 406 b -8 144 98 161 73 144 b -54 109 -30 144 -54 132 b 301 -14 -54 55 125 -14 b 491 30 395 -14 450 -10 b 773 -27 577 -18 678 -27 b 1378 580 1164 -27 1378 294 b 818 1069 1378 851 1242 1069 b 176 895 587 1069 356 1015 b 136 840 154 880 136 859 b 173 815 136 823 151 815 b 706 922 212 815 454 922 z "},"Đ":{"ha":1388,"x_min":0,"x_max":0,"o":"m 130 512 b 70 427 100 511 70 478 b 103 374 70 387 86 374 b 544 407 220 374 414 407 b 721 406 606 407 667 406 b 819 495 773 406 819 414 b 793 547 819 529 809 547 b 357 513 643 536 501 513 b 212 514 313 513 255 514 b 130 512 184 514 157 513 z m 706 922 b 991 671 900 922 991 840 b 586 106 991 437 895 106 b 540 109 569 106 554 107 l 551 138 b 758 732 618 327 699 642 b 793 816 787 780 793 800 b 712 850 793 846 753 850 b 455 804 633 850 522 836 b 149 251 281 723 236 406 b -8 144 98 161 73 144 b -54 109 -30 144 -54 132 b 301 -14 -54 55 125 -14 b 491 30 395 -14 450 -10 b 773 -27 577 -18 678 -27 b 1378 580 1164 -27 1378 294 b 818 1069 1378 851 1242 1069 b 176 895 587 1069 356 1015 b 136 840 154 880 136 859 b 173 815 136 823 151 815 b 706 922 212 815 454 922 z "},"ĺ":{"ha":694,"x_min":0,"x_max":0,"o":"m 792 130 b 825 172 821 151 825 159 b 804 193 825 186 815 193 b 765 186 795 193 777 191 b 515 111 686 151 579 111 b 469 161 478 111 469 131 b 728 972 469 266 728 854 b 693 1006 728 987 719 1006 b 361 999 612 1006 437 999 b 295 965 316 999 295 985 b 296 939 295 956 296 948 b 45 95 296 741 45 191 b 276 -27 45 -5 137 -27 b 792 130 503 -27 743 95 z m 600 1365 b 273 1139 423 1299 273 1190 b 297 1113 273 1122 282 1113 b 347 1122 315 1113 329 1116 b 787 1202 486 1164 692 1189 b 864 1279 846 1210 864 1250 b 712 1390 864 1337 798 1390 b 600 1365 684 1390 644 1382 z "},"Ł":{"ha":1273,"x_min":0,"x_max":0,"o":"m 94 475 b 43 397 68 471 43 441 b 83 335 43 347 66 335 b 464 408 160 348 367 392 b 921 475 566 425 840 461 b 972 552 948 479 972 508 b 939 616 972 596 956 616 b 489 523 867 604 583 538 b 94 475 404 509 162 487 z m 321 761 b 118 148 245 553 212 277 b 8 34 78 92 8 82 b 75 -12 8 5 31 -12 b 346 -5 157 -12 246 -5 b 924 -14 498 -5 747 -14 b 1175 193 1084 -14 1133 56 b 1225 433 1203 283 1225 378 b 1175 477 1225 460 1199 477 b 1126 458 1156 477 1141 473 b 454 89 942 265 800 107 b 628 319 535 124 589 207 b 925 954 721 587 788 871 b 977 1009 958 974 977 991 b 797 1055 977 1050 898 1055 b 321 761 501 1055 413 1035 z "},"Ŀ":{"ha":2125,"x_min":0,"x_max":0,"o":""},"Ḟ":{"ha":1273,"x_min":0,"x_max":0,"o":"m 787 691 b 819 767 802 726 819 747 b 713 802 819 798 764 802 b 453 763 635 802 530 800 b 172 251 285 682 254 417 b 18 144 127 161 99 144 b -26 111 -4 144 -24 132 b 317 -14 -26 56 140 -14 b 612 144 464 -14 569 -1 b 685 403 637 230 661 318 b 959 286 820 395 909 286 b 1002 311 977 286 992 297 b 1093 527 1034 359 1093 487 b 996 572 1093 559 1045 572 b 712 494 890 572 775 528 b 787 691 734 566 759 633 z m 1202 713 b 1249 694 1214 703 1229 694 b 1275 699 1257 694 1265 696 b 1419 979 1324 713 1415 924 b 951 1069 1419 1053 1135 1069 b 191 829 527 1069 191 900 b 214 808 191 812 203 808 b 264 823 221 808 242 812 b 677 905 384 876 573 905 b 1202 713 873 905 1075 825 z m 907 1126 b 1155 1272 1026 1126 1155 1185 b 987 1386 1155 1344 1086 1386 b 737 1240 869 1386 737 1327 b 907 1126 737 1167 808 1126 z "},"Ā":{"ha":1275,"x_min":0,"x_max":0,"o":"m 802 -27 b 1187 48 1047 -27 1149 22 b 1215 99 1206 62 1215 79 b 1153 123 1215 128 1185 120 b 1080 194 1097 127 1080 149 b 1199 801 1080 313 1199 604 b 850 1069 1199 995 1076 1069 b 349 915 568 1069 349 951 b 376 895 349 901 359 895 b 635 922 433 895 496 922 b 792 819 728 922 792 897 b 576 123 792 663 576 262 b 802 -27 576 20 659 -27 z m 692 787 b 721 827 713 803 721 817 b 692 844 721 840 710 844 b -23 67 569 844 -23 385 b 115 -5 -23 15 1 -5 b 299 56 227 -5 299 4 b 288 104 299 69 294 85 b 280 168 283 122 280 146 b 335 358 280 225 301 291 b 606 409 441 364 549 380 b 629 440 616 414 629 423 b 581 468 629 467 597 468 b 408 464 517 468 463 464 l 398 464 b 692 787 492 604 619 734 z m 684 1322 b 620 1220 654 1322 620 1275 b 650 1158 620 1185 634 1158 b 923 1172 728 1158 825 1172 b 1199 1158 1027 1172 1116 1158 b 1263 1262 1231 1158 1263 1205 b 1240 1322 1263 1291 1255 1322 b 966 1308 1166 1322 1062 1308 b 684 1322 880 1308 753 1322 z "},"Ă":{"ha":1275,"x_min":0,"x_max":0,"o":"m 802 -27 b 1187 48 1047 -27 1149 22 b 1215 99 1206 62 1215 79 b 1153 123 1215 128 1185 120 b 1080 194 1097 127 1080 149 b 1199 801 1080 313 1199 604 b 850 1069 1199 995 1076 1069 b 349 915 568 1069 349 951 b 376 895 349 901 359 895 b 635 922 433 895 496 922 b 792 819 728 922 792 897 b 576 123 792 663 576 262 b 802 -27 576 20 659 -27 z m 692 787 b 721 827 713 803 721 817 b 692 844 721 840 710 844 b -23 67 569 844 -23 385 b 115 -5 -23 15 1 -5 b 299 56 227 -5 299 4 b 288 104 299 69 294 85 b 280 168 283 122 280 146 b 335 358 280 225 301 291 b 606 409 441 364 549 380 b 629 440 616 414 629 423 b 581 468 629 467 597 468 b 408 464 517 468 463 464 l 398 464 b 692 787 492 604 619 734 z m 1013 1296 b 717 1387 857 1296 772 1387 b 670 1341 690 1387 670 1373 b 696 1266 670 1311 683 1286 b 982 1116 747 1187 825 1116 b 1288 1253 1111 1116 1214 1179 b 1354 1360 1324 1290 1354 1324 b 1320 1388 1354 1379 1342 1388 b 1013 1296 1265 1388 1215 1296 z "},"Ć":{"ha":1273,"x_min":0,"x_max":0,"o":"m 931 985 b 1023 933 979 985 1023 978 b 880 591 1023 870 880 631 b 1020 509 880 528 969 509 b 1303 810 1211 509 1303 660 b 920 1069 1303 947 1173 1069 b 78 377 551 1069 78 774 b 611 -27 78 131 292 -27 b 1160 176 857 -27 1160 86 b 1120 199 1160 193 1143 199 b 786 141 1059 199 975 141 b 523 407 599 141 523 258 b 931 985 523 673 768 985 z m 1078 1365 b 752 1139 902 1299 752 1190 b 776 1113 752 1122 761 1113 b 825 1122 793 1113 808 1116 b 1266 1202 965 1164 1171 1189 b 1343 1279 1325 1210 1343 1250 b 1191 1390 1343 1337 1277 1390 b 1078 1365 1162 1390 1123 1382 z "},"Ĉ":{"ha":1273,"x_min":0,"x_max":0,"o":"m 931 985 b 1023 933 979 985 1023 978 b 880 591 1023 870 880 631 b 1020 509 880 528 969 509 b 1303 810 1211 509 1303 660 b 920 1069 1303 947 1173 1069 b 78 377 551 1069 78 774 b 611 -27 78 131 292 -27 b 1160 176 857 -27 1160 86 b 1120 199 1160 193 1143 199 b 786 141 1059 199 975 141 b 523 407 599 141 523 258 b 931 985 523 673 768 985 z m 1074 1350 b 983 1390 1052 1372 1028 1390 b 879 1361 933 1390 914 1383 b 597 1134 717 1259 597 1175 b 629 1103 597 1114 612 1103 b 700 1119 647 1103 672 1109 b 948 1208 827 1162 847 1170 b 1156 1112 1032 1163 1053 1154 b 1219 1099 1179 1103 1204 1099 b 1254 1127 1237 1099 1254 1106 b 1074 1350 1254 1164 1180 1245 z "},"Č":{"ha":1273,"x_min":0,"x_max":0,"o":"m 931 985 b 1023 933 979 985 1023 978 b 880 591 1023 870 880 631 b 1020 509 880 528 969 509 b 1303 810 1211 509 1303 660 b 920 1069 1303 947 1173 1069 b 78 377 551 1069 78 774 b 611 -27 78 131 292 -27 b 1160 176 857 -27 1160 86 b 1120 199 1160 193 1143 199 b 786 141 1059 199 975 141 b 523 407 599 141 523 258 b 931 985 523 673 768 985 z m 865 1138 b 956 1099 887 1116 911 1099 b 1060 1127 1006 1099 1025 1105 b 1342 1354 1222 1229 1342 1314 b 1310 1385 1342 1375 1326 1385 b 1239 1369 1292 1385 1267 1379 b 991 1280 1112 1326 1092 1318 b 783 1376 907 1325 886 1335 b 720 1390 760 1385 735 1390 b 685 1361 702 1390 685 1382 b 865 1138 685 1324 759 1244 z "},"Ċ":{"ha":1273,"x_min":0,"x_max":0,"o":"m 931 985 b 1023 933 979 985 1023 978 b 880 591 1023 870 880 631 b 1020 509 880 528 969 509 b 1303 810 1211 509 1303 660 b 920 1069 1303 947 1173 1069 b 78 377 551 1069 78 774 b 611 -27 78 131 292 -27 b 1160 176 857 -27 1160 86 b 1120 199 1160 193 1143 199 b 786 141 1059 199 975 141 b 523 407 599 141 523 258 b 931 985 523 673 768 985 z m 866 1126 b 1114 1272 985 1126 1114 1185 b 946 1386 1114 1344 1045 1386 b 696 1240 829 1386 696 1327 b 866 1126 696 1167 768 1126 z "},"Ě":{"ha":1273,"x_min":0,"x_max":0,"o":"m 1189 161 b 1163 187 1189 178 1179 187 b 1142 184 1157 187 1149 186 b 793 125 1031 153 905 125 b 547 298 689 125 547 167 b 887 485 547 442 772 477 b 966 585 919 487 966 526 b 940 623 966 612 959 623 b 883 619 921 623 901 619 b 640 787 745 619 640 699 b 852 956 640 884 734 956 b 1080 789 956 956 1032 897 b 1150 730 1093 759 1120 730 b 1196 751 1173 730 1184 739 b 1319 956 1235 787 1319 905 b 1293 998 1319 978 1307 989 b 857 1069 1196 1056 1004 1069 b 256 766 559 1069 256 962 b 715 559 256 597 561 567 b 41 242 410 558 41 474 b 589 -27 41 51 280 -27 b 1189 161 845 -27 1189 62 z m 838 1138 b 929 1099 860 1116 884 1099 b 1033 1127 979 1099 998 1105 b 1315 1354 1195 1229 1315 1314 b 1282 1385 1315 1375 1299 1385 b 1212 1369 1265 1385 1240 1379 b 964 1280 1085 1326 1065 1318 b 755 1376 880 1325 859 1335 b 692 1390 732 1385 708 1390 b 658 1361 675 1390 658 1382 b 838 1138 658 1324 732 1244 z "},"Ē":{"ha":1273,"x_min":0,"x_max":0,"o":"m 1189 161 b 1163 187 1189 178 1179 187 b 1142 184 1157 187 1149 186 b 793 125 1031 153 905 125 b 547 298 689 125 547 167 b 887 485 547 442 772 477 b 966 585 919 487 966 526 b 940 623 966 612 959 623 b 883 619 921 623 901 619 b 640 787 745 619 640 699 b 852 956 640 884 734 956 b 1080 789 956 956 1032 897 b 1150 730 1093 759 1120 730 b 1196 751 1173 730 1184 739 b 1319 956 1235 787 1319 905 b 1293 998 1319 978 1307 989 b 857 1069 1196 1056 1004 1069 b 256 766 559 1069 256 962 b 715 559 256 597 561 567 b 41 242 410 558 41 474 b 589 -27 41 51 280 -27 b 1189 161 845 -27 1189 62 z m 643 1322 b 578 1220 612 1322 578 1275 b 609 1158 578 1185 593 1158 b 882 1172 687 1158 783 1172 b 1158 1158 985 1172 1075 1158 b 1222 1262 1190 1158 1222 1205 b 1198 1322 1222 1291 1214 1322 b 925 1308 1125 1322 1021 1308 b 643 1322 838 1308 712 1322 z "},"Ĕ":{"ha":1273,"x_min":0,"x_max":0,"o":"m 1189 161 b 1163 187 1189 178 1179 187 b 1142 184 1157 187 1149 186 b 793 125 1031 153 905 125 b 547 298 689 125 547 167 b 887 485 547 442 772 477 b 966 585 919 487 966 526 b 940 623 966 612 959 623 b 883 619 921 623 901 619 b 640 787 745 619 640 699 b 852 956 640 884 734 956 b 1080 789 956 956 1032 897 b 1150 730 1093 759 1120 730 b 1196 751 1173 730 1184 739 b 1319 956 1235 787 1319 905 b 1293 998 1319 978 1307 989 b 857 1069 1196 1056 1004 1069 b 256 766 559 1069 256 962 b 715 559 256 597 561 567 b 41 242 410 558 41 474 b 589 -27 41 51 280 -27 b 1189 161 845 -27 1189 62 z m 971 1296 b 675 1387 816 1296 730 1387 b 629 1341 649 1387 629 1373 b 654 1266 629 1311 642 1286 b 941 1116 705 1187 784 1116 b 1246 1253 1069 1116 1173 1179 b 1313 1360 1283 1290 1313 1324 b 1279 1388 1313 1379 1301 1388 b 971 1296 1223 1388 1173 1296 z "},"Ė":{"ha":1273,"x_min":0,"x_max":0,"o":"m 1189 161 b 1163 187 1189 178 1179 187 b 1142 184 1157 187 1149 186 b 793 125 1031 153 905 125 b 547 298 689 125 547 167 b 887 485 547 442 772 477 b 966 585 919 487 966 526 b 940 623 966 612 959 623 b 883 619 921 623 901 619 b 640 787 745 619 640 699 b 852 956 640 884 734 956 b 1080 789 956 956 1032 897 b 1150 730 1093 759 1120 730 b 1196 751 1173 730 1184 739 b 1319 956 1235 787 1319 905 b 1293 998 1319 978 1307 989 b 857 1069 1196 1056 1004 1069 b 256 766 559 1069 256 962 b 715 559 256 597 561 567 b 41 242 410 558 41 474 b 589 -27 41 51 280 -27 b 1189 161 845 -27 1189 62 z m 839 1126 b 1087 1272 958 1126 1087 1185 b 919 1386 1087 1344 1018 1386 b 669 1240 802 1386 669 1327 b 839 1126 669 1167 741 1126 z "},"Ĝ":{"ha":1388,"x_min":0,"x_max":0,"o":"m 950 975 b 1056 931 994 975 1056 964 b 980 742 1056 887 980 767 b 1120 659 980 678 1069 659 b 1377 840 1311 659 1377 765 b 969 1069 1377 977 1261 1069 b 92 367 589 1069 92 768 b 559 0 92 153 218 0 b 773 24 641 0 715 9 b 749 -18 765 7 757 -7 b 611 -151 703 -87 611 -105 b 781 -194 611 -178 678 -194 b 1126 -71 976 -194 1074 -149 b 1289 386 1174 3 1227 264 b 1306 439 1299 407 1306 423 b 1126 493 1306 477 1250 493 b 753 414 892 493 753 466 b 876 332 753 367 876 383 b 804 97 876 311 842 195 b 788 96 799 96 793 96 b 535 418 610 96 535 233 b 950 975 535 696 753 975 z m 1138 1350 b 1047 1390 1116 1372 1093 1390 b 943 1361 998 1390 979 1383 b 661 1134 781 1259 661 1175 b 694 1103 661 1114 677 1103 b 764 1119 711 1103 736 1109 b 1013 1208 891 1162 911 1170 b 1221 1112 1097 1163 1118 1154 b 1284 1099 1244 1103 1268 1099 b 1318 1127 1301 1099 1318 1106 b 1138 1350 1318 1164 1244 1245 z "},"Ğ":{"ha":1388,"x_min":0,"x_max":0,"o":"m 950 975 b 1056 931 994 975 1056 964 b 980 742 1056 887 980 767 b 1120 659 980 678 1069 659 b 1377 840 1311 659 1377 765 b 969 1069 1377 977 1261 1069 b 92 367 589 1069 92 768 b 559 0 92 153 218 0 b 773 24 641 0 715 9 b 749 -18 765 7 757 -7 b 611 -151 703 -87 611 -105 b 781 -194 611 -178 678 -194 b 1126 -71 976 -194 1074 -149 b 1289 386 1174 3 1227 264 b 1306 439 1299 407 1306 423 b 1126 493 1306 477 1250 493 b 753 414 892 493 753 466 b 876 332 753 367 876 383 b 804 97 876 311 842 195 b 788 96 799 96 793 96 b 535 418 610 96 535 233 b 950 975 535 696 753 975 z m 1063 1296 b 767 1387 907 1296 822 1387 b 720 1341 741 1387 720 1373 b 746 1266 720 1311 733 1286 b 1032 1116 797 1187 876 1116 b 1338 1253 1161 1116 1264 1179 b 1404 1360 1375 1290 1404 1324 b 1371 1388 1404 1379 1392 1388 b 1063 1296 1315 1388 1265 1296 z "},"Ģ":{"ha":1388,"x_min":0,"x_max":0,"o":"m 950 975 b 1056 931 994 975 1056 964 b 980 742 1056 887 980 767 b 1120 659 980 678 1069 659 b 1377 840 1311 659 1377 765 b 969 1069 1377 977 1261 1069 b 92 367 589 1069 92 768 b 559 0 92 153 218 0 l 574 0 b 1185 138 771 0 1096 3 b 1289 386 1233 212 1227 264 b 1306 439 1299 407 1306 423 b 1126 493 1306 477 1250 493 b 753 414 892 493 753 466 b 876 336 753 368 876 381 b 796 111 876 290 836 178 l 788 111 b 535 418 610 111 535 233 b 950 975 535 696 753 975 z m 608 -274 b 420 -338 547 -311 496 -317 b 371 -380 393 -345 371 -356 b 429 -407 371 -400 395 -407 b 809 -201 626 -407 809 -344 b 624 -74 809 -100 701 -74 b 341 -197 458 -74 341 -129 b 522 -281 341 -256 412 -281 b 608 -274 557 -281 585 -280 z "},"Ġ":{"ha":1388,"x_min":0,"x_max":0,"o":"m 950 975 b 1056 931 994 975 1056 964 b 980 742 1056 887 980 767 b 1120 659 980 678 1069 659 b 1377 840 1311 659 1377 765 b 969 1069 1377 977 1261 1069 b 92 367 589 1069 92 768 b 559 0 92 153 218 0 b 773 24 641 0 715 9 b 749 -18 765 7 757 -7 b 611 -151 703 -87 611 -105 b 781 -194 611 -178 678 -194 b 1126 -71 976 -194 1074 -149 b 1289 386 1174 3 1227 264 b 1306 439 1299 407 1306 423 b 1126 493 1306 477 1250 493 b 753 414 892 493 753 466 b 876 332 753 367 876 383 b 804 97 876 311 842 195 b 788 96 799 96 793 96 b 535 418 610 96 535 233 b 950 975 535 696 753 975 z m 985 1126 b 1233 1272 1104 1126 1233 1185 b 1065 1386 1233 1344 1164 1386 b 815 1240 947 1386 815 1327 b 985 1126 815 1167 886 1126 z "},"Ĥ":{"ha":1388,"x_min":0,"x_max":0,"o":"m 613 1055 b 240 913 498 1055 330 987 b 184 837 214 892 184 863 b 214 816 184 819 197 816 b 294 832 239 816 271 832 b 330 770 317 832 330 819 b 87 108 330 663 129 285 b 81 46 83 90 81 66 b 180 -12 81 -9 131 -12 b 452 -8 279 -12 373 -8 b 523 37 480 -8 523 7 b 521 82 523 54 521 68 b 619 408 521 155 566 276 b 803 452 692 416 760 431 b 825 484 812 457 825 467 b 778 511 825 510 793 511 b 660 508 731 511 696 509 b 781 906 722 660 781 812 b 613 1055 781 1028 730 1055 z m 1412 980 b 1358 1036 1412 1011 1394 1036 b 1086 1024 1281 1036 1215 1024 b 996 963 1023 1024 996 1013 b 990 871 996 939 996 907 b 762 46 957 665 762 195 b 861 -12 762 -9 812 -12 b 1112 -8 960 -12 1034 -8 b 1183 37 1141 -8 1183 7 b 1181 80 1183 53 1181 66 b 1412 980 1181 364 1412 738 z m 1067 1350 b 976 1390 1045 1372 1021 1390 b 872 1361 926 1390 907 1383 b 590 1134 710 1259 590 1175 b 623 1103 590 1114 606 1103 b 693 1119 640 1103 665 1109 b 941 1208 820 1162 840 1170 b 1149 1112 1025 1163 1046 1154 b 1213 1099 1173 1103 1197 1099 b 1247 1127 1230 1099 1247 1106 b 1067 1350 1247 1164 1173 1245 z "},"Ī":{"ha":926,"x_min":0,"x_max":0,"o":"m 254 243 b 94 123 210 150 182 134 b 49 88 73 121 49 111 b 406 -14 49 35 218 -14 b 684 183 544 -14 639 41 b 902 896 783 492 902 762 b 730 1042 902 976 871 1042 b 151 666 477 1042 151 915 b 316 403 151 542 228 457 b 254 243 290 330 267 271 z m 439 828 b 345 486 439 786 393 629 b 292 655 315 533 292 587 b 402 865 292 812 375 865 b 439 828 426 865 439 849 z m 478 1322 b 414 1220 448 1322 414 1275 b 444 1158 414 1185 428 1158 b 717 1172 522 1158 618 1172 b 993 1158 821 1172 910 1158 b 1057 1262 1025 1158 1057 1205 b 1034 1322 1057 1291 1049 1322 b 760 1308 960 1322 856 1308 b 478 1322 673 1308 547 1322 z "},"Ĭ":{"ha":926,"x_min":0,"x_max":0,"o":"m 254 243 b 94 123 210 150 182 134 b 49 88 73 121 49 111 b 406 -14 49 35 218 -14 b 684 183 544 -14 639 41 b 902 896 783 492 902 762 b 730 1042 902 976 871 1042 b 151 666 477 1042 151 915 b 316 403 151 542 228 457 b 254 243 290 330 267 271 z m 439 828 b 345 486 439 786 393 629 b 292 655 315 533 292 587 b 402 865 292 812 375 865 b 439 828 426 865 439 849 z m 806 1296 b 511 1387 651 1296 566 1387 b 464 1341 484 1387 464 1373 b 490 1266 464 1311 477 1286 b 776 1116 541 1187 619 1116 b 1082 1253 905 1116 1008 1179 b 1148 1360 1118 1290 1148 1324 b 1114 1388 1148 1379 1136 1388 b 806 1296 1059 1388 1008 1296 z "},"İ":{"ha":926,"x_min":0,"x_max":0,"o":"m 254 243 b 94 123 210 150 182 134 b 49 88 73 121 49 111 b 406 -14 49 35 218 -14 b 684 183 544 -14 639 41 b 902 896 783 492 902 762 b 730 1042 902 976 871 1042 b 151 666 477 1042 151 915 b 316 403 151 542 228 457 b 254 243 290 330 267 271 z m 439 828 b 345 486 439 786 393 629 b 292 655 315 533 292 587 b 402 865 292 812 375 865 b 439 828 426 865 439 849 z m 674 1126 b 922 1272 793 1126 922 1185 b 754 1386 922 1344 853 1386 b 505 1240 637 1386 505 1327 b 674 1126 505 1167 576 1126 z "},"Ķ":{"ha":1503,"x_min":0,"x_max":0,"o":"m 633 1055 b 260 913 519 1055 355 981 b 205 837 237 896 205 863 b 235 816 205 819 218 816 b 315 832 260 816 291 832 b 351 770 337 832 351 819 b 87 108 351 663 129 285 b 81 46 83 90 81 66 b 180 -12 81 -9 131 -12 b 452 -8 279 -12 305 -8 b 523 37 480 -8 523 7 b 521 82 523 54 521 68 b 801 906 521 255 801 709 b 633 1055 801 1028 751 1055 z m 1047 -27 b 1407 98 1311 -27 1407 43 b 1352 132 1407 125 1384 132 b 1249 244 1297 132 1249 146 b 1257 331 1249 268 1251 296 b 1261 367 1259 344 1261 356 b 994 494 1261 481 1139 494 b 941 493 977 494 959 494 b 1441 842 1187 524 1362 587 b 1487 1015 1467 925 1487 1002 b 1457 1044 1487 1035 1478 1044 b 1180 1028 1385 1044 1233 1028 b 1116 969 1147 1028 1125 1014 b 762 545 1069 755 994 628 b 720 499 741 537 720 522 b 848 381 720 462 848 503 b 796 113 848 325 796 210 b 1047 -27 796 -10 934 -27 z m 656 -274 b 469 -338 595 -311 544 -317 b 419 -380 441 -345 419 -356 b 477 -407 419 -400 444 -407 b 857 -201 674 -407 857 -344 b 672 -74 857 -100 749 -74 b 389 -197 507 -74 389 -129 b 570 -281 389 -256 460 -281 b 656 -274 605 -281 633 -280 z "},"Ļ":{"ha":1273,"x_min":0,"x_max":0,"o":"m 321 761 b 118 148 245 553 212 277 b 8 34 78 92 8 82 b 75 -12 8 5 31 -12 b 346 -5 157 -12 246 -5 b 924 -14 498 -5 747 -14 b 1175 193 1084 -14 1133 56 b 1225 433 1203 283 1225 378 b 1175 477 1225 460 1199 477 b 1126 458 1156 477 1141 473 b 454 89 942 265 800 107 b 628 319 535 124 589 207 b 925 954 721 587 788 871 b 977 1009 958 974 977 991 b 797 1055 977 1050 898 1055 b 321 761 501 1055 413 1035 z m 593 -274 b 406 -338 532 -311 481 -317 b 356 -380 378 -345 356 -356 b 414 -407 356 -400 380 -407 b 794 -201 611 -407 794 -344 b 609 -74 794 -100 686 -74 b 326 -197 444 -74 326 -129 b 507 -281 326 -256 397 -281 b 593 -274 542 -281 570 -280 z "},"Ņ":{"ha":1504,"x_min":0,"x_max":0,"o":"m 620 1055 b 247 913 505 1055 338 986 b 191 837 219 890 191 863 b 221 816 191 819 204 816 b 301 832 246 816 277 832 b 337 770 323 832 337 819 b 94 108 337 663 136 285 b 87 46 90 90 87 66 b 186 -12 87 -9 138 -12 b 458 -8 286 -12 312 -8 b 530 37 487 -8 530 7 b 528 82 530 54 528 68 b 771 801 528 229 714 578 b 905 843 807 821 852 843 b 1008 778 954 843 1008 830 b 800 124 1008 637 800 328 b 1031 -27 800 20 897 -27 b 1394 93 1240 -27 1394 30 b 1326 133 1394 121 1357 127 b 1229 238 1274 142 1229 173 b 1451 902 1229 374 1451 736 b 1240 1069 1451 1013 1371 1069 b 785 876 1102 1069 968 1017 b 787 906 786 886 787 897 b 620 1055 787 1028 737 1055 z m 688 -274 b 501 -338 628 -311 576 -317 b 452 -380 474 -345 452 -356 b 509 -407 452 -400 476 -407 b 890 -201 707 -407 890 -344 b 705 -74 890 -100 782 -74 b 422 -197 539 -74 422 -129 b 603 -281 422 -256 492 -281 b 688 -274 637 -281 665 -280 z "},"Ō":{"ha":1389,"x_min":0,"x_max":0,"o":"m 706 737 b 787 829 755 781 787 803 b 736 861 787 843 777 861 b 92 314 469 861 92 645 b 576 -27 92 87 258 -27 b 1377 625 1013 -27 1377 220 b 864 1069 1377 874 1230 1069 b 275 859 582 1069 275 913 b 300 839 275 843 287 839 b 734 935 325 839 532 935 b 965 659 901 935 965 858 b 618 92 965 366 775 92 b 503 267 536 92 503 159 b 706 737 503 479 611 661 z m 707 1322 b 642 1220 676 1322 642 1275 b 673 1158 642 1185 656 1158 b 945 1172 751 1158 847 1172 b 1221 1158 1049 1172 1139 1158 b 1286 1262 1253 1158 1286 1205 b 1262 1322 1286 1291 1278 1322 b 989 1308 1189 1322 1084 1308 b 707 1322 902 1308 776 1322 z "},"Ŏ":{"ha":1389,"x_min":0,"x_max":0,"o":"m 706 737 b 787 829 755 781 787 803 b 736 861 787 843 777 861 b 92 314 469 861 92 645 b 576 -27 92 87 258 -27 b 1377 625 1013 -27 1377 220 b 864 1069 1377 874 1230 1069 b 275 859 582 1069 275 913 b 300 839 275 843 287 839 b 734 935 325 839 532 935 b 965 659 901 935 965 858 b 618 92 965 366 775 92 b 503 267 536 92 503 159 b 706 737 503 479 611 661 z m 1035 1296 b 739 1387 880 1296 794 1387 b 692 1341 713 1387 692 1373 b 718 1266 692 1311 705 1286 b 1004 1116 769 1187 848 1116 b 1310 1253 1133 1116 1236 1179 b 1377 1360 1347 1290 1377 1324 b 1343 1388 1377 1379 1364 1388 b 1035 1296 1287 1388 1237 1296 z "},"Ţ":{"ha":1158,"x_min":0,"x_max":0,"o":"m 535 -27 b 998 71 707 -27 859 -12 b 1038 125 1022 85 1038 101 b 977 159 1038 150 1015 159 b 840 146 934 159 890 146 b 726 298 755 146 726 210 b 823 680 726 422 777 585 b 833 722 829 696 833 710 b 758 775 833 758 805 775 b 497 662 684 775 605 770 b 210 157 372 535 210 315 b 535 -27 210 -3 351 -27 z m 254 1027 b 117 745 171 1005 117 791 b 152 705 117 714 135 705 b 349 787 178 705 239 741 b 810 862 475 839 686 862 b 1144 761 951 862 1100 761 b 1268 1004 1200 761 1268 954 b 1181 1063 1268 1046 1236 1063 b 811 1023 1156 1063 871 1023 b 353 1034 734 1023 475 1034 b 254 1027 307 1034 271 1034 z m 555 -274 b 368 -338 495 -311 444 -317 b 319 -380 341 -345 319 -356 b 376 -407 319 -400 343 -407 b 757 -201 574 -407 757 -344 b 572 -74 757 -100 649 -74 b 289 -197 406 -74 289 -129 b 470 -281 289 -256 359 -281 b 555 -274 505 -281 532 -280 z "},"Ũ":{"ha":1508,"x_min":0,"x_max":0,"o":"m 791 130 b 983 -27 791 32 848 -27 b 1392 104 1112 -27 1392 26 b 1239 234 1392 157 1239 115 b 1449 882 1239 345 1341 639 b 1466 954 1459 905 1466 934 b 1367 1033 1466 1003 1414 1033 b 1154 1036 1333 1033 1225 1036 b 1054 960 1095 1036 1054 1016 b 801 216 1054 851 850 451 b 652 182 772 206 714 182 b 560 264 597 182 560 197 b 820 966 560 479 820 920 b 696 1042 820 1017 772 1042 b 226 906 408 1042 226 966 b 272 867 226 888 243 872 b 355 809 321 859 355 844 b 352 790 355 804 354 796 b 146 222 304 661 146 429 b 416 -27 146 27 277 -27 b 791 151 553 -27 708 58 b 791 130 791 143 791 136 z m 1356 1233 b 1407 1313 1378 1256 1407 1289 b 1360 1346 1407 1335 1386 1346 b 1196 1304 1319 1346 1236 1304 b 921 1373 1114 1304 1034 1373 b 708 1270 853 1373 776 1343 b 657 1190 686 1246 657 1215 b 704 1156 657 1168 676 1156 b 868 1198 745 1156 828 1198 b 1143 1129 951 1198 1031 1129 b 1356 1233 1211 1129 1289 1158 z "},"Ū":{"ha":1508,"x_min":0,"x_max":0,"o":"m 791 130 b 983 -27 791 32 848 -27 b 1392 104 1112 -27 1392 26 b 1239 234 1392 157 1239 115 b 1449 882 1239 345 1341 639 b 1466 954 1459 905 1466 934 b 1367 1033 1466 1003 1414 1033 b 1154 1036 1333 1033 1225 1036 b 1054 960 1095 1036 1054 1016 b 801 216 1054 851 850 451 b 652 182 772 206 714 182 b 560 264 597 182 560 197 b 820 966 560 479 820 920 b 696 1042 820 1017 772 1042 b 226 906 408 1042 226 966 b 272 867 226 888 243 872 b 355 809 321 859 355 844 b 352 790 355 804 354 796 b 146 222 304 661 146 429 b 416 -27 146 27 277 -27 b 791 151 553 -27 708 58 b 791 130 791 143 791 136 z m 749 1322 b 684 1220 718 1322 684 1275 b 715 1158 684 1185 699 1158 b 987 1172 793 1158 889 1172 b 1263 1158 1091 1172 1181 1158 b 1328 1262 1295 1158 1328 1205 b 1304 1322 1328 1291 1320 1322 b 1031 1308 1231 1322 1126 1308 b 749 1322 944 1308 818 1322 z "},"Ŭ":{"ha":1508,"x_min":0,"x_max":0,"o":"m 791 130 b 983 -27 791 32 848 -27 b 1392 104 1112 -27 1392 26 b 1239 234 1392 157 1239 115 b 1449 882 1239 345 1341 639 b 1466 954 1459 905 1466 934 b 1367 1033 1466 1003 1414 1033 b 1154 1036 1333 1033 1225 1036 b 1054 960 1095 1036 1054 1016 b 801 216 1054 851 850 451 b 652 182 772 206 714 182 b 560 264 597 182 560 197 b 820 966 560 479 820 920 b 696 1042 820 1017 772 1042 b 226 906 408 1042 226 966 b 272 867 226 888 243 872 b 355 809 321 859 355 844 b 352 790 355 804 354 796 b 146 222 304 661 146 429 b 416 -27 146 27 277 -27 b 791 151 553 -27 708 58 b 791 130 791 143 791 136 z m 1077 1296 b 781 1387 922 1296 836 1387 b 734 1341 755 1387 734 1373 b 760 1266 734 1311 747 1286 b 1046 1116 811 1187 890 1116 b 1352 1253 1175 1116 1278 1179 b 1419 1360 1389 1290 1419 1324 b 1385 1388 1419 1379 1407 1388 b 1077 1296 1329 1388 1279 1296 z "},"Ů":{"ha":1508,"x_min":0,"x_max":0,"o":"m 791 130 b 983 -27 791 32 848 -27 b 1392 104 1112 -27 1392 26 b 1239 234 1392 157 1239 115 b 1449 882 1239 345 1341 639 b 1466 954 1459 905 1466 934 b 1367 1033 1466 1003 1414 1033 b 1154 1036 1333 1033 1225 1036 b 1054 960 1095 1036 1054 1016 b 801 216 1054 851 850 451 b 652 182 772 206 714 182 b 560 264 597 182 560 197 b 820 966 560 479 820 920 b 696 1042 820 1017 772 1042 b 226 906 408 1042 226 966 b 272 867 226 888 243 872 b 355 809 321 859 355 844 b 352 790 355 804 354 796 b 146 222 304 661 146 429 b 416 -27 146 27 277 -27 b 791 151 553 -27 708 58 b 791 130 791 143 791 136 z m 878 1197 b 1030 1288 878 1263 961 1288 b 1122 1217 1084 1288 1122 1266 b 983 1126 1122 1151 1049 1126 b 878 1197 929 1126 878 1145 z m 1048 1383 b 710 1181 842 1383 710 1300 b 955 1041 710 1084 806 1041 b 1292 1238 1157 1041 1292 1126 b 1048 1383 1292 1332 1206 1383 z "},"Ẁ":{"ha":1966,"x_min":0,"x_max":0,"o":"m 459 -34 b 874 156 574 -34 726 39 b 1050 -34 904 43 958 -34 b 1995 804 1330 -34 1809 342 b 2054 1021 2018 859 2054 972 b 2031 1035 2054 1031 2046 1035 b 1758 1027 2000 1035 1782 1027 b 1710 982 1733 1027 1718 1010 b 1171 143 1557 461 1273 143 b 1122 269 1125 143 1122 213 b 1407 1006 1122 438 1344 711 b 1384 1021 1407 1017 1400 1021 b 1097 1014 1353 1021 1122 1014 b 1049 968 1058 1008 1052 983 b 578 143 960 555 680 143 b 525 302 544 143 525 241 b 741 945 525 511 569 660 b 751 979 748 958 751 968 b 567 1042 751 1031 669 1042 b 77 898 308 1042 77 953 b 123 859 77 880 94 864 b 226 808 172 851 226 842 b 222 786 226 801 224 793 b 136 467 183 699 136 585 b 459 -34 136 213 290 -34 z m 1063 1390 b 935 1287 992 1390 935 1354 b 1025 1190 935 1232 975 1195 b 1352 1127 1158 1177 1227 1165 b 1436 1109 1390 1116 1411 1109 b 1465 1135 1454 1109 1465 1120 b 1063 1390 1465 1186 1242 1390 z "},"Ẃ":{"ha":1966,"x_min":0,"x_max":0,"o":"m 459 -34 b 874 156 574 -34 726 39 b 1050 -34 904 43 958 -34 b 1995 804 1330 -34 1809 342 b 2054 1021 2018 859 2054 972 b 2031 1035 2054 1031 2046 1035 b 1758 1027 2000 1035 1782 1027 b 1710 982 1733 1027 1718 1010 b 1171 143 1557 461 1273 143 b 1122 269 1125 143 1122 213 b 1407 1006 1122 438 1344 711 b 1384 1021 1407 1017 1400 1021 b 1097 1014 1353 1021 1122 1014 b 1049 968 1058 1008 1052 983 b 578 143 960 555 680 143 b 525 302 544 143 525 241 b 741 945 525 511 569 660 b 751 979 748 958 751 968 b 567 1042 751 1031 669 1042 b 77 898 308 1042 77 953 b 123 859 77 880 94 864 b 226 808 172 851 226 842 b 222 786 226 801 224 793 b 136 467 183 699 136 585 b 459 -34 136 213 290 -34 z m 1417 1365 b 1091 1139 1241 1299 1091 1190 b 1115 1113 1091 1122 1100 1113 b 1164 1122 1133 1113 1147 1116 b 1605 1202 1304 1164 1510 1189 b 1682 1279 1664 1210 1682 1250 b 1530 1390 1682 1337 1616 1390 b 1417 1365 1501 1390 1462 1382 z "},"Ŵ":{"ha":1966,"x_min":0,"x_max":0,"o":"m 459 -34 b 874 156 574 -34 726 39 b 1050 -34 904 43 958 -34 b 1995 804 1330 -34 1809 342 b 2054 1021 2018 859 2054 972 b 2031 1035 2054 1031 2046 1035 b 1758 1027 2000 1035 1782 1027 b 1710 982 1733 1027 1718 1010 b 1171 143 1557 461 1273 143 b 1122 269 1125 143 1122 213 b 1407 1006 1122 438 1344 711 b 1384 1021 1407 1017 1400 1021 b 1097 1014 1353 1021 1122 1014 b 1049 968 1058 1008 1052 983 b 578 143 960 555 680 143 b 525 302 544 143 525 241 b 741 945 525 511 569 660 b 751 979 748 958 751 968 b 567 1042 751 1031 669 1042 b 77 898 308 1042 77 953 b 123 859 77 880 94 864 b 226 808 172 851 226 842 b 222 786 226 801 224 793 b 136 467 183 699 136 585 b 459 -34 136 213 290 -34 z m 1413 1350 b 1322 1390 1391 1372 1367 1390 b 1218 1361 1272 1390 1253 1383 b 936 1134 1056 1259 936 1175 b 968 1103 936 1114 951 1103 b 1039 1119 986 1103 1011 1109 b 1287 1208 1166 1162 1186 1170 b 1495 1112 1371 1163 1392 1154 b 1558 1099 1518 1103 1543 1099 b 1593 1127 1576 1099 1593 1106 b 1413 1350 1593 1164 1519 1245 z "},"Ẅ":{"ha":1966,"x_min":0,"x_max":0,"o":"m 459 -34 b 874 156 574 -34 726 39 b 1050 -34 904 43 958 -34 b 1995 804 1330 -34 1809 342 b 2054 1021 2018 859 2054 972 b 2031 1035 2054 1031 2046 1035 b 1758 1027 2000 1035 1782 1027 b 1710 982 1733 1027 1718 1010 b 1171 143 1557 461 1273 143 b 1122 269 1125 143 1122 213 b 1407 1006 1122 438 1344 711 b 1384 1021 1407 1017 1400 1021 b 1097 1014 1353 1021 1122 1014 b 1049 968 1058 1008 1052 983 b 578 143 960 555 680 143 b 525 302 544 143 525 241 b 741 945 525 511 569 660 b 751 979 748 958 751 968 b 567 1042 751 1031 669 1042 b 77 898 308 1042 77 953 b 123 859 77 880 94 864 b 226 808 172 851 226 842 b 222 786 226 801 224 793 b 136 467 183 699 136 585 b 459 -34 136 213 290 -34 z m 992 1113 b 1227 1263 1107 1113 1227 1177 b 1067 1370 1227 1326 1158 1370 b 832 1217 953 1370 832 1305 b 992 1113 832 1154 903 1113 z m 1494 1113 b 1729 1263 1610 1113 1729 1177 b 1569 1370 1729 1326 1660 1370 b 1334 1217 1455 1370 1334 1305 b 1494 1113 1334 1154 1404 1113 z "},"Ỳ":{"ha":1389,"x_min":0,"x_max":0,"o":"m 578 -201 b 494 -310 559 -227 494 -279 b 561 -346 494 -332 517 -346 b 1143 82 812 -346 1003 -273 b 1411 906 1197 219 1336 730 b 1436 970 1423 937 1436 951 b 1339 1033 1436 1008 1384 1033 b 1156 1035 1305 1033 1227 1035 b 1021 995 1074 1035 1029 1029 b 790 229 956 723 874 452 b 655 205 748 216 697 205 b 540 296 592 205 540 229 b 772 968 540 446 772 873 b 648 1042 772 1018 724 1042 b 199 906 360 1042 199 966 b 245 867 199 888 216 872 b 328 809 294 859 328 844 b 325 790 328 804 327 796 b 142 262 307 732 142 429 b 406 32 142 100 275 32 b 759 151 541 32 674 88 b 578 -201 697 -2 635 -126 z m 732 1390 b 604 1287 661 1390 604 1354 b 694 1190 604 1232 644 1195 b 1021 1127 827 1177 897 1165 b 1105 1109 1059 1116 1080 1109 b 1134 1135 1123 1109 1134 1120 b 732 1390 1134 1186 911 1390 z "},"Ŷ":{"ha":1389,"x_min":0,"x_max":0,"o":"m 578 -201 b 494 -310 559 -227 494 -279 b 561 -346 494 -332 517 -346 b 1143 82 812 -346 1003 -273 b 1411 906 1197 219 1336 730 b 1436 970 1423 937 1436 951 b 1339 1033 1436 1008 1384 1033 b 1156 1035 1305 1033 1227 1035 b 1021 995 1074 1035 1029 1029 b 790 229 956 723 874 452 b 655 205 748 216 697 205 b 540 296 592 205 540 229 b 772 968 540 446 772 873 b 648 1042 772 1018 724 1042 b 199 906 360 1042 199 966 b 245 867 199 888 216 872 b 328 809 294 859 328 844 b 325 790 328 804 327 796 b 142 262 307 732 142 429 b 406 32 142 100 275 32 b 759 151 541 32 674 88 b 578 -201 697 -2 635 -126 z m 1082 1350 b 991 1390 1060 1372 1036 1390 b 887 1361 941 1390 922 1383 b 605 1134 725 1259 605 1175 b 637 1103 605 1114 621 1103 b 708 1119 655 1103 680 1109 b 956 1208 835 1162 855 1170 b 1164 1112 1040 1163 1061 1154 b 1227 1099 1187 1103 1212 1099 b 1262 1127 1245 1099 1262 1106 b 1082 1350 1262 1164 1188 1245 z "},"Ÿ":{"ha":1389,"x_min":0,"x_max":0,"o":"m 578 -201 b 494 -310 559 -227 494 -279 b 561 -346 494 -332 517 -346 b 1143 82 812 -346 1003 -273 b 1411 906 1197 219 1336 730 b 1436 970 1423 937 1436 951 b 1339 1033 1436 1008 1384 1033 b 1156 1035 1305 1033 1227 1035 b 1021 995 1074 1035 1029 1029 b 790 229 956 723 874 452 b 655 205 748 216 697 205 b 540 296 592 205 540 229 b 772 968 540 446 772 873 b 648 1042 772 1018 724 1042 b 199 906 360 1042 199 966 b 245 867 199 888 216 872 b 328 809 294 859 328 844 b 325 790 328 804 327 796 b 142 262 307 732 142 429 b 406 32 142 100 275 32 b 759 151 541 32 674 88 b 578 -201 697 -2 635 -126 z m 661 1113 b 897 1263 777 1113 897 1177 b 736 1370 897 1326 827 1370 b 501 1217 622 1370 501 1305 b 661 1113 501 1154 572 1113 z m 1163 1113 b 1398 1263 1279 1113 1398 1177 b 1238 1370 1398 1326 1329 1370 b 1003 1217 1124 1370 1003 1305 b 1163 1113 1003 1154 1074 1113 z "},"Ź":{"ha":1273,"x_min":0,"x_max":0,"o":"m 1151 309 b 1196 272 1176 309 1196 300 b 1110 39 1196 209 1137 82 b 901 -27 1086 0 1044 -27 b 474 60 800 -27 609 1 b 324 -26 405 -2 366 -26 b 28 52 252 -26 97 20 b -16 102 0 65 -16 77 b 888 966 -16 238 783 743 b 987 1049 912 1016 941 1049 b 1289 859 1063 1049 1289 954 b 1289 852 1289 859 1289 859 b 561 144 1265 684 754 275 b 1151 309 886 154 1117 309 z m 776 951 b 686 880 776 907 732 890 b 243 709 410 817 316 709 b 205 769 213 709 205 736 b 344 1010 205 850 260 993 b 505 1023 391 1019 448 1023 b 776 951 628 1023 776 1009 z m 998 1365 b 672 1139 822 1299 672 1190 b 696 1113 672 1122 681 1113 b 745 1122 713 1113 728 1116 b 1186 1202 885 1164 1091 1189 b 1263 1279 1245 1210 1263 1250 b 1111 1390 1263 1337 1197 1390 b 998 1365 1082 1390 1043 1382 z "},"Ž":{"ha":1273,"x_min":0,"x_max":0,"o":"m 1151 309 b 1196 272 1176 309 1196 300 b 1110 39 1196 209 1137 82 b 901 -27 1086 0 1044 -27 b 474 60 800 -27 609 1 b 324 -26 405 -2 366 -26 b 28 52 252 -26 97 20 b -16 102 0 65 -16 77 b 888 966 -16 238 783 743 b 987 1049 912 1016 941 1049 b 1289 859 1063 1049 1289 954 b 1289 852 1289 859 1289 859 b 561 144 1265 684 754 275 b 1151 309 886 154 1117 309 z m 776 951 b 686 880 776 907 732 890 b 243 709 410 817 316 709 b 205 769 213 709 205 736 b 344 1010 205 850 260 993 b 505 1023 391 1019 448 1023 b 776 951 628 1023 776 1009 z m 785 1138 b 876 1099 807 1116 831 1099 b 980 1127 926 1099 945 1105 b 1262 1354 1142 1229 1262 1314 b 1230 1385 1262 1375 1246 1385 b 1159 1369 1212 1385 1187 1379 b 911 1280 1032 1326 1012 1318 b 703 1376 827 1325 806 1335 b 640 1390 680 1385 655 1390 b 605 1361 622 1390 605 1382 b 785 1138 605 1324 679 1244 z "},"Ż":{"ha":1273,"x_min":0,"x_max":0,"o":"m 1151 309 b 1196 272 1176 309 1196 300 b 1110 39 1196 209 1137 82 b 901 -27 1086 0 1044 -27 b 474 60 800 -27 609 1 b 324 -26 405 -2 366 -26 b 28 52 252 -26 97 20 b -16 102 0 65 -16 77 b 888 966 -16 238 783 743 b 987 1049 912 1016 941 1049 b 1289 859 1063 1049 1289 954 b 1289 852 1289 859 1289 859 b 561 144 1265 684 754 275 b 1151 309 886 154 1117 309 z m 776 951 b 686 880 776 907 732 890 b 243 709 410 817 316 709 b 205 769 213 709 205 736 b 344 1010 205 850 260 993 b 505 1023 391 1019 448 1023 b 776 951 628 1023 776 1009 z m 786 1126 b 1034 1272 905 1126 1034 1185 b 866 1386 1034 1344 965 1386 b 616 1240 749 1386 616 1327 b 786 1126 616 1167 688 1126 z "},"Ḃ":{"ha":1388,"x_min":0,"x_max":0,"o":"m 760 739 b 794 816 789 786 794 795 b 712 850 794 846 753 850 b 455 804 633 850 520 836 b 149 251 283 722 236 419 b -9 144 102 161 73 144 b -54 110 -31 144 -54 132 b 286 -14 -54 56 109 -14 b 508 43 387 -14 458 -7 b 873 -27 609 1 746 -27 b 1324 287 1093 -27 1324 52 b 964 531 1324 446 1126 529 b 1402 805 1244 542 1402 662 b 922 1069 1402 960 1261 1069 b 161 827 565 1069 161 911 b 197 805 161 812 176 805 b 724 928 245 805 403 928 b 1031 784 892 928 1031 903 b 691 565 1031 665 918 578 b 760 739 715 642 739 705 z m 937 345 b 600 111 937 178 782 111 b 553 114 585 111 569 112 b 564 144 557 123 560 134 b 672 505 597 247 635 385 b 937 345 814 502 937 444 z m 935 1126 b 1183 1272 1054 1126 1183 1185 b 1015 1386 1183 1344 1114 1386 b 765 1240 897 1386 765 1327 b 935 1126 765 1167 836 1126 z "},"Ṫ":{"ha":1158,"x_min":0,"x_max":0,"o":"m 535 -27 b 998 71 707 -27 859 -12 b 1038 125 1022 85 1038 101 b 977 159 1038 150 1015 159 b 840 146 934 159 890 146 b 726 298 755 146 726 210 b 823 680 726 422 777 585 b 833 722 829 696 833 710 b 758 775 833 758 805 775 b 497 662 684 775 605 770 b 210 157 372 535 210 315 b 535 -27 210 -3 351 -27 z m 254 1027 b 117 745 171 1005 117 791 b 152 705 117 714 135 705 b 349 787 178 705 239 741 b 810 862 475 839 686 862 b 1144 761 951 862 1100 761 b 1268 1004 1200 761 1268 954 b 1181 1063 1268 1046 1236 1063 b 811 1023 1156 1063 871 1023 b 353 1034 734 1023 475 1034 b 254 1027 307 1034 271 1034 z m 787 1126 b 1036 1272 907 1126 1036 1185 b 867 1386 1036 1344 966 1386 b 618 1240 750 1386 618 1327 b 787 1126 618 1167 689 1126 z "},"Ť":{"ha":1158,"x_min":0,"x_max":0,"o":"m 535 -27 b 998 71 707 -27 859 -12 b 1038 125 1022 85 1038 101 b 977 159 1038 150 1015 159 b 840 146 934 159 890 146 b 726 298 755 146 726 210 b 823 680 726 422 777 585 b 833 722 829 696 833 710 b 758 775 833 758 805 775 b 497 662 684 775 605 770 b 210 157 372 535 210 315 b 535 -27 210 -3 351 -27 z m 254 1027 b 117 745 171 1005 117 791 b 152 705 117 714 135 705 b 349 787 178 705 239 741 b 810 862 475 839 686 862 b 1144 761 951 862 1100 761 b 1268 1004 1200 761 1268 954 b 1181 1063 1268 1046 1236 1063 b 811 1023 1156 1063 871 1023 b 353 1034 734 1023 475 1034 b 254 1027 307 1034 271 1034 z m 726 1138 b 817 1099 747 1116 771 1099 b 920 1127 866 1099 885 1105 b 1202 1354 1082 1229 1202 1314 b 1170 1385 1202 1375 1187 1385 b 1099 1369 1152 1385 1127 1379 b 851 1280 972 1326 952 1318 b 643 1376 767 1325 746 1335 b 580 1390 620 1385 595 1390 b 545 1361 562 1390 545 1382 b 726 1138 545 1324 619 1244 z "},"Ṡ":{"ha":1273,"x_min":0,"x_max":0,"o":"m 596 -27 b 1131 250 878 -27 1131 37 b 684 751 1131 475 684 637 b 705 821 684 777 705 800 b 647 852 705 836 689 852 b 242 610 500 852 242 795 b 661 163 242 424 661 264 b 568 102 661 118 606 102 b 170 281 378 102 220 281 b 63 80 136 281 63 118 b 80 53 63 67 69 58 b 596 -27 136 24 376 -27 z m 1203 717 b 1221 710 1208 717 1215 717 b 1362 945 1272 710 1358 890 b 1352 975 1362 958 1360 971 b 850 1069 1206 1056 1009 1069 b 133 841 459 1069 133 910 b 155 815 133 825 144 815 b 206 828 163 815 184 819 b 695 926 325 876 511 926 b 1203 717 897 926 1081 862 z m 860 1126 b 1108 1272 979 1126 1108 1185 b 940 1386 1108 1344 1039 1386 b 690 1240 823 1386 690 1327 b 860 1126 690 1167 762 1126 z "},"Ṗ":{"ha":1388,"x_min":0,"x_max":0,"o":"m 774 745 b 808 823 802 793 808 802 b 726 857 808 853 767 857 b 469 811 647 857 534 842 b 149 251 297 729 237 421 b -9 144 102 161 73 144 b -54 110 -31 144 -54 132 b 286 -14 -54 56 109 -14 b 564 144 433 -14 517 1 b 610 290 578 188 594 237 b 768 278 653 281 700 278 b 1430 753 1072 278 1430 420 b 951 1069 1430 911 1329 1069 b 266 909 618 1069 363 962 b 217 858 241 896 217 878 b 248 833 217 843 231 833 b 766 928 308 833 463 928 b 1027 711 926 928 1027 869 b 705 377 1027 509 881 377 b 638 378 683 377 661 377 b 774 745 686 532 737 686 z m 946 1126 b 1194 1272 1065 1126 1194 1185 b 1026 1386 1194 1344 1125 1386 b 777 1240 909 1386 777 1327 b 946 1126 777 1167 848 1126 z "},"Ṁ":{"ha":2084,"x_min":0,"x_max":0,"o":"m 1414 901 b 1217 1069 1414 1007 1348 1069 b 764 871 1079 1069 931 1006 b 767 906 766 884 767 895 b 620 1055 767 1007 737 1055 b 247 913 505 1055 335 989 b 191 837 217 887 191 863 b 221 816 191 819 204 816 b 301 832 246 816 277 832 b 337 770 323 832 337 819 b 94 108 337 661 136 287 b 87 46 90 90 87 66 b 186 -12 87 -9 138 -12 b 438 -8 286 -12 292 -8 b 509 37 467 -8 509 7 b 507 82 509 54 507 68 b 749 792 507 228 690 569 b 924 850 796 819 859 850 b 1002 789 970 850 1002 832 b 748 108 1002 699 813 380 b 739 42 743 88 739 62 b 835 -12 739 -9 787 -12 b 1110 -8 935 -12 964 -8 b 1152 44 1134 -8 1150 15 b 1399 801 1164 269 1345 591 b 1556 850 1448 826 1505 850 b 1624 786 1605 850 1624 821 b 1408 124 1624 649 1408 323 b 1611 -27 1408 20 1477 -27 b 1974 93 1820 -27 1974 30 b 1906 133 1974 121 1941 127 b 1809 238 1854 142 1809 173 b 2031 894 1809 370 2031 663 b 1815 1069 2031 1002 1949 1069 b 1414 895 1691 1069 1561 1009 z m 1199 1126 b 1447 1272 1318 1126 1447 1185 b 1279 1386 1447 1344 1378 1386 b 1029 1240 1162 1386 1029 1327 b 1199 1126 1029 1167 1101 1126 z "},"Š":{"ha":1273,"x_min":0,"x_max":0,"o":"m 596 -27 b 1131 250 878 -27 1131 37 b 684 751 1131 475 684 637 b 705 821 684 777 705 800 b 647 852 705 836 689 852 b 242 610 500 852 242 795 b 661 163 242 424 661 264 b 568 102 661 118 606 102 b 170 281 378 102 220 281 b 63 80 136 281 63 118 b 80 53 63 67 69 58 b 596 -27 136 24 376 -27 z m 1203 717 b 1221 710 1208 717 1215 717 b 1362 945 1272 710 1358 890 b 1352 975 1362 958 1360 971 b 850 1069 1206 1056 1009 1069 b 133 841 459 1069 133 910 b 155 815 133 825 144 815 b 206 828 163 815 184 819 b 695 926 325 876 511 926 b 1203 717 897 926 1081 862 z m 798 1138 b 889 1099 820 1116 844 1099 b 993 1127 939 1099 958 1105 b 1275 1354 1155 1229 1275 1314 b 1242 1385 1275 1375 1259 1385 b 1172 1369 1225 1385 1200 1379 b 924 1280 1045 1326 1025 1318 b 715 1376 840 1325 819 1335 b 652 1390 692 1385 668 1390 b 618 1361 635 1390 618 1382 b 798 1138 618 1324 692 1244 z "},"Ŝ":{"ha":1273,"x_min":0,"x_max":0,"o":"m 596 -27 b 1131 250 878 -27 1131 37 b 684 751 1131 475 684 637 b 705 821 684 777 705 800 b 647 852 705 836 689 852 b 242 610 500 852 242 795 b 661 163 242 424 661 264 b 568 102 661 118 606 102 b 170 281 378 102 220 281 b 63 80 136 281 63 118 b 80 53 63 67 69 58 b 596 -27 136 24 376 -27 z m 1203 717 b 1221 710 1208 717 1215 717 b 1362 945 1272 710 1358 890 b 1352 975 1362 958 1360 971 b 850 1069 1206 1056 1009 1069 b 133 841 459 1069 133 910 b 155 815 133 825 144 815 b 206 828 163 815 184 819 b 695 926 325 876 511 926 b 1203 717 897 926 1081 862 z m 1006 1350 b 916 1390 985 1372 961 1390 b 812 1361 866 1390 847 1383 b 530 1134 650 1259 530 1175 b 562 1103 530 1114 545 1103 b 633 1119 580 1103 605 1109 b 881 1208 760 1162 780 1170 b 1089 1112 965 1163 986 1154 b 1152 1099 1112 1103 1137 1099 b 1187 1127 1170 1099 1187 1106 b 1006 1350 1187 1164 1113 1245 z "},"Ś":{"ha":1273,"x_min":0,"x_max":0,"o":"m 596 -27 b 1131 250 878 -27 1131 37 b 684 751 1131 475 684 637 b 705 821 684 777 705 800 b 647 852 705 836 689 852 b 242 610 500 852 242 795 b 661 163 242 424 661 264 b 568 102 661 118 606 102 b 170 281 378 102 220 281 b 63 80 136 281 63 118 b 80 53 63 67 69 58 b 596 -27 136 24 376 -27 z m 1203 717 b 1221 710 1208 717 1215 717 b 1362 945 1272 710 1358 890 b 1352 975 1362 958 1360 971 b 850 1069 1206 1056 1009 1069 b 133 841 459 1069 133 910 b 155 815 133 825 144 815 b 206 828 163 815 184 819 b 695 926 325 876 511 926 b 1203 717 897 926 1081 862 z m 1011 1365 b 685 1139 835 1299 685 1190 b 709 1113 685 1122 694 1113 b 758 1122 726 1113 741 1116 b 1199 1202 898 1164 1104 1189 b 1276 1279 1258 1210 1276 1250 b 1124 1390 1276 1337 1210 1390 b 1011 1365 1095 1390 1056 1382 z "},"Ď":{"ha":1388,"x_min":0,"x_max":0,"o":"m 706 922 b 991 671 900 922 991 840 b 586 106 991 437 895 106 b 540 109 569 106 554 107 l 551 138 b 758 732 618 327 699 642 b 793 816 787 780 793 800 b 712 850 793 846 753 850 b 455 804 633 850 522 836 b 149 251 281 723 236 406 b -8 144 98 161 73 144 b -54 109 -30 144 -54 132 b 301 -14 -54 55 125 -14 b 491 30 395 -14 450 -10 b 773 -27 577 -18 678 -27 b 1378 580 1164 -27 1378 294 b 818 1069 1378 851 1242 1069 b 176 895 587 1069 356 1015 b 136 840 154 880 136 859 b 173 815 136 823 151 815 b 706 922 212 815 454 922 z m 790 1138 b 881 1099 812 1116 836 1099 b 985 1127 930 1099 949 1105 b 1267 1354 1147 1229 1267 1314 b 1234 1385 1267 1375 1251 1385 b 1164 1369 1217 1385 1192 1379 b 916 1280 1037 1326 1017 1318 b 707 1376 831 1325 810 1335 b 644 1390 684 1385 660 1390 b 610 1361 627 1390 610 1382 b 790 1138 610 1324 684 1244 z "},"Ḋ":{"ha":1388,"x_min":0,"x_max":0,"o":"m 706 922 b 991 671 900 922 991 840 b 586 106 991 437 895 106 b 540 109 569 106 554 107 l 551 138 b 758 732 618 327 699 642 b 793 816 787 780 793 800 b 712 850 793 846 753 850 b 455 804 633 850 522 836 b 149 251 281 723 236 406 b -8 144 98 161 73 144 b -54 109 -30 144 -54 132 b 301 -14 -54 55 125 -14 b 491 30 395 -14 450 -10 b 773 -27 577 -18 678 -27 b 1378 580 1164 -27 1378 294 b 818 1069 1378 851 1242 1069 b 176 895 587 1069 356 1015 b 136 840 154 880 136 859 b 173 815 136 823 151 815 b 706 922 212 815 454 922 z m 852 1126 b 1100 1272 971 1126 1100 1185 b 932 1386 1100 1344 1031 1386 b 682 1240 814 1386 682 1327 b 852 1126 682 1167 753 1126 z "},"Ŋ":{"ha":1478,"x_min":0,"x_max":0,"o":"m 620 1055 b 247 913 505 1055 338 986 b 191 837 219 890 191 863 b 221 816 191 819 204 816 b 301 832 246 816 277 832 b 337 770 323 832 337 819 b 94 108 337 663 136 285 b 87 46 90 90 87 66 b 186 -12 87 -9 138 -12 b 458 -8 286 -12 312 -8 b 530 37 487 -8 530 7 b 528 82 530 54 528 68 b 772 805 528 230 717 583 b 905 843 808 825 852 843 b 1008 778 954 843 1008 830 b 689 -140 1008 618 733 -66 b 570 -304 616 -263 570 -269 b 701 -346 570 -338 616 -346 b 1214 125 973 -346 1108 -197 b 1451 902 1297 380 1451 745 b 1240 1069 1451 1013 1371 1069 b 786 880 1104 1069 910 1006 b 787 906 787 889 787 898 b 620 1055 787 1028 737 1055 z "},"Ľ":{"ha":1273,"x_min":0,"x_max":0,"o":"m 321 761 b 118 148 245 553 212 277 b 8 34 78 92 8 82 b 75 -12 8 5 31 -12 b 346 -5 157 -12 246 -5 b 924 -14 498 -5 747 -14 b 1175 193 1084 -14 1133 56 b 1225 433 1203 283 1225 378 b 1175 477 1225 460 1199 477 b 1126 458 1156 477 1141 473 b 454 89 942 265 800 107 b 628 319 535 124 589 207 b 925 954 721 587 788 871 b 977 1009 958 974 977 991 b 797 1055 977 1050 898 1055 b 321 761 501 1055 413 1035 z m 640 1138 b 731 1099 662 1116 686 1099 b 835 1127 781 1099 800 1105 b 1117 1354 997 1229 1117 1314 b 1084 1385 1117 1375 1101 1385 b 1014 1369 1067 1385 1042 1379 b 766 1280 887 1326 867 1318 b 557 1376 682 1325 661 1335 b 494 1390 534 1385 510 1390 b 460 1361 477 1390 460 1382 b 640 1138 460 1324 534 1244 z "},"Ą":{"ha":1275,"x_min":0,"x_max":0,"o":""},"Ę":{"ha":1273,"x_min":0,"x_max":0,"o":"m 955 65 b 545 -254 763 8 545 -132 b 726 -368 545 -320 607 -368 b 1006 -280 885 -368 1006 -326 b 977 -254 1006 -262 992 -254 b 907 -260 962 -254 942 -260 b 804 -181 847 -260 804 -237 b 955 14 804 -102 888 -16 b 1061 56 998 33 1027 42 z m 1189 161 b 1163 187 1189 178 1179 187 b 1142 184 1157 187 1149 186 b 793 125 1031 153 905 125 b 547 298 689 125 547 167 b 887 485 547 442 772 477 b 966 585 919 487 966 526 b 940 623 966 612 959 623 b 883 619 921 623 901 619 b 640 787 745 619 640 699 b 852 956 640 884 734 956 b 1080 789 956 956 1032 897 b 1150 730 1093 759 1120 730 b 1196 751 1173 730 1184 739 b 1319 956 1235 787 1319 905 b 1293 998 1319 978 1307 989 b 857 1069 1196 1056 1004 1069 b 256 766 559 1069 256 962 b 715 559 256 597 561 567 b 41 242 410 558 41 474 b 589 -27 41 51 280 -27 b 1189 161 845 -27 1189 62 z "},"Į":{"ha":926,"x_min":0,"x_max":0,"o":"m 254 243 b 94 123 210 150 182 134 b 49 88 73 121 49 111 b 406 -14 49 35 218 -14 b 684 183 544 -14 639 41 b 902 896 783 492 902 762 b 730 1042 902 976 871 1042 b 151 666 477 1042 151 915 b 316 403 151 542 228 457 b 254 243 290 330 267 271 z m 439 828 b 345 486 439 786 393 629 b 292 655 315 533 292 587 b 402 865 292 812 375 865 b 439 828 426 865 439 849 z m 512 65 b 102 -254 320 8 102 -132 b 283 -368 102 -320 164 -368 b 563 -280 442 -368 563 -326 b 534 -254 563 -262 549 -254 b 464 -260 519 -254 499 -260 b 361 -181 404 -260 361 -237 b 512 14 361 -102 447 -18 z "},"Ų":{"ha":1508,"x_min":0,"x_max":0,"o":""},"Ŧ":{"ha":1158,"x_min":0,"x_max":0,"o":"m 212 553 b 147 465 181 553 147 520 b 178 417 147 431 161 417 b 566 431 256 417 467 431 b 957 417 669 431 874 417 b 1021 507 989 417 1021 450 b 998 553 1021 536 1013 553 b 609 540 924 553 705 540 b 212 553 522 540 281 553 z m 535 -27 b 998 71 707 -27 859 -12 b 1038 125 1022 85 1038 101 b 977 159 1038 150 1015 159 b 840 146 934 159 890 146 b 726 298 755 146 726 210 b 823 680 726 422 777 585 b 833 722 829 696 833 710 b 758 775 833 758 805 775 b 497 662 684 775 605 770 b 210 157 372 535 210 315 b 535 -27 210 -3 351 -27 z m 254 1027 b 117 745 171 1005 117 791 b 152 705 117 714 135 705 b 349 787 178 705 239 741 b 810 862 475 839 686 862 b 1144 761 951 862 1100 761 b 1268 1004 1200 761 1268 954 b 1181 1063 1268 1046 1236 1063 b 811 1023 1156 1063 871 1023 b 353 1034 734 1023 475 1034 b 254 1027 307 1034 271 1034 z "},"Ħ":{"ha":1388,"x_min":0,"x_max":0,"o":"m 1140 583 l 1143 583 b 1451 570 1247 583 1369 570 b 1516 667 1483 570 1516 610 b 1492 726 1516 696 1508 726 b 1186 713 1397 726 1276 713 z m 488 713 b 169 726 399 713 238 726 b 104 631 138 726 104 686 b 135 570 104 597 119 570 b 441 583 212 570 337 583 z m 613 1055 b 240 913 498 1055 330 987 b 184 837 214 892 184 863 b 214 816 184 819 197 816 b 294 832 239 816 271 832 b 330 770 317 832 330 819 b 87 108 330 663 129 285 b 81 46 83 90 81 66 b 180 -12 81 -9 131 -12 b 452 -8 279 -12 373 -8 b 523 37 480 -8 523 7 b 521 82 523 54 521 68 b 619 408 521 155 566 276 b 803 452 692 416 760 431 b 825 484 812 457 825 467 b 778 511 825 510 793 511 b 660 508 731 511 696 509 b 781 906 722 660 781 812 b 613 1055 781 1028 730 1055 z m 1412 980 b 1358 1036 1412 1011 1394 1036 b 1086 1024 1281 1036 1215 1024 b 996 963 1023 1024 996 1013 b 990 871 996 939 996 907 b 762 46 957 665 762 195 b 861 -12 762 -9 812 -12 b 1112 -8 960 -12 1034 -8 b 1183 37 1141 -8 1183 7 b 1181 80 1183 53 1181 66 b 1412 980 1181 364 1412 738 z "},"Ĺ":{"ha":1273,"x_min":0,"x_max":0,"o":"m 321 761 b 118 148 245 553 212 277 b 8 34 78 92 8 82 b 75 -12 8 5 31 -12 b 346 -5 157 -12 246 -5 b 924 -14 498 -5 747 -14 b 1175 193 1084 -14 1133 56 b 1225 433 1203 283 1225 378 b 1175 477 1225 460 1199 477 b 1126 458 1156 477 1141 473 b 454 89 942 265 800 107 b 628 319 535 124 589 207 b 925 954 721 587 788 871 b 977 1009 958 974 977 991 b 797 1055 977 1050 898 1055 b 321 761 501 1055 413 1035 z m 858 1365 b 532 1139 682 1299 532 1190 b 555 1113 532 1122 541 1113 b 605 1122 573 1113 587 1116 b 1046 1202 745 1164 951 1189 b 1122 1279 1105 1210 1122 1250 b 970 1390 1122 1337 1057 1390 b 858 1365 942 1390 903 1382 z "},"Æ":{"ha":1772,"x_min":0,"x_max":0,"o":"m 850 1069 b 349 915 568 1069 349 951 b 376 895 349 901 359 895 b 635 922 433 895 496 922 b 812 819 728 922 812 897 b 576 123 812 663 576 262 b 947 -27 576 20 663 -27 b 1687 161 1337 -27 1687 62 b 1662 187 1687 178 1678 187 b 1640 184 1655 187 1648 186 b 1292 125 1561 156 1403 125 b 998 265 1114 125 998 163 b 1385 485 998 434 1264 477 b 1464 585 1417 487 1464 526 b 1438 623 1464 612 1457 623 b 1381 619 1419 623 1400 619 b 1137 772 1195 619 1137 687 b 1350 956 1137 890 1249 956 b 1578 789 1454 956 1531 897 b 1649 730 1592 759 1618 730 b 1695 751 1671 730 1683 739 b 1817 956 1733 787 1817 905 b 1792 998 1817 978 1805 989 b 1355 1069 1695 1056 1502 1069 b 1058 1022 1243 1069 1142 1053 b 850 1069 1015 1055 948 1069 z m 692 787 b 721 827 713 803 721 817 b 692 844 721 840 710 844 b -23 67 569 844 -23 385 b 115 -5 -23 15 1 -5 b 299 56 227 -5 299 4 b 288 104 299 69 294 85 b 280 168 283 122 280 146 b 335 358 280 225 301 291 b 606 409 441 364 549 380 b 629 440 616 414 629 423 b 581 468 629 467 597 468 b 408 464 517 468 463 464 l 398 464 b 692 787 492 604 619 734 z "},"Ǽ":{"ha":1772,"x_min":0,"x_max":0,"o":"m 884 1069 b 383 915 602 1069 383 951 b 410 895 383 901 393 895 b 669 922 467 895 530 922 b 846 819 762 922 846 897 b 610 123 846 663 610 262 b 981 -27 610 20 696 -27 b 1721 161 1371 -27 1721 62 b 1695 187 1721 178 1712 187 b 1674 184 1689 187 1682 186 b 1326 125 1595 156 1437 125 b 1031 265 1148 125 1031 163 b 1419 485 1031 434 1298 477 b 1498 585 1451 487 1498 526 b 1472 623 1498 612 1491 623 b 1415 619 1453 623 1434 619 b 1171 772 1229 619 1171 687 b 1384 956 1171 890 1282 956 b 1612 789 1488 956 1565 897 b 1683 730 1626 759 1652 730 b 1729 751 1705 730 1716 739 b 1851 956 1767 787 1851 905 b 1826 998 1851 978 1839 989 b 1389 1069 1729 1056 1536 1069 b 1092 1022 1277 1069 1176 1053 b 884 1069 1048 1055 982 1069 z m 726 787 b 755 827 747 803 755 817 b 726 844 755 840 744 844 b 11 67 603 844 11 385 b 149 -5 11 15 35 -5 b 333 56 260 -5 333 4 b 322 104 333 69 328 85 b 314 168 317 122 314 146 b 369 358 314 225 335 291 b 640 409 475 364 583 380 b 663 440 650 414 663 423 b 615 468 663 467 631 468 b 441 464 551 468 496 464 l 432 464 b 726 787 526 604 653 734 z m 1284 1365 b 958 1139 1108 1299 958 1190 b 982 1113 958 1122 967 1113 b 1031 1122 1000 1113 1014 1116 b 1472 1202 1171 1164 1377 1189 b 1549 1279 1531 1210 1549 1250 b 1397 1390 1549 1337 1483 1390 b 1284 1365 1369 1390 1329 1382 z "},"ƒ":{"ha":1124,"x_min":0,"x_max":0,"o":"m 212 429 b 148 361 182 429 148 416 b 178 319 148 326 162 319 b 329 326 215 319 270 322 b 210 -140 292 178 254 20 b 91 -304 178 -253 91 -269 b 222 -346 91 -338 137 -346 b 612 -48 494 -346 559 -296 b 690 328 635 59 658 189 b 930 319 784 324 882 319 b 995 389 962 319 995 332 b 971 429 995 418 987 429 b 713 419 925 429 813 423 b 775 629 730 488 751 558 b 961 950 850 850 898 950 b 1089 754 998 950 1011 909 b 1120 732 1096 741 1105 732 b 1227 971 1169 732 1227 920 b 1211 1006 1227 992 1223 1001 b 946 1069 1144 1036 1047 1069 b 427 692 680 1069 511 962 b 353 423 402 611 378 520 b 212 429 296 426 242 429 z "},"[":{"ha":809,"x_min":0,"x_max":0,"o":"m 507 1151 b 438 1084 472 1151 448 1133 b 115 -113 399 882 115 90 b 140 -157 115 -141 125 -157 b 366 -150 218 -157 267 -150 b 587 -157 469 -150 505 -157 b 652 -87 619 -157 652 -144 b 628 -41 652 -58 644 -41 b 409 -54 555 -41 505 -54 b 363 -53 393 -54 378 -54 b 671 1048 433 243 591 833 b 712 1048 677 1048 697 1048 b 900 1035 760 1048 817 1035 b 964 1105 932 1035 964 1048 b 941 1151 964 1134 956 1151 b 715 1144 867 1151 810 1144 b 507 1151 628 1144 576 1151 z "},"]":{"ha":808,"x_min":0,"x_max":0,"o":"m 456 -157 b 525 -90 491 -157 515 -139 b 848 1107 564 112 848 905 b 823 1151 848 1135 838 1151 b 597 1144 745 1151 696 1144 b 376 1151 494 1144 458 1151 b 311 1081 344 1151 311 1138 b 335 1035 311 1052 319 1035 b 554 1048 408 1035 458 1048 b 600 1047 570 1048 585 1048 b 292 -54 530 751 372 161 b 251 -54 286 -54 266 -54 b 63 -41 203 -54 146 -41 b -1 -111 31 -41 -1 -54 b 22 -157 -1 -140 7 -157 b 248 -150 96 -157 153 -150 b 456 -157 335 -150 387 -157 z "},"{":{"ha":809,"x_min":0,"x_max":0,"o":"m 357 -150 b 578 -157 460 -150 496 -157 b 643 -87 610 -157 643 -144 b 619 -41 643 -58 635 -41 b 509 -60 593 -41 536 -60 b 427 5 448 -60 427 -33 b 551 419 427 55 551 364 b 349 516 551 490 410 513 b 596 610 426 517 579 528 b 794 1048 673 996 681 1048 b 891 1035 819 1048 859 1035 b 956 1105 923 1035 956 1048 b 932 1151 956 1134 947 1151 b 655 1149 851 1151 755 1149 b 358 623 449 1149 477 1075 b 163 536 336 541 189 576 b 153 498 157 525 153 512 b 222 458 153 464 169 458 b 299 419 275 458 299 455 b 173 -52 299 311 173 47 b 357 -150 173 -125 229 -150 z "},"}":{"ha":809,"x_min":0,"x_max":0,"o":"m 538 1144 b 316 1151 434 1144 399 1151 b 252 1081 284 1151 252 1138 b 275 1035 252 1052 260 1035 b 386 1055 301 1035 358 1055 b 467 989 447 1055 467 1027 b 344 575 467 939 344 630 b 546 478 344 505 484 481 b 298 385 469 477 315 466 b 100 -54 222 -1 214 -54 b 3 -41 75 -54 36 -41 b -61 -111 -28 -41 -61 -54 b -37 -157 -61 -140 -53 -157 b 239 -155 43 -157 139 -155 b 536 371 446 -155 417 -81 b 731 458 558 453 705 418 b 741 496 738 469 741 482 b 672 536 741 530 726 536 b 595 575 620 536 595 539 b 722 1046 595 684 722 947 b 538 1144 722 1120 665 1144 z "},"Ș":{"ha":1273,"x_min":0,"x_max":0,"o":"m 596 -27 b 1131 250 878 -27 1131 37 b 684 751 1131 475 684 637 b 705 821 684 777 705 800 b 647 852 705 836 689 852 b 242 610 500 852 242 795 b 661 163 242 424 661 264 b 568 102 661 118 606 102 b 170 281 378 102 220 281 b 63 80 136 281 63 118 b 80 53 63 67 69 58 b 596 -27 136 24 376 -27 z m 1203 717 b 1221 710 1208 717 1215 717 b 1362 945 1272 710 1358 890 b 1352 975 1362 958 1360 971 b 850 1069 1206 1056 1009 1069 b 133 841 459 1069 133 910 b 155 815 133 825 144 815 b 206 828 163 815 184 819 b 695 926 325 876 511 926 b 1203 717 897 926 1081 862 z m 546 -274 b 359 -338 486 -311 434 -317 b 309 -380 332 -345 309 -356 b 367 -407 309 -400 334 -407 b 747 -201 564 -407 747 -344 b 562 -74 747 -100 640 -74 b 279 -197 397 -74 279 -129 b 460 -281 279 -256 350 -281 b 546 -274 495 -281 523 -280 z "}}}
